<svg xmlns="http://www.w3.org/2000/svg" width="537.5" height="211.51" fill="none" style="-webkit-print-color-adjust:exact"><path d="M430 137h100v74H430v-74Zm-7 74h114m-107-74h100v74H430v-74Zm5 5h90v64h-90v-64Z"/><path d="M430 137h100v74H430v-74Zm-7 74h114m-107-74h100v74H430v-74Zm5 5h90v64h-90v-64Z" class="stroke-shape" style="fill:none;stroke-width:1;stroke:#000;stroke-opacity:1"/><rect width="101" height="74" x="35" y="137" rx="0" ry="0"/><rect width="101" height="74" x="35" y="137" class="stroke-shape" rx="0" ry="0" style="fill:none;stroke-width:1;stroke:#000;stroke-opacity:1"/><text x="62.5" y="165.5" class="text-container" dominant-baseline="text-before-edge" lengthAdjust="spacingAndGlyphs" style="text-transform:none;font-family:Spectral;letter-spacing:normal;font-style:normal;font-weight:400;white-space:pre;font-size:11px;text-decoration:none solid #505050;direction:ltr;fill:#505050;fill-opacity:1" textLength="45.563">Hot plate</text><path d="M276 127.433v-4.507c0-7.6 4.972-11.519 11.437-3.506 6.464 8.013 10.939 18.029 16.409 9.516 5.47-8.514 16.906-11.519 16.906 5.008 0 14.461 0 33.523 9.328 38.062 1.332.649 2.855 1.001 4.595 1.001 8.306 0 24.366-21.034 24.366 3.005 0 24.039 13.509 14.733 21.801 19.226 11.587 10.762 42.195 15.737 42.195 15.737"/><path d="M276 127.433v-4.507c0-7.6 4.972-11.519 11.437-3.506 6.464 8.013 10.939 18.029 16.409 9.516 5.47-8.514 16.906-11.519 16.906 5.008 0 14.461 0 33.523 9.328 38.062 1.332.649 2.855 1.001 4.595 1.001 8.306 0 24.366-21.034 24.366 3.005 0 24.039 13.509 14.733 21.801 19.226 11.587 10.762 42.195 15.737 42.195 15.737" class="stroke-shape" style="fill:none;stroke-width:.5;stroke:#000;stroke-opacity:1"/><path d="M108.954 68v58.997c0 5.521-4.469 10.003-9.974 10.003H71.927c-5.505 0-9.973-4.482-9.973-10.003V72.139S61.955 68 57 68m4.954 31.865 47-.141"/><path d="M108.954 68v58.997c0 5.521-4.469 10.003-9.974 10.003H71.927c-5.505 0-9.973-4.482-9.973-10.003V72.139S61.955 68 57 68m4.954 31.865 47-.141" class="stroke-shape" style="fill:none;stroke-width:1;stroke:#000;stroke-opacity:1"/><path d="M276 127v70m0-70"/><path d="M276 127v70m0-70" class="stroke-shape" style="fill:none;stroke-width:1;stroke:#000;stroke-opacity:1"/><path d="m62 53 9 74"/><path d="m62 53 9 74" class="stroke-shape" style="fill:none;stroke-width:1;stroke:#000;stroke-opacity:1"/><path d="M255 211h43v-49h-43v49Zm-4-49h51v-7h-51v7Zm9 44h33v-44h-33v44Zm0-20.383h33"/><path d="M255 211h43v-49h-43v49Zm-4-49h51v-7h-51v7Zm9 44h33v-44h-33v44Zm0-20.383h33" class="stroke-shape" style="fill:none;stroke-width:1;stroke:#000;stroke-opacity:1"/><path d="M95.03 60c-2.038 0-2.038 1.149-2.038 2.038v59c0 3.312-2.689 6-6 6-3.312 0-6-2.688-6-6v-59c0-.666 0-2.038-1.992-2.038m1.992 30.988 12-.03"/><path d="M95.03 60c-2.038 0-2.038 1.149-2.038 2.038v59c0 3.312-2.689 6-6 6-3.312 0-6-2.688-6-6v-59c0-.666 0-2.038-1.992-2.038m1.992 30.988 12-.03" class="stroke-shape" style="fill:none;stroke-width:1;stroke:#000;stroke-opacity:1"/><path d="m87 43-3 80"/><path d="m87 43-3 80" class="stroke-shape" style="fill:none;stroke-width:1;stroke:#000;stroke-opacity:1"/><path d="M150 211h81m-63.78 0V1m25.524 64H92.719m79.388-4.088V69.2h-9.653v-8.288h9.653Z" style="fill:#000;fill-opacity:1"/><path d="M150 211h81m-63.78 0V1m25.524 64H92.719m79.388-4.088V69.2h-9.653v-8.288h9.653Z" class="stroke-shape" style="fill:none;stroke-width:1;stroke:#000;stroke-opacity:1"/><text x="22" y="104" class="text-container" dominant-baseline="text-before-edge" lengthAdjust="spacingAndGlyphs" style="text-transform:none;font-family:Spectral;letter-spacing:normal;font-style:normal;font-weight:400;white-space:pre;font-size:11px;text-decoration:none solid #505050;direction:ltr;fill:#505050;fill-opacity:1" textLength="33.664">Beaker</text><path d="M83 39 37 14l21 34"/><g class="stroke-shape"><defs><marker id="a" fill="#505050" fill-opacity="1" markerHeight="8.5" markerWidth="8.5" orient="auto-start-reverse" refX="2" refY="3" viewBox="0 0 3 6"><path d="M.5.5 3 3 .5 5.5 0 5l2-2-2-2z"/></marker></defs><path d="M83 39 37 14l21 34" style="fill:none;stroke-width:1;stroke:#505050;stroke-opacity:1;marker-start:url(#a);marker-end:url(#marker-60c0a3f7-f77f-805c-8001-bc29b5c950f3-line-arrow)"/></g><text y="-2" class="text-container" dominant-baseline="text-before-edge" lengthAdjust="spacingAndGlyphs" style="text-transform:none;font-family:Spectral;letter-spacing:normal;font-style:normal;font-weight:400;white-space:pre;font-size:11px;text-decoration:none solid #505050;direction:ltr;fill:#505050;fill-opacity:1" textLength="67.281">Thermometer</text><path d="m105 25-9 28"/><g class="stroke-shape"><defs><marker id="b" fill="#505050" fill-opacity="1" markerHeight="8.5" markerWidth="8.5" orient="auto-start-reverse" refX="2" refY="3" viewBox="0 0 3 6"><path d="M.5.5 3 3 .5 5.5 0 5l2-2-2-2z"/></marker></defs><path d="m105 25-9 28" style="fill:none;stroke-width:1;stroke:#505050;stroke-opacity:1;marker-end:url(#b)"/></g><text x="93" y="8" class="text-container" dominant-baseline="text-before-edge" lengthAdjust="spacingAndGlyphs" style="text-transform:none;font-family:Spectral;letter-spacing:normal;font-style:normal;font-weight:400;white-space:pre;font-size:11px;text-decoration:none solid #505050;direction:ltr;fill:#505050;fill-opacity:1" textLength="45.078">Test tube</text><text x="174" y="112" class="text-container" dominant-baseline="text-before-edge" lengthAdjust="spacingAndGlyphs" style="text-transform:none;font-family:Spectral;letter-spacing:normal;font-style:normal;font-weight:400;white-space:pre;font-size:11px;text-decoration:none solid #505050;direction:ltr;fill:#505050;fill-opacity:1" textLength="59.906">Retort stand</text><path d="M146.27 107.728 135 69"/><g class="stroke-shape"><defs><marker id="c" fill="#505050" fill-opacity="1" markerHeight="8.5" markerWidth="8.5" orient="auto-start-reverse" refX="2" refY="3" viewBox="0 0 3 6"><path d="M.5.5 3 3 .5 5.5 0 5l2-2-2-2z"/></marker></defs><path d="M146.27 107.728 135 69" style="fill:none;stroke-width:1;stroke:#505050;stroke-opacity:1;marker-end:url(#c)"/></g><text x="128" y="105" class="text-container" dominant-baseline="text-before-edge" lengthAdjust="spacingAndGlyphs" style="text-transform:none;font-family:Spectral;letter-spacing:normal;font-style:normal;font-weight:400;white-space:pre;font-size:11px;text-decoration:none solid #505050;direction:ltr;fill:#505050;fill-opacity:1" textLength="32.297">Clamp</text><text x="302" y="190" class="text-container" dominant-baseline="text-before-edge" lengthAdjust="spacingAndGlyphs" style="text-transform:none;font-family:Spectral;letter-spacing:normal;font-style:normal;font-weight:400;white-space:pre;font-size:11px;text-decoration:none solid #505050;direction:ltr;fill:#505050;fill-opacity:1" textLength="58.664">Calorimeter</text><text x="455.5" y="165.505" class="text-container" dominant-baseline="text-before-edge" lengthAdjust="spacingAndGlyphs" style="text-transform:none;font-family:Spectral;letter-spacing:normal;font-style:normal;font-weight:400;white-space:pre;font-size:11px;text-decoration:none solid #505050;direction:ltr;fill:#505050;fill-opacity:1" textLength="49.383">Computer</text><text x="289" y="99" class="text-container" dominant-baseline="text-before-edge" lengthAdjust="spacingAndGlyphs" style="text-transform:none;font-family:Spectral;letter-spacing:normal;font-style:normal;font-weight:400;white-space:pre;font-size:11px;text-decoration:none solid #505050;direction:ltr;fill:#505050;fill-opacity:1" textLength="100.375">Digital thermometer</text></svg>