<svg xmlns="http://www.w3.org/2000/svg" xmlns:xlink="http://www.w3.org/1999/xlink" viewBox="0 0 722.67 426.67"><defs><path id="reuse-0" d="M0 1h541v319H0Z"/><path id="reuse-1" d="M71 65h441v219H71Z"/><path id="reuse-2" d="M25400 254000v254000m0-254000V0M0 508000h50800M0 0h50800" style="fill:none;stroke:#595959;stroke-width:9525;stroke-linecap:butt;stroke-linejoin:round;stroke-miterlimit:10;stroke-dasharray:none;stroke-opacity:1"/><path id="reuse-3" d="M0 25400h12700M0 0v63500M12700 0v63500" style="fill:none;stroke:#595959;stroke-width:9525;stroke-linecap:butt;stroke-linejoin:round;stroke-miterlimit:10;stroke-dasharray:none;stroke-opacity:1"/><path id="reuse-4" d="M0 38100h12700M0 0v63500M12700 0v63500" style="fill:none;stroke:#595959;stroke-width:9525;stroke-linecap:butt;stroke-linejoin:round;stroke-miterlimit:10;stroke-dasharray:none;stroke-opacity:1"/></defs><defs><clipPath id="a" clipPathUnits="userSpaceOnUse"><path d="M0 0h542v320H0Z"/></clipPath><clipPath id="b" clipPathUnits="userSpaceOnUse"><use xlink:href="#reuse-0"/></clipPath><clipPath id="c" clipPathUnits="userSpaceOnUse"><use xlink:href="#reuse-0"/></clipPath><clipPath id="d" clipPathUnits="userSpaceOnUse"><use xlink:href="#reuse-0"/></clipPath><clipPath id="e" clipPathUnits="userSpaceOnUse"><use xlink:href="#reuse-0"/></clipPath><clipPath id="f" clipPathUnits="userSpaceOnUse"><use xlink:href="#reuse-1"/></clipPath><clipPath id="g" clipPathUnits="userSpaceOnUse"><use xlink:href="#reuse-1"/></clipPath><clipPath id="h" clipPathUnits="userSpaceOnUse"><use xlink:href="#reuse-1"/></clipPath><clipPath id="i" clipPathUnits="userSpaceOnUse"><use xlink:href="#reuse-1"/></clipPath><clipPath id="j" clipPathUnits="userSpaceOnUse"><use xlink:href="#reuse-1"/></clipPath><clipPath id="k" clipPathUnits="userSpaceOnUse"><use xlink:href="#reuse-1"/></clipPath><clipPath id="l" clipPathUnits="userSpaceOnUse"><use xlink:href="#reuse-1"/></clipPath><clipPath id="m" clipPathUnits="userSpaceOnUse"><use xlink:href="#reuse-1"/></clipPath><clipPath id="n" clipPathUnits="userSpaceOnUse"><use xlink:href="#reuse-1"/></clipPath><clipPath id="o" clipPathUnits="userSpaceOnUse"><use xlink:href="#reuse-1"/></clipPath><clipPath id="p" clipPathUnits="userSpaceOnUse"><use xlink:href="#reuse-1"/></clipPath><clipPath id="q" clipPathUnits="userSpaceOnUse"><use xlink:href="#reuse-1"/></clipPath><clipPath id="r" clipPathUnits="userSpaceOnUse"><use xlink:href="#reuse-1"/></clipPath><clipPath id="s" clipPathUnits="userSpaceOnUse"><use xlink:href="#reuse-1"/></clipPath><clipPath id="t" clipPathUnits="userSpaceOnUse"><use xlink:href="#reuse-0"/></clipPath><clipPath id="u" clipPathUnits="userSpaceOnUse"><use xlink:href="#reuse-1"/></clipPath><clipPath id="v" clipPathUnits="userSpaceOnUse"><use xlink:href="#reuse-1"/></clipPath><clipPath id="w" clipPathUnits="userSpaceOnUse"><use xlink:href="#reuse-1"/></clipPath><clipPath id="x" clipPathUnits="userSpaceOnUse"><use xlink:href="#reuse-0"/></clipPath><clipPath id="y" clipPathUnits="userSpaceOnUse"><use xlink:href="#reuse-0"/></clipPath><clipPath id="z" clipPathUnits="userSpaceOnUse"><use xlink:href="#reuse-0"/></clipPath><clipPath id="A" clipPathUnits="userSpaceOnUse"><use xlink:href="#reuse-0"/></clipPath><clipPath id="B" clipPathUnits="userSpaceOnUse"><use xlink:href="#reuse-0"/></clipPath><clipPath id="C" clipPathUnits="userSpaceOnUse"><use xlink:href="#reuse-0"/></clipPath><clipPath id="D" clipPathUnits="userSpaceOnUse"><use xlink:href="#reuse-0"/></clipPath><clipPath id="E" clipPathUnits="userSpaceOnUse"><use xlink:href="#reuse-0"/></clipPath><clipPath id="F" clipPathUnits="userSpaceOnUse"><use xlink:href="#reuse-0"/></clipPath><clipPath id="G" clipPathUnits="userSpaceOnUse"><use xlink:href="#reuse-0"/></clipPath><clipPath id="H" clipPathUnits="userSpaceOnUse"><use xlink:href="#reuse-0"/></clipPath><clipPath id="I" clipPathUnits="userSpaceOnUse"><use xlink:href="#reuse-0"/></clipPath><clipPath id="J" clipPathUnits="userSpaceOnUse"><use xlink:href="#reuse-0"/></clipPath><clipPath id="K" clipPathUnits="userSpaceOnUse"><use xlink:href="#reuse-0"/></clipPath><clipPath id="L" clipPathUnits="userSpaceOnUse"><use xlink:href="#reuse-0"/></clipPath><clipPath id="M" clipPathUnits="userSpaceOnUse"><use xlink:href="#reuse-0"/></clipPath><clipPath id="N" clipPathUnits="userSpaceOnUse"><use xlink:href="#reuse-0"/></clipPath><clipPath id="O" clipPathUnits="userSpaceOnUse"><use xlink:href="#reuse-0"/></clipPath><clipPath id="P" clipPathUnits="userSpaceOnUse"><use xlink:href="#reuse-0"/></clipPath><clipPath id="Q" clipPathUnits="userSpaceOnUse"><use xlink:href="#reuse-0"/></clipPath><clipPath id="R" clipPathUnits="userSpaceOnUse"><use xlink:href="#reuse-0"/></clipPath><clipPath id="S" clipPathUnits="userSpaceOnUse"><use xlink:href="#reuse-0"/></clipPath><clipPath id="T" clipPathUnits="userSpaceOnUse"><use xlink:href="#reuse-0"/></clipPath><clipPath id="U" clipPathUnits="userSpaceOnUse"><use xlink:href="#reuse-0"/></clipPath><clipPath id="V" clipPathUnits="userSpaceOnUse"><use xlink:href="#reuse-0"/></clipPath><clipPath id="W" clipPathUnits="userSpaceOnUse"><use xlink:href="#reuse-0"/></clipPath><clipPath id="X" clipPathUnits="userSpaceOnUse"><use xlink:href="#reuse-0"/></clipPath><clipPath id="Y" clipPathUnits="userSpaceOnUse"><use xlink:href="#reuse-0"/></clipPath><clipPath id="Z" clipPathUnits="userSpaceOnUse"><use xlink:href="#reuse-0"/></clipPath><clipPath id="aa" clipPathUnits="userSpaceOnUse"><use xlink:href="#reuse-0"/></clipPath><clipPath id="ab" clipPathUnits="userSpaceOnUse"><use xlink:href="#reuse-0"/></clipPath><clipPath id="ac" clipPathUnits="userSpaceOnUse"><use xlink:href="#reuse-0"/></clipPath><clipPath id="ad" clipPathUnits="userSpaceOnUse"><use xlink:href="#reuse-0"/></clipPath><clipPath id="ae" clipPathUnits="userSpaceOnUse"><use xlink:href="#reuse-0"/></clipPath><clipPath id="af" clipPathUnits="userSpaceOnUse"><use xlink:href="#reuse-0"/></clipPath><clipPath id="ag" clipPathUnits="userSpaceOnUse"><use xlink:href="#reuse-0"/></clipPath></defs><g clip-path="url(#a)" transform="matrix(1.333333 0 0 -1.333333 0 426.67)"><path d="M0 320h542V0H0Z" style="fill:#fff;fill-opacity:1;fill-rule:nonzero;stroke:none"/></g><path d="M1 320h540V0H1Z" style="fill:#fff;fill-opacity:1;fill-rule:nonzero;stroke:none" transform="matrix(1.333333 0 0 -1.333333 0 426.67)"/><g clip-path="url(#b)" transform="matrix(1.333333 0 0 -1.333333 0 426.67)"><path d="M0 2425700h5600700M0 2082800h5600700M0 1739900h5600700M0 1384300h5600700M0 1041400h5600700M0 685800h5600700M0 342900h5600700M0 0h5600700" style="fill:none;stroke:#d9d9d9;stroke-width:9525;stroke-linecap:butt;stroke-linejoin:round;stroke-miterlimit:10;stroke-dasharray:none;stroke-opacity:1" transform="matrix(.000079 0 0 -.000079 71.5 283.5)"/></g><g clip-path="url(#c)" transform="matrix(1.333333 0 0 -1.333333 0 426.67)"><path d="M800100 0v2781300M1600200 0v2781300M2400300 0v2781300M3200400 0v2781300M4000500 0v2781300M4800600 0v2781300M5600700 0v2781300" style="fill:none;stroke:#d9d9d9;stroke-width:9525;stroke-linecap:butt;stroke-linejoin:round;stroke-miterlimit:10;stroke-dasharray:none;stroke-opacity:1" transform="matrix(.000079 0 0 -.000079 71.5 283.5)"/></g><g clip-path="url(#d)" transform="matrix(1.333333 0 0 -1.333333 0 426.67)"><path d="m0 0 1 2781300" style="fill:none;stroke:#bfbfbf;stroke-width:9525;stroke-linecap:butt;stroke-linejoin:round;stroke-miterlimit:10;stroke-dasharray:none;stroke-opacity:1" transform="matrix(.000079 0 0 .000079 71.5 64.5)"/></g><g clip-path="url(#e)" transform="matrix(1.333333 0 0 -1.333333 0 426.67)"><path d="m0 0 5600700 1" style="fill:none;stroke:#bfbfbf;stroke-width:9525;stroke-linecap:butt;stroke-linejoin:round;stroke-miterlimit:10;stroke-dasharray:none;stroke-opacity:1" transform="matrix(.000079 0 0 -.000079 71.5 64.5)"/></g><g clip-path="url(#f)" transform="matrix(1.333333 0 0 -1.333333 0 426.67)"><path d="M25400 228600v266700m0-266700V0M0 495300h63500M0 0h63500" style="fill:none;stroke:#595959;stroke-width:9525;stroke-linecap:butt;stroke-linejoin:round;stroke-miterlimit:10;stroke-dasharray:none;stroke-opacity:1" transform="matrix(.000079 0 0 -.000079 69.5 121.5)"/></g><g clip-path="url(#g)" transform="matrix(1.333333 0 0 -1.333333 0 426.67)"><use xlink:href="#reuse-2" style="fill:none;stroke:#595959;stroke-width:9525;stroke-linecap:butt;stroke-linejoin:round;stroke-miterlimit:10;stroke-dasharray:none;stroke-opacity:1" transform="matrix(.000079 0 0 -.000079 132.5 134.5)"/></g><g clip-path="url(#h)" transform="matrix(1.333333 0 0 -1.333333 0 426.67)"><use xlink:href="#reuse-2" style="fill:none;stroke:#595959;stroke-width:9525;stroke-linecap:butt;stroke-linejoin:round;stroke-miterlimit:10;stroke-dasharray:none;stroke-opacity:1" transform="matrix(.000079 0 0 -.000079 195.5 152.5)"/></g><g clip-path="url(#i)" transform="matrix(1.333333 0 0 -1.333333 0 426.67)"><path d="M25400 241300v266700m0-266700V0M0 508000h50800M0 0h50800" style="fill:none;stroke:#595959;stroke-width:9525;stroke-linecap:butt;stroke-linejoin:round;stroke-miterlimit:10;stroke-dasharray:none;stroke-opacity:1" transform="matrix(.000079 0 0 -.000079 258.5 158.5)"/></g><g clip-path="url(#j)" transform="matrix(1.333333 0 0 -1.333333 0 426.67)"><path d="M25400 266700v292100m0-292100V0M0 558800h50800M0 0h50800" style="fill:none;stroke:#595959;stroke-width:9525;stroke-linecap:butt;stroke-linejoin:round;stroke-miterlimit:10;stroke-dasharray:none;stroke-opacity:1" transform="matrix(.000079 0 0 -.000079 321.5 190.5)"/></g><g clip-path="url(#k)" transform="matrix(1.333333 0 0 -1.333333 0 426.67)"><path d="M25400 266700v279400m0-279400V0M0 546100h50800M0 0h50800" style="fill:none;stroke:#595959;stroke-width:9525;stroke-linecap:butt;stroke-linejoin:round;stroke-miterlimit:10;stroke-dasharray:none;stroke-opacity:1" transform="matrix(.000079 0 0 -.000079 384.5 196.5)"/></g><g clip-path="url(#l)" transform="matrix(1.333333 0 0 -1.333333 0 426.67)"><path d="M38100 304800v317500m0-317500V0M0 622300h63500M0 0h63500" style="fill:none;stroke:#595959;stroke-width:9525;stroke-linecap:butt;stroke-linejoin:round;stroke-miterlimit:10;stroke-dasharray:none;stroke-opacity:1" transform="matrix(.000079 0 0 -.000079 446.5 255.5)"/></g><g clip-path="url(#m)" transform="matrix(1.333333 0 0 -1.333333 0 426.67)"><use xlink:href="#reuse-3" style="fill:none;stroke:#595959;stroke-width:9525;stroke-linecap:butt;stroke-linejoin:round;stroke-miterlimit:10;stroke-dasharray:none;stroke-opacity:1" transform="matrix(.000079 0 0 -.000079 71.5 105.5)"/></g><g clip-path="url(#n)" transform="matrix(1.333333 0 0 -1.333333 0 426.67)"><use xlink:href="#reuse-4" style="fill:none;stroke:#595959;stroke-width:9525;stroke-linecap:butt;stroke-linejoin:round;stroke-miterlimit:10;stroke-dasharray:none;stroke-opacity:1" transform="matrix(.000079 0 0 -.000079 134.5 117.5)"/></g><g clip-path="url(#o)" transform="matrix(1.333333 0 0 -1.333333 0 426.67)"><use xlink:href="#reuse-4" style="fill:none;stroke:#595959;stroke-width:9525;stroke-linecap:butt;stroke-linejoin:round;stroke-miterlimit:10;stroke-dasharray:none;stroke-opacity:1" transform="matrix(.000079 0 0 -.000079 197.5 135.5)"/></g><g clip-path="url(#p)" transform="matrix(1.333333 0 0 -1.333333 0 426.67)"><use xlink:href="#reuse-3" style="fill:none;stroke:#595959;stroke-width:9525;stroke-linecap:butt;stroke-linejoin:round;stroke-miterlimit:10;stroke-dasharray:none;stroke-opacity:1" transform="matrix(.000079 0 0 -.000079 260.5 141.5)"/></g><g clip-path="url(#q)" transform="matrix(1.333333 0 0 -1.333333 0 426.67)"><use xlink:href="#reuse-3" style="fill:none;stroke:#595959;stroke-width:9525;stroke-linecap:butt;stroke-linejoin:round;stroke-miterlimit:10;stroke-dasharray:none;stroke-opacity:1" transform="matrix(.000079 0 0 -.000079 323.5 171.5)"/></g><g clip-path="url(#r)" transform="matrix(1.333333 0 0 -1.333333 0 426.67)"><path d="M0 25400h12700M0 0v50800M12700 0v50800" style="fill:none;stroke:#595959;stroke-width:9525;stroke-linecap:butt;stroke-linejoin:round;stroke-miterlimit:10;stroke-dasharray:none;stroke-opacity:1" transform="matrix(.000079 0 0 -.000079 386.5 177.5)"/></g><g clip-path="url(#s)" transform="matrix(1.333333 0 0 -1.333333 0 426.67)"><use xlink:href="#reuse-4" style="fill:none;stroke:#595959;stroke-width:9525;stroke-linecap:butt;stroke-linejoin:round;stroke-miterlimit:10;stroke-dasharray:none;stroke-opacity:1" transform="matrix(.000079 0 0 -.000079 449.5 234.5)"/></g><g clip-path="url(#t)" transform="matrix(1.333333 0 0 -1.333333 0 426.67)"><path d="M72.02 104.4a2 2 0 1 0-4 0 2 2 0 0 0 4 0z" style="fill:#4285f4;fill-opacity:1;fill-rule:nonzero;stroke:none"/><use xlink:href="#reuse-5" style="fill:none;stroke:#4285f4;stroke-width:9525;stroke-linecap:butt;stroke-linejoin:round;stroke-miterlimit:10;stroke-dasharray:none;stroke-opacity:1" transform="matrix(.000079 0 0 -.000079 67.52 106.9)"/><path d="M135.02 115.4a2 2 0 1 0-4 0 2 2 0 0 0 4 0z" style="fill:#4285f4;fill-opacity:1;fill-rule:nonzero;stroke:none"/><use xlink:href="#reuse-5" style="fill:none;stroke:#4285f4;stroke-width:9525;stroke-linecap:butt;stroke-linejoin:round;stroke-miterlimit:10;stroke-dasharray:none;stroke-opacity:1" transform="matrix(.000079 0 0 -.000079 130.52 117.9)"/><path d="M198.02 133.4a2 2 0 1 0-4 0 2 2 0 0 0 4 0z" style="fill:#4285f4;fill-opacity:1;fill-rule:nonzero;stroke:none"/><use xlink:href="#reuse-5" style="fill:none;stroke:#4285f4;stroke-width:9525;stroke-linecap:butt;stroke-linejoin:round;stroke-miterlimit:10;stroke-dasharray:none;stroke-opacity:1" transform="matrix(.000079 0 0 -.000079 193.52 135.9)"/><path d="M261.02 140.4a2 2 0 1 0-4 0 2 2 0 0 0 4 0z" style="fill:#4285f4;fill-opacity:1;fill-rule:nonzero;stroke:none"/><use xlink:href="#reuse-5" style="fill:none;stroke:#4285f4;stroke-width:9525;stroke-linecap:butt;stroke-linejoin:round;stroke-miterlimit:10;stroke-dasharray:none;stroke-opacity:1" transform="matrix(.000079 0 0 -.000079 256.52 142.9)"/><path d="M324.02 170.4a2 2 0 1 0-4 0 2 2 0 0 0 4 0z" style="fill:#4285f4;fill-opacity:1;fill-rule:nonzero;stroke:none"/><use xlink:href="#reuse-5" style="fill:none;stroke:#4285f4;stroke-width:9525;stroke-linecap:butt;stroke-linejoin:round;stroke-miterlimit:10;stroke-dasharray:none;stroke-opacity:1" transform="matrix(.000079 0 0 -.000079 319.52 172.9)"/><path d="M387.02 176.4a2 2 0 1 0-4 0 2 2 0 0 0 4 0z" style="fill:#4285f4;fill-opacity:1;fill-rule:nonzero;stroke:none"/><use xlink:href="#reuse-5" style="fill:none;stroke:#4285f4;stroke-width:9525;stroke-linecap:butt;stroke-linejoin:round;stroke-miterlimit:10;stroke-dasharray:none;stroke-opacity:1" transform="matrix(.000079 0 0 -.000079 382.52 178.9)"/><path d="M450.02 232.4a2 2 0 1 0-4 0 2 2 0 0 0 4 0z" style="fill:#4285f4;fill-opacity:1;fill-rule:nonzero;stroke:none"/><use xlink:href="#reuse-5" style="fill:none;stroke:#4285f4;stroke-width:9525;stroke-linecap:butt;stroke-linejoin:round;stroke-miterlimit:10;stroke-dasharray:none;stroke-opacity:1" transform="matrix(.000079 0 0 -.000079 445.52 234.9)"/></g><g clip-path="url(#u)" transform="matrix(1.333333 0 0 -1.333333 0 426.67)"><path d="M72.22 93.28a.75.75 0 1 1-.44 1.44.75.75 0 0 1 .44-1.44zm2.87.9a.75.75 0 1 1-.44 1.43.75.75 0 0 1 .44-1.44zm2.87.88a.75.75 0 1 1-.45 1.44.75.75 0 0 1 .45-1.44zm2.86.9a.75.75 0 1 1-.44 1.43.75.75 0 0 1 .44-1.44zm2.87.88a.75.75 0 1 1-.44 1.44.75.75 0 0 1 .44-1.44zm2.87.9a.75.75 0 1 1-.45 1.42.75.75 0 1 1 .45-1.43zm2.86.88a.75.75 0 0 1-.44 1.43.75.75 0 1 1 .44-1.43zm2.87.9a.75.75 0 0 1-.44 1.42.75.75 0 1 1 .44-1.43zm2.87.88a.75.75 0 0 1-.45 1.43.75.75 0 0 1 .45-1.43zm2.86.89a.75.75 0 1 1-.44 1.43.75.75 0 1 1 .44-1.43zm2.87.89a.75.75 0 1 1-.45 1.43.75.75 0 1 1 .45-1.43zm2.87.89a.75.75 0 1 1-.45 1.43.75.75 0 0 1 .45-1.43zm2.86.89a.75.75 0 0 1-.44 1.43.75.75 0 1 1 .44-1.43zm2.87.89a.75.75 0 1 1-.44 1.43.75.75 0 1 1 .44-1.43zm2.86.89a.75.75 0 1 1-.44 1.43.75.75 0 1 1 .44-1.43zm2.87.89a.75.75 0 0 1-.44 1.43.75.75 0 0 1 .44-1.43zm2.87.89a.75.75 0 0 1-.45 1.43.75.75 0 1 1 .45-1.43zm2.86.89a.75.75 0 0 1-.44 1.43.75.75 0 0 1 .44-1.43zm2.87.89a.75.75 0 1 1-.44 1.43.75.75 0 0 1 .44-1.43zm2.87.89a.75.75 0 0 1-.45 1.43.75.75 0 1 1 .45-1.43zm2.86.89a.75.75 0 0 1-.44 1.43.75.75 0 1 1 .44-1.43zm2.87.89a.75.75 0 0 1-.44 1.43.75.75 0 0 1 .44-1.43zm2.87.89a.75.75 0 1 1-.45 1.43.75.75 0 1 1 .45-1.43zm2.86.89a.75.75 0 0 1-.44 1.43.75.75 0 0 1 .44-1.43zm2.87.89a.75.75 0 1 1-.44 1.43.75.75 0 1 1 .44-1.43zm2.87.88a.75.75 0 0 1-.45 1.44.75.75 0 1 1 .45-1.44zm2.87.9a.75.75 0 1 1-.45 1.43.75.75 0 0 1 .45-1.44zm2.86.88a.75.75 0 0 1-.44 1.44.75.75 0 0 1 .44-1.44zm2.87.9a.75.75 0 1 1-.45 1.43.75.75 0 1 1 .45-1.44zm2.86.88a.75.75 0 0 1-.44 1.44.75.75 0 1 1 .45-1.44zm2.87.9a.75.75 0 0 1-.44 1.43.75.75 0 0 1 .44-1.44zm2.87.88a.75.75 0 1 1-.45 1.44.75.75 0 1 1 .45-1.44zm2.86.9a.75.75 0 1 1-.44 1.43.75.75 0 0 1 .44-1.44zm2.87.88a.75.75 0 0 1-.44 1.44.75.75 0 1 1 .44-1.44zm2.87.9a.75.75 0 1 1-.44 1.42.75.75 0 1 1 .44-1.43zm2.86.88a.75.75 0 0 1-.44 1.43.75.75 0 0 1 .44-1.43zm2.87.9a.75.75 0 1 1-.44 1.42.75.75 0 0 1 .44-1.43zm2.87.88a.75.75 0 0 1-.45 1.43.75.75 0 0 1 .45-1.43zm2.86.89a.75.75 0 1 1-.44 1.43.75.75 0 1 1 .44-1.43zm2.87.89a.75.75 0 1 1-.44 1.43.75.75 0 1 1 .44-1.43zm2.87.89a.75.75 0 1 1-.45 1.43.75.75 0 0 1 .45-1.43zm2.86.89a.75.75 0 0 1-.44 1.43.75.75 0 1 1 .44-1.43zm2.87.89a.75.75 0 1 1-.44 1.43.75.75 0 0 1 .44-1.43zm2.87.89a.75.75 0 1 1-.45 1.43.75.75 0 1 1 .45-1.43zm2.86.89a.75.75 0 0 1-.44 1.43.75.75 0 0 1 .44-1.43zm2.87.89a.75.75 0 1 1-.44 1.43.75.75 0 1 1 .44-1.43zm2.87.89a.75.75 0 0 1-.45 1.43.75.75 0 1 1 .45-1.43zm2.86.89a.75.75 0 0 1-.44 1.43.75.75 0 0 1 .44-1.43zm2.87.89a.75.75 0 0 1-.44 1.43.75.75 0 0 1 .44-1.43zm2.87.89a.75.75 0 1 1-.45 1.43.75.75 0 1 1 .45-1.43zm2.86.89a.75.75 0 1 1-.44 1.43.75.75 0 0 1 .44-1.43zm2.87.89a.75.75 0 0 1-.44 1.43.75.75 0 0 1 .44-1.43zm2.87.88a.75.75 0 0 1-.45 1.44.75.75 0 1 1 .45-1.44zm2.86.9a.75.75 0 1 1-.44 1.43.75.75 0 1 1 .44-1.44zm2.87.88a.75.75 0 1 1-.44 1.44.75.75 0 1 1 .44-1.44zm2.87.9a.75.75 0 0 1-.45 1.43.75.75 0 0 1 .45-1.44zm2.86.88a.75.75 0 0 1-.44 1.44.75.75 0 1 1 .44-1.44zm2.87.9a.75.75 0 1 1-.44 1.43.75.75 0 1 1 .44-1.44zm2.87.88a.75.75 0 1 1-.45 1.44.75.75 0 1 1 .45-1.44zm2.86.9a.75.75 0 0 1-.44 1.43.75.75 0 0 1 .44-1.44zm2.87.88a.75.75 0 0 1-.44 1.44.75.75 0 1 1 .44-1.44zm2.87.9a.75.75 0 1 1-.45 1.43.75.75 0 1 1 .45-1.44zm2.86.88a.75.75 0 0 1-.44 1.44.75.75 0 0 1 .44-1.44zm2.87.9a.75.75 0 1 1-.44 1.42.75.75 0 1 1 .44-1.43zm2.86.88a.75.75 0 1 1-.44 1.43.75.75 0 1 1 .44-1.43zm2.87.89a.75.75 0 0 1-.44 1.43.75.75 0 0 1 .44-1.43zm2.87.89a.75.75 0 1 1-.44 1.43.75.75 0 1 1 .44-1.43zm2.86.89a.75.75 0 1 1-.44 1.43.75.75 0 1 1 .44-1.43zm2.87.89a.75.75 0 0 1-.44 1.43.75.75 0 0 1 .44-1.43zm2.87.89a.75.75 0 1 1-.44 1.43.75.75 0 1 1 .44-1.43zm2.86.89a.75.75 0 1 1-.44 1.43.75.75 0 0 1 .44-1.43zm2.87.89a.75.75 0 0 1-.44 1.43.75.75 0 0 1 .44-1.43zm2.87.89a.75.75 0 0 1-.44 1.43.75.75 0 0 1 .44-1.43zm2.86.89a.75.75 0 1 1-.44 1.43.75.75 0 1 1 .44-1.43zm2.87.89a.75.75 0 1 1-.44 1.43.75.75 0 1 1 .44-1.43zm2.87.89a.75.75 0 1 1-.44 1.43.75.75 0 0 1 .44-1.43zm2.86.89a.75.75 0 0 1-.44 1.43.75.75 0 1 1 .44-1.43zm2.87.89a.75.75 0 0 1-.44 1.43.75.75 0 1 1 .44-1.43zm2.87.89a.75.75 0 1 1-.44 1.43.75.75 0 1 1 .44-1.43zm2.86.89a.75.75 0 1 1-.44 1.43.75.75 0 1 1 .44-1.43zm2.87.88a.75.75 0 1 1-.44 1.44.75.75 0 0 1 .44-1.44zm2.87.9a.75.75 0 1 1-.44 1.43.75.75 0 0 1 .44-1.44zm2.86.88a.75.75 0 0 1-.44 1.44.75.75 0 0 1 .44-1.44zm2.87.9a.75.75 0 0 1-.44 1.43.75.75 0 1 1 .44-1.44zm2.87.88a.75.75 0 0 1-.44 1.44.75.75 0 1 1 .44-1.44zm2.86.9a.75.75 0 1 1-.44 1.43.75.75 0 1 1 .44-1.44zm2.87.88a.75.75 0 1 1-.44 1.44.75.75 0 1 1 .44-1.44zm2.87.9a.75.75 0 1 1-.44 1.43.75.75 0 0 1 .44-1.44zm2.86.88a.75.75 0 1 1-.44 1.44.75.75 0 0 1 .44-1.44zm2.87.9a.75.75 0 0 1-.44 1.43.75.75 0 0 1 .44-1.44zm2.87.88a.75.75 0 0 1-.44 1.43.75.75 0 0 1 .44-1.43zm2.86.9a.75.75 0 0 1-.44 1.42.75.75 0 1 1 .44-1.43zm2.87.88a.75.75 0 1 1-.44 1.43.75.75 0 1 1 .44-1.43zm2.87.89a.75.75 0 1 1-.44 1.43.75.75 0 1 1 .44-1.43zm2.86.89a.75.75 0 1 1-.44 1.43.75.75 0 0 1 .44-1.43zm2.87.89a.75.75 0 1 1-.44 1.43.75.75 0 0 1 .44-1.43zm2.87.89a.75.75 0 0 1-.44 1.43.75.75 0 0 1 .44-1.43zm2.86.89a.75.75 0 1 1-.44 1.43.75.75 0 0 1 .44-1.43zm2.87.89a.75.75 0 1 1-.44 1.43.75.75 0 1 1 .44-1.43zm2.87.89a.75.75 0 1 1-.44 1.43.75.75 0 1 1 .44-1.43zm2.86.89a.75.75 0 0 1-.44 1.43.75.75 0 0 1 .44-1.43zm2.87.89a.75.75 0 0 1-.44 1.43.75.75 0 0 1 .44-1.43zm2.87.89a.75.75 0 0 1-.44 1.43.75.75 0 1 1 .44-1.43zm2.86.89a.75.75 0 0 1-.44 1.43.75.75 0 1 1 .44-1.43zm2.87.89a.75.75 0 1 1-.44 1.43.75.75 0 1 1 .44-1.43zm2.87.89a.75.75 0 1 1-.44 1.43.75.75 0 1 1 .44-1.43zm2.86.89a.75.75 0 1 1-.44 1.43.75.75 0 0 1 .44-1.43zm2.87.88a.75.75 0 0 1-.44 1.44.75.75 0 0 1 .44-1.44zm2.87.9a.75.75 0 0 1-.44 1.43.75.75 0 0 1 .44-1.44zm2.86.88a.75.75 0 1 1-.44 1.44.75.75 0 1 1 .44-1.44zm2.87.9a.75.75 0 1 1-.44 1.43.75.75 0 1 1 .44-1.44zm2.87.88a.75.75 0 0 1-.44 1.44.75.75 0 0 1 .44-1.44zm2.86.9a.75.75 0 0 1-.44 1.43.75.75 0 0 1 .44-1.44zm2.87.88a.75.75 0 0 1-.44 1.44.75.75 0 0 1 .44-1.44zm2.87.9a.75.75 0 1 1-.44 1.43.75.75 0 1 1 .44-1.44zm2.86.88a.75.75 0 1 1-.44 1.44.75.75 0 1 1 .44-1.44zm2.87.9a.75.75 0 1 1-.44 1.42.75.75 0 1 1 .44-1.43zm2.87.88a.75.75 0 0 1-.45 1.43.75.75 0 0 1 .45-1.43zm2.87.9a.75.75 0 1 1-.45 1.42.75.75 0 1 1 .45-1.43zm2.86.88a.75.75 0 0 1-.44 1.43.75.75 0 0 1 .44-1.43zm2.87.9a.75.75 0 0 1-.45 1.42.75.75 0 1 1 .45-1.43zm2.87.88a.75.75 0 1 1-.45 1.43.75.75 0 0 1 .45-1.43zm2.86.89a.75.75 0 0 1-.44 1.43.75.75 0 0 1 .44-1.43zm2.87.89a.75.75 0 1 1-.45 1.43.75.75 0 1 1 .45-1.43zm2.86.89a.75.75 0 0 1-.44 1.43.75.75 0 0 1 .44-1.43zm2.87.89a.75.75 0 1 1-.44 1.43.75.75 0 1 1 .44-1.43zm2.87.89a.75.75 0 0 1-.45 1.43.75.75 0 0 1 .45-1.43zm2.86.89a.75.75 0 0 1-.44 1.43.75.75 0 1 1 .44-1.43zm2.87.89a.75.75 0 1 1-.45 1.43.75.75 0 0 1 .45-1.43zm2.87.89a.75.75 0 0 1-.45 1.43.75.75 0 0 1 .45-1.43zm2.86.89a.75.75 0 0 1-.44 1.43.75.75 0 1 1 .44-1.43zm2.87.89a.75.75 0 0 1-.45 1.43.75.75 0 0 1 .45-1.43z" style="fill:#4285f4;fill-opacity:1;fill-rule:nonzero;stroke:none"/></g><g clip-path="url(#v)" transform="matrix(1.333333 0 0 -1.333333 0 426.67)"><path d="M72.19 108.27a.75.75 0 1 1-.38 1.46.75.75 0 0 1 .38-1.46zm2.9.77a.75.75 0 0 1-.38 1.45.75.75 0 1 1 .38-1.45zm2.9.76a.75.75 0 1 1-.37 1.45.75.75 0 0 1 .38-1.45zm2.91.76a.75.75 0 0 1-.38 1.45.75.75 0 1 1 .38-1.45zm2.9.76a.75.75 0 1 1-.38 1.46.75.75 0 0 1 .38-1.46zm2.9.77a.75.75 0 0 1-.37 1.45.75.75 0 1 1 .38-1.45zm2.9.76h.01a.75.75 0 1 1-.38 1.45.75.75 0 0 1 .38-1.45zm2.91.76a.75.75 0 1 1-.38 1.45.75.75 0 1 1 .38-1.45zm2.9.76a.75.75 0 1 1-.37 1.45.75.75 0 1 1 .37-1.45zm2.9.77a.75.75 0 0 1-.37 1.45.75.75 0 0 1 .38-1.45zm2.91.76a.75.75 0 0 1-.38 1.45.75.75 0 0 1 .38-1.45zm2.9.76a.75.75 0 0 1-.38 1.45.75.75 0 0 1 .38-1.45zm2.9.76a.75.75 0 1 1-.37 1.45.75.75 0 1 1 .38-1.45zm2.91.76a.75.75 0 0 1-.38 1.46.75.75 0 1 1 .38-1.46zm2.9.77a.75.75 0 0 1-.38 1.45.75.75 0 1 1 .38-1.45zm2.9.76a.75.75 0 1 1-.37 1.45.75.75 0 0 1 .38-1.45zm2.91.76a.75.75 0 0 1-.38 1.45.75.75 0 1 1 .38-1.45zm2.9.76a.75.75 0 1 1-.38 1.46.75.75 0 0 1 .38-1.46zm2.9.77a.75.75 0 0 1-.37 1.45.75.75 0 1 1 .38-1.45zm2.9.76h.01a.75.75 0 1 1-.38 1.45.75.75 0 1 1 .38-1.45zm2.91.76a.75.75 0 0 1-.38 1.45.75.75 0 0 1 .38-1.45zm2.9.76a.75.75 0 1 1-.38 1.45.75.75 0 1 1 .39-1.45zm2.9.77a.75.75 0 1 1-.37 1.45.75.75 0 0 1 .38-1.45zm2.91.76a.75.75 0 0 1-.38 1.45.75.75 0 1 1 .38-1.45zm2.9.76a.75.75 0 1 1-.38 1.45.75.75 0 0 1 .38-1.45zm2.9.76a.75.75 0 0 1-.37 1.45.75.75 0 1 1 .38-1.45zm2.91.77a.75.75 0 1 1-.38 1.45.75.75 0 0 1 .38-1.45zm2.9.76a.75.75 0 0 1-.38 1.45.75.75 0 1 1 .38-1.45zm2.9.76a.75.75 0 1 1-.37 1.45.75.75 0 0 1 .38-1.45zm2.91.76a.75.75 0 0 1-.38 1.45.75.75 0 1 1 .38-1.45zm2.9.77a.75.75 0 0 1-.38 1.45.75.75 0 0 1 .38-1.45zm2.9.76a.75.75 0 1 1-.37 1.45.75.75 0 1 1 .38-1.45zm2.9.76h.01a.75.75 0 0 1-.38 1.45.75.75 0 0 1 .38-1.45zm2.91.76a.75.75 0 0 1-.38 1.45.75.75 0 0 1 .38-1.45zm2.9.76a.75.75 0 0 1-.38 1.46.75.75 0 1 1 .39-1.46zm2.9.77h.01a.75.75 0 1 1-.38 1.45.75.75 0 0 1 .38-1.45zm2.91.76a.75.75 0 0 1-.38 1.45.75.75 0 0 1 .38-1.45zm2.9.76a.75.75 0 0 1-.38 1.45.75.75 0 0 1 .38-1.45zm2.9.76a.75.75 0 1 1-.37 1.45.75.75 0 1 1 .38-1.45zm2.91.77a.75.75 0 0 1-.38 1.45.75.75 0 0 1 .38-1.45zm2.9.76a.75.75 0 1 1-.38 1.45.75.75 0 0 1 .38-1.45zm2.9.76a.75.75 0 0 1-.37 1.45.75.75 0 1 1 .38-1.45zm2.91.76a.75.75 0 1 1-.38 1.45.75.75 0 1 1 .38-1.45zm2.9.77a.75.75 0 0 1-.38 1.45.75.75 0 0 1 .38-1.45zm2.9.76a.75.75 0 0 1-.38 1.45.75.75 0 1 1 .39-1.45zm2.9.76h.01a.75.75 0 1 1-.38 1.45.75.75 0 0 1 .38-1.45zm2.91.76a.75.75 0 0 1-.38 1.45.75.75 0 0 1 .38-1.45zm2.9.77a.75.75 0 1 1-.38 1.45.75.75 0 0 1 .39-1.45zm2.9.76h.01a.75.75 0 0 1-.38 1.45.75.75 0 1 1 .38-1.45zm2.91.76a.75.75 0 1 1-.38 1.45.75.75 0 1 1 .38-1.45zm2.9.76a.75.75 0 0 1-.38 1.45.75.75 0 0 1 .39-1.45zm2.9.76a.75.75 0 1 1-.37 1.46.75.75 0 1 1 .38-1.46zm2.91.77a.75.75 0 1 1-.38 1.45.75.75 0 0 1 .38-1.45zm2.9.76a.75.75 0 0 1-.38 1.45.75.75 0 0 1 .38-1.45zm2.9.76a.75.75 0 0 1-.37 1.45.75.75 0 0 1 .38-1.45zm2.9.76h.01a.75.75 0 0 1-.38 1.45.75.75 0 1 1 .38-1.45zm2.91.77a.75.75 0 1 1-.38 1.45.75.75 0 0 1 .38-1.45zm2.9.76a.75.75 0 0 1-.37 1.45.75.75 0 0 1 .37-1.45zm2.9.76a.75.75 0 0 1-.37 1.45.75.75 0 1 1 .38-1.45zm2.91.76a.75.75 0 0 1-.38 1.45.75.75 0 0 1 .38-1.45zm2.9.76a.75.75 0 0 1-.37 1.46.75.75 0 1 1 .37-1.46zm2.9.77a.75.75 0 1 1-.37 1.45.75.75 0 0 1 .38-1.45zm2.9.76h.01a.75.75 0 0 1-.38 1.45.75.75 0 1 1 .38-1.45zm2.91.76a.75.75 0 1 1-.37 1.45.75.75 0 0 1 .37-1.45zm2.9.76a.75.75 0 0 1-.37 1.46.75.75 0 0 1 .38-1.46zm2.9.77h.01a.75.75 0 0 1-.38 1.45.75.75 0 1 1 .38-1.45zm2.91.76a.75.75 0 0 1-.37 1.45.75.75 0 0 1 .37-1.45zm2.9.76a.75.75 0 0 1-.37 1.45.75.75 0 1 1 .37-1.45zm2.9.76a.75.75 0 1 1-.37 1.46.75.75 0 0 1 .38-1.46zm2.91.77a.75.75 0 0 1-.37 1.45.75.75 0 1 1 .37-1.45zm2.9.76a.75.75 0 1 1-.37 1.45.75.75 0 0 1 .37-1.45zm2.9.76a.75.75 0 0 1-.37 1.45.75.75 0 0 1 .38-1.45zm2.91.76a.75.75 0 0 1-.38 1.46.75.75 0 1 1 .38-1.46zm2.9.77a.75.75 0 0 1-.37 1.45.75.75 0 0 1 .37-1.45zm2.9.76a.75.75 0 0 1-.37 1.45.75.75 0 1 1 .38-1.45zm2.9.76h.01a.75.75 0 1 1-.38 1.45.75.75 0 0 1 .38-1.45zm2.91.76a.75.75 0 1 1-.37 1.45.75.75 0 1 1 .37-1.45zm2.9.76a.75.75 0 1 1-.37 1.46.75.75 0 0 1 .38-1.46zm2.9.77a.75.75 0 0 1-.37 1.45.75.75 0 0 1 .38-1.45zm2.91.76a.75.75 0 0 1-.38 1.45.75.75 0 1 1 .38-1.45zm2.9.76a.75.75 0 0 1-.37 1.45.75.75 0 0 1 .37-1.45zm2.9.76a.75.75 0 0 1-.37 1.46.75.75 0 0 1 .38-1.46zm2.91.77a.75.75 0 1 1-.38 1.45.75.75 0 1 1 .38-1.45zm2.9.76a.75.75 0 0 1-.37 1.45.75.75 0 1 1 .37-1.45zm2.9.76a.75.75 0 1 1-.37 1.45.75.75 0 0 1 .38-1.45zm2.91.76a.75.75 0 0 1-.38 1.46.75.75 0 0 1 .38-1.46zm2.9.77a.75.75 0 0 1-.37 1.45.75.75 0 1 1 .37-1.45zm2.9.76a.75.75 0 0 1-.37 1.45.75.75 0 0 1 .38-1.45zm2.9.76h.01a.75.75 0 0 1-.38 1.45.75.75 0 0 1 .38-1.45zm2.91.76a.75.75 0 1 1-.37 1.45.75.75 0 0 1 .37-1.45zm2.9.77a.75.75 0 0 1-.37 1.45.75.75 0 1 1 .38-1.45zm2.9.76a.75.75 0 1 1-.37 1.45.75.75 0 0 1 .38-1.45zm2.91.76a.75.75 0 0 1-.38 1.45.75.75 0 0 1 .38-1.45zm2.9.76a.75.75 0 0 1-.37 1.45.75.75 0 1 1 .38-1.45zm2.9.76a.75.75 0 0 1-.37 1.46.75.75 0 0 1 .38-1.46zm2.91.77a.75.75 0 0 1-.38 1.45.75.75 0 0 1 .38-1.45zm2.9.76a.75.75 0 1 1-.37 1.45.75.75 0 0 1 .37-1.45zm2.9.76a.75.75 0 0 1-.37 1.45.75.75 0 0 1 .38-1.45zm2.91.76a.75.75 0 0 1-.38 1.46.75.75 0 0 1 .38-1.46zm2.9.77a.75.75 0 0 1-.37 1.45.75.75 0 0 1 .37-1.45zm2.9.76a.75.75 0 1 1-.37 1.45.75.75 0 1 1 .38-1.45zm2.9.76h.01a.75.75 0 0 1-.38 1.45.75.75 0 0 1 .38-1.45zm2.91.76a.75.75 0 0 1-.37 1.46.75.75 0 0 1 .37-1.46zm2.9.77a.75.75 0 1 1-.37 1.45.75.75 0 0 1 .37-1.45zm2.9.76a.75.75 0 0 1-.37 1.45.75.75 0 0 1 .38-1.45zm2.91.76a.75.75 0 1 1-.38 1.45.75.75 0 0 1 .38-1.45zm2.9.76a.75.75 0 0 1-.37 1.45.75.75 0 0 1 .37-1.45zm2.9.77a.75.75 0 1 1-.37 1.45.75.75 0 0 1 .38-1.45zm2.91.76a.75.75 0 0 1-.38 1.45.75.75 0 0 1 .38-1.45zm2.9.76a.75.75 0 0 1-.38 1.45.75.75 0 1 1 .39-1.45zm2.9.76h.01a.75.75 0 0 1-.38 1.45.75.75 0 0 1 .38-1.45zm2.91.77a.75.75 0 0 1-.38 1.45.75.75 0 0 1 .38-1.45zm2.9.76a.75.75 0 1 1-.38 1.45.75.75 0 1 1 .39-1.45zm2.9.76h.01a.75.75 0 1 1-.38 1.45.75.75 0 0 1 .38-1.45zm2.91.76a.75.75 0 0 1-.38 1.45.75.75 0 1 1 .38-1.45zm2.9.76a.75.75 0 1 1-.38 1.46.75.75 0 0 1 .38-1.46zm2.9.77a.75.75 0 0 1-.37 1.45.75.75 0 1 1 .38-1.45zm2.91.76a.75.75 0 0 1-.38 1.45.75.75 0 0 1 .38-1.45zm2.9.76a.75.75 0 0 1-.38 1.45.75.75 0 1 1 .38-1.45zm2.9.76a.75.75 0 0 1-.37 1.45.75.75 0 0 1 .38-1.45zm2.91.77a.75.75 0 1 1-.38 1.45.75.75 0 0 1 .38-1.45zm2.9.76a.75.75 0 0 1-.38 1.45.75.75 0 1 1 .38-1.45zm2.9.76a.75.75 0 1 1-.38 1.45.75.75 0 0 1 .38-1.45zm2.9.76h.01a.75.75 0 0 1-.38 1.45.75.75 0 1 1 .38-1.45zm2.91.77a.75.75 0 1 1-.38 1.45.75.75 0 1 1 .38-1.45zm2.9.76a.75.75 0 0 1-.38 1.45.75.75 0 1 1 .38-1.45zm2.9.76a.75.75 0 1 1-.37 1.45.75.75 0 0 1 .38-1.45zm2.91.76a.75.75 0 0 1-.38 1.45.75.75 0 1 1 .38-1.45zm2.9.76a.75.75 0 0 1-.38 1.46.75.75 0 0 1 .38-1.46zm2.9.77a.75.75 0 1 1-.37 1.45.75.75 0 0 1 .38-1.45z" style="fill:#ea4335;fill-opacity:1;fill-rule:nonzero;stroke:none"/></g><g clip-path="url(#w)" transform="matrix(1.333333 0 0 -1.333333 0 426.67)"><path d="M72.25 83.3a.75.75 0 0 1-.5 1.4.75.75 0 1 1 .5-1.4zm2.83 1a.75.75 0 1 1-.5 1.42.75.75 0 1 1 .5-1.41zm2.82 1.02a.75.75 0 1 1-.5 1.41.75.75 0 0 1 .5-1.41zm2.83 1.01a.75.75 0 1 1-.5 1.41.75.75 0 1 1 .5-1.41zm2.83 1.01a.75.75 0 0 1-.5 1.41h-.01a.75.75 0 0 1 .5-1.4zm2.82 1.01a.75.75 0 0 1-.5 1.42.75.75 0 0 1 .5-1.42zm2.83 1.02a.75.75 0 1 1-.5 1.4.75.75 0 0 1 .5-1.4zm2.82 1a.75.75 0 1 1-.5 1.42.75.75 0 1 1 .5-1.41zm2.83 1.02a.75.75 0 0 1-.5 1.41.75.75 0 0 1 .5-1.41zm2.82 1.01a.75.75 0 1 1-.5 1.41.75.75 0 0 1 .5-1.4zm2.83 1.01a.75.75 0 1 1-.5 1.42.75.75 0 1 1 .5-1.42zm2.83 1.01a.75.75 0 1 1-.5 1.42.75.75 0 1 1 .5-1.42zm2.82 1.02a.75.75 0 1 1-.5 1.4.75.75 0 1 1 .5-1.4zm2.83 1a.75.75 0 1 1-.5 1.42.75.75 0 1 1 .5-1.41zm2.82 1.02a.75.75 0 0 1-.5 1.41.75.75 0 1 1 .5-1.41zm2.83 1.01a.75.75 0 0 1-.5 1.41.75.75 0 0 1 .5-1.4zm2.83 1.01a.75.75 0 1 1-.5 1.42h-.01a.75.75 0 0 1 .5-1.42zm2.82 1.02a.75.75 0 1 1-.5 1.4.75.75 0 0 1 .5-1.4zm2.83 1a.75.75 0 1 1-.5 1.42.75.75 0 0 1 .5-1.41zm2.82 1.02a.75.75 0 1 1-.5 1.41.75.75 0 0 1 .5-1.41zm2.83 1.01a.75.75 0 0 1-.5 1.41.75.75 0 0 1 .5-1.4zm2.82 1.01a.75.75 0 1 1-.5 1.42.75.75 0 1 1 .5-1.42zm2.83 1.02a.75.75 0 1 1-.5 1.4.75.75 0 1 1 .5-1.4zm2.83 1a.75.75 0 1 1-.5 1.42h-.01a.75.75 0 1 1 .5-1.41zm2.82 1.02a.75.75 0 1 1-.5 1.41.75.75 0 1 1 .5-1.41zm2.83 1.01a.75.75 0 1 1-.5 1.41.75.75 0 1 1 .5-1.4zm2.82 1.01a.75.75 0 1 1-.5 1.42.75.75 0 0 1 .5-1.42zm2.83 1.01a.75.75 0 0 1-.5 1.42.75.75 0 0 1 .5-1.42zm2.83 1.02a.75.75 0 0 1-.51 1.4.75.75 0 0 1 .5-1.4zm2.82 1a.75.75 0 1 1-.5 1.42.75.75 0 1 1 .5-1.41zm2.83 1.02a.75.75 0 1 1-.51 1.41.75.75 0 0 1 .5-1.4zm2.82 1.01a.75.75 0 1 1-.5 1.41.75.75 0 1 1 .5-1.4zm2.83 1.01a.75.75 0 1 1-.5 1.42.75.75 0 1 1 .5-1.42zm2.83 1.02a.75.75 0 1 1-.51 1.4.75.75 0 1 1 .5-1.4zm2.82 1a.75.75 0 1 1-.5 1.42.75.75 0 1 1 .5-1.41zm2.83 1.02a.75.75 0 0 1-.51 1.41.75.75 0 0 1 .5-1.41zm2.82 1.01a.75.75 0 0 1-.5 1.41.75.75 0 1 1 .5-1.4zm2.83 1.01a.75.75 0 0 1-.5 1.42h-.01a.75.75 0 0 1 .5-1.42zm2.82 1.02a.75.75 0 1 1-.5 1.4.75.75 0 0 1 .5-1.4zm2.83 1a.75.75 0 1 1-.5 1.42.75.75 0 1 1 .5-1.41zm2.83 1.02a.75.75 0 1 1-.51 1.41.75.75 0 1 1 .5-1.41zm2.82 1.01a.75.75 0 1 1-.5 1.41.75.75 0 1 1 .5-1.4zm2.83 1.01a.75.75 0 1 1-.51 1.42.75.75 0 1 1 .5-1.42zm2.82 1.02a.75.75 0 0 1-.5 1.4.75.75 0 0 1 .5-1.4zm2.83 1a.75.75 0 0 1-.5 1.42.75.75 0 1 1 .5-1.41zm2.82 1.02a.75.75 0 0 1-.5 1.41.75.75 0 0 1 .5-1.41zm2.83 1.01a.75.75 0 0 1-.5 1.41.75.75 0 0 1 .5-1.4zm2.83 1.01a.75.75 0 0 1-.51 1.41.75.75 0 0 1 .5-1.4zm2.82 1.01a.75.75 0 1 1-.5 1.42.75.75 0 1 1 .5-1.42zm2.83 1.02a.75.75 0 1 1-.51 1.4.75.75 0 1 1 .5-1.4zm2.82 1a.75.75 0 1 1-.5 1.42.75.75 0 1 1 .5-1.41zm2.83 1.02a.75.75 0 1 1-.5 1.41.75.75 0 1 1 .5-1.4zm2.83 1.01a.75.75 0 0 1-.51 1.41.75.75 0 1 1 .5-1.4zm2.82 1.01a.75.75 0 0 1-.5 1.42.75.75 0 0 1 .5-1.42zm2.83 1.02a.75.75 0 0 1-.51 1.4.75.75 0 0 1 .5-1.4zm2.82 1a.75.75 0 0 1-.5 1.42.75.75 0 0 1 .5-1.41zm2.83 1.02a.75.75 0 0 1-.5 1.41h-.01a.75.75 0 0 1 .5-1.41zm2.82 1.01a.75.75 0 1 1-.5 1.41.75.75 0 1 1 .5-1.4zm2.83 1.01a.75.75 0 1 1-.5 1.42.75.75 0 1 1 .5-1.42zm2.82 1.02a.75.75 0 0 1-.5 1.4.75.75 0 0 1 .5-1.4zm2.83 1a.75.75 0 1 1-.5 1.42.75.75 0 0 1 .5-1.41zm2.83 1.02a.75.75 0 1 1-.5 1.41h-.01a.75.75 0 1 1 .5-1.41zm2.82 1.01a.75.75 0 1 1-.5 1.41.75.75 0 0 1 .5-1.4zm2.83 1.01a.75.75 0 0 1-.5 1.42.75.75 0 0 1 .5-1.42zm2.82 1.01a.75.75 0 0 1-.5 1.42.75.75 0 1 1 .5-1.42zm2.83 1.02a.75.75 0 0 1-.5 1.4.75.75 0 1 1 .5-1.4zm2.82 1a.75.75 0 0 1-.5 1.42.75.75 0 1 1 .5-1.41zm2.83 1.02a.75.75 0 0 1-.5 1.41.75.75 0 0 1 .5-1.41zm2.83 1.01a.75.75 0 1 1-.5 1.41.75.75 0 1 1 .5-1.4zm2.82 1.01a.75.75 0 1 1-.5 1.42.75.75 0 0 1 .5-1.42zm2.83 1.02a.75.75 0 1 1-.5 1.4.75.75 0 0 1 .5-1.4zm2.82 1a.75.75 0 1 1-.5 1.42.75.75 0 0 1 .5-1.41zm2.83 1.02a.75.75 0 0 1-.5 1.41.75.75 0 0 1 .5-1.41zm2.83 1.01a.75.75 0 0 1-.5 1.41h-.01a.75.75 0 1 1 .5-1.4zm2.82 1.01a.75.75 0 0 1-.5 1.42.75.75 0 1 1 .5-1.42zm2.83 1.02a.75.75 0 0 1-.5 1.4.75.75 0 1 1 .5-1.4zm2.82 1a.75.75 0 0 1-.5 1.42.75.75 0 0 1 .5-1.41zm2.83 1.02a.75.75 0 1 1-.5 1.41.75.75 0 0 1 .5-1.41zm2.82 1.01a.75.75 0 1 1-.5 1.41.75.75 0 0 1 .5-1.4zm2.83 1.01a.75.75 0 1 1-.5 1.42.75.75 0 0 1 .5-1.42zm2.83 1.01a.75.75 0 0 1-.5 1.42h-.01a.75.75 0 0 1 .5-1.42zm2.82 1.02a.75.75 0 1 1-.5 1.4.75.75 0 1 1 .5-1.4zm2.82 1a.75.75 0 1 1-.5 1.42.75.75 0 0 1 .5-1.41zm2.83 1.02a.75.75 0 0 1-.5 1.41.75.75 0 0 1 .5-1.41zm2.83 1.01a.75.75 0 0 1-.5 1.42.75.75 0 0 1 .5-1.42zm2.82 1.01a.75.75 0 0 1-.5 1.42.75.75 0 1 1 .5-1.42zm2.83 1.02a.75.75 0 0 1-.5 1.41.75.75 0 1 1 .5-1.41zm2.82 1a.75.75 0 1 1-.5 1.42.75.75 0 1 1 .5-1.41zm2.83 1.02a.75.75 0 0 1-.5 1.41.75.75 0 0 1 .5-1.41zm2.83 1.01a.75.75 0 1 1-.5 1.42.75.75 0 0 1 .5-1.42zm2.82 1.01a.75.75 0 1 1-.5 1.42.75.75 0 0 1 .5-1.42zm2.83 1.01a.75.75 0 1 1-.5 1.42.75.75 0 1 1 .5-1.42zm2.82 1.02a.75.75 0 1 1-.5 1.41.75.75 0 1 1 .5-1.41zm2.83 1a.75.75 0 0 1-.5 1.42.75.75 0 1 1 .5-1.41zm2.82 1.02a.75.75 0 0 1-.5 1.41.75.75 0 1 1 .5-1.41zm2.83 1.01a.75.75 0 0 1-.5 1.42.75.75 0 1 1 .5-1.42zm2.83 1.01a.75.75 0 1 1-.5 1.42.75.75 0 0 1 .5-1.42zm2.82 1.02a.75.75 0 1 1-.5 1.41.75.75 0 0 1 .5-1.41zm2.83 1a.75.75 0 1 1-.5 1.42.75.75 0 0 1 .5-1.41zm2.82 1.02a.75.75 0 0 1-.5 1.41.75.75 0 0 1 .5-1.41zm2.83 1.01a.75.75 0 0 1-.5 1.42.75.75 0 1 1 .5-1.42zm2.82 1.01a.75.75 0 0 1-.5 1.42.75.75 0 1 1 .5-1.42zm2.83 1.02a.75.75 0 0 1-.5 1.41.75.75 0 1 1 .5-1.41zm2.83 1a.75.75 0 1 1-.5 1.42.75.75 0 1 1 .5-1.41zm2.82 1.02a.75.75 0 1 1-.5 1.41.75.75 0 0 1 .5-1.41zm2.83 1.01a.75.75 0 1 1-.5 1.42.75.75 0 0 1 .5-1.42zm2.82 1.01a.75.75 0 1 1-.5 1.42.75.75 0 0 1 .5-1.42zm2.83 1.01a.75.75 0 0 1-.5 1.42.75.75 0 0 1 .5-1.42zm2.83 1.02a.75.75 0 0 1-.5 1.41.75.75 0 1 1 .5-1.41zm2.82 1a.75.75 0 0 1-.5 1.42.75.75 0 1 1 .5-1.41zm2.83 1.02a.75.75 0 0 1-.5 1.41.75.75 0 1 1 .5-1.41zm2.82 1.01a.75.75 0 1 1-.5 1.42.75.75 0 1 1 .5-1.42zm2.83 1.01a.75.75 0 1 1-.5 1.42.75.75 0 0 1 .5-1.42zm2.82 1.02a.75.75 0 1 1-.5 1.41.75.75 0 0 1 .5-1.41zm2.83 1a.75.75 0 1 1-.5 1.42.75.75 0 0 1 .5-1.41zm2.83 1.02a.75.75 0 0 1-.5 1.41.75.75 0 0 1 .5-1.41zm2.82 1.01a.75.75 0 0 1-.5 1.42.75.75 0 1 1 .5-1.42zm2.83 1.01a.75.75 0 0 1-.5 1.42.75.75 0 1 1 .5-1.42zm2.82 1.02a.75.75 0 0 1-.5 1.41.75.75 0 1 1 .5-1.41zm2.83 1a.75.75 0 0 1-.5 1.42.75.75 0 1 1 .5-1.41zm2.82 1.02a.75.75 0 1 1-.5 1.41.75.75 0 0 1 .5-1.41zm2.83 1.01a.75.75 0 1 1-.5 1.42.75.75 0 0 1 .5-1.42zm2.83 1.01a.75.75 0 1 1-.5 1.42.75.75 0 0 1 .5-1.42zm2.82 1.01a.75.75 0 0 1-.5 1.42.75.75 0 0 1 .5-1.42zm2.83 1.02a.75.75 0 0 1-.5 1.41.75.75 0 0 1 .5-1.41zm2.82 1a.75.75 0 0 1-.5 1.42.75.75 0 1 1 .5-1.41zm2.83 1.02a.75.75 0 0 1-.5 1.42.75.75 0 1 1 .5-1.42zm2.83 1.01a.75.75 0 0 1-.5 1.42.75.75 0 1 1 .5-1.42zm2.82 1.01a.75.75 0 0 1-.5 1.42.75.75 0 0 1 .5-1.42zm2.83 1.02a.75.75 0 0 1-.5 1.41.75.75 0 1 1 .5-1.41zm2.82 1a.75.75 0 1 1-.5 1.42.75.75 0 0 1 .5-1.41zm2.83 1.02a.75.75 0 0 1-.5 1.41.75.75 0 1 1 .5-1.41zm2.82 1.01a.75.75 0 0 1-.5 1.42.75.75 0 1 1 .5-1.42zm2.83 1.01a.75.75 0 1 1-.5 1.42.75.75 0 0 1 .5-1.42z" style="fill:#fbbc04;fill-opacity:1;fill-rule:nonzero;stroke:none"/></g><g clip-path="url(#x)" transform="matrix(1.333333 0 0 -1.333333 0 426.67)"><text xml:space="preserve" style="font-variant:normal;font-weight:400;font-size:9px;font-family:Arial;-inkscape-font-specification:ArialMT;writing-mode:lr-tb;fill:#4285f4;fill-opacity:1;fill-rule:nonzero;stroke:none" transform="matrix(1 0 0 -1 120.74 24)"><tspan x="0 5 8 13 15.01 20.01 22.01 27.01 30.01 35.01 40.01 45.01 50.01 57.01 60.02 65.02 68.02 73.02 76.02 81.02 86.02 91.02" y="0">1/c = 0.0142m + 0.0002</tspan></text></g><g clip-path="url(#y)" transform="matrix(1.333333 0 0 -1.333333 0 426.67)"><text xml:space="preserve" style="font-variant:normal;font-weight:400;font-size:9px;font-family:Arial;-inkscape-font-specification:ArialMT;writing-mode:lr-tb;fill:#ea4335;fill-opacity:1;fill-rule:nonzero;stroke:none" transform="matrix(1 0 0 -1 219.26 25)"><tspan x="0 5 8 13 15.01 20.01 22.01 27.01 30.01 35.01 40.01 45.01 52.01 55.02 60.02 63.02 68.02 71.02 76.02 81.02 86.02" y="0">1/c = 0.012m + 0.0002</tspan></text></g><g clip-path="url(#z)" transform="matrix(1.333333 0 0 -1.333333 0 426.67)"><text xml:space="preserve" style="font-variant:normal;font-weight:400;font-size:9px;font-family:Arial;-inkscape-font-specification:ArialMT;writing-mode:lr-tb;fill:#fbbc04;fill-opacity:1;fill-rule:nonzero;stroke:none" transform="matrix(1 0 0 -1 314.04 25)"><tspan x="0 5 8 13 15.01 20.01 22.01 27.01 30.01 35.01 40.01 45.01 50.01 57.01 60.02 65.02 68.02 73.02 76.02 81.02 86.02 91.02" y="0">1/c = 0.0164m + 0.0002</tspan></text></g><g clip-path="url(#A)" transform="matrix(1.333333 0 0 -1.333333 0 426.67)"><text xml:space="preserve" style="font-variant:normal;font-weight:400;font-size:9px;font-family:Arial;-inkscape-font-specification:ArialMT;writing-mode:lr-tb;fill:#595959;fill-opacity:1;fill-rule:nonzero;stroke:none" transform="matrix(1 0 0 -1 27.52 62)"><tspan x="0 5 8 13 18 24 27.01 32.01" y="0">2.20E-04</tspan></text></g><g clip-path="url(#B)" transform="matrix(1.333333 0 0 -1.333333 0 426.67)"><text xml:space="preserve" style="font-variant:normal;font-weight:400;font-size:9px;font-family:Arial;-inkscape-font-specification:ArialMT;writing-mode:lr-tb;fill:#595959;fill-opacity:1;fill-rule:nonzero;stroke:none" transform="matrix(1 0 0 -1 27.52 90)"><tspan x="0 5 8 13 18 24 27.01 32.01" y="0">2.30E-04</tspan></text></g><g clip-path="url(#C)" transform="matrix(1.333333 0 0 -1.333333 0 426.67)"><text xml:space="preserve" style="font-variant:normal;font-weight:400;font-size:9px;font-family:Arial;-inkscape-font-specification:ArialMT;writing-mode:lr-tb;fill:#595959;fill-opacity:1;fill-rule:nonzero;stroke:none" transform="matrix(1 0 0 -1 27.52 117)"><tspan x="0 5 8 13 18 24 27.01 32.01" y="0">2.40E-04</tspan></text></g><g clip-path="url(#D)" transform="matrix(1.333333 0 0 -1.333333 0 426.67)"><text xml:space="preserve" style="font-variant:normal;font-weight:400;font-size:9px;font-family:Arial;-inkscape-font-specification:ArialMT;writing-mode:lr-tb;fill:#595959;fill-opacity:1;fill-rule:nonzero;stroke:none" transform="matrix(1 0 0 -1 27.52 144)"><tspan x="0 5 8 13 18 24 27.01 32.01" y="0">2.50E-04</tspan></text></g><g clip-path="url(#E)" transform="matrix(1.333333 0 0 -1.333333 0 426.67)"><text xml:space="preserve" style="font-variant:normal;font-weight:400;font-size:9px;font-family:Arial;-inkscape-font-specification:ArialMT;writing-mode:lr-tb;fill:#595959;fill-opacity:1;fill-rule:nonzero;stroke:none" transform="matrix(1 0 0 -1 27.52 172)"><tspan x="0 5 8 13 18 24 27.01 32.01" y="0">2.60E-04</tspan></text></g><g clip-path="url(#F)" transform="matrix(1.333333 0 0 -1.333333 0 426.67)"><text xml:space="preserve" style="font-variant:normal;font-weight:400;font-size:9px;font-family:Arial;-inkscape-font-specification:ArialMT;writing-mode:lr-tb;fill:#595959;fill-opacity:1;fill-rule:nonzero;stroke:none" transform="matrix(1 0 0 -1 27.52 199)"><tspan x="0 5 8 13 18 24 27.01 32.01" y="0">2.70E-04</tspan></text></g><g clip-path="url(#G)" transform="matrix(1.333333 0 0 -1.333333 0 426.67)"><text xml:space="preserve" style="font-variant:normal;font-weight:400;font-size:9px;font-family:Arial;-inkscape-font-specification:ArialMT;writing-mode:lr-tb;fill:#595959;fill-opacity:1;fill-rule:nonzero;stroke:none" transform="matrix(1 0 0 -1 27.52 227)"><tspan x="0 5 8 13 18 24 27.01 32.01" y="0">2.80E-04</tspan></text></g><g clip-path="url(#H)" transform="matrix(1.333333 0 0 -1.333333 0 426.67)"><text xml:space="preserve" style="font-variant:normal;font-weight:400;font-size:9px;font-family:Arial;-inkscape-font-specification:ArialMT;writing-mode:lr-tb;fill:#595959;fill-opacity:1;fill-rule:nonzero;stroke:none" transform="matrix(1 0 0 -1 27.52 254)"><tspan x="0 5 8 13 18 24 27.01 32.01" y="0">2.90E-04</tspan></text></g><g clip-path="url(#I)" transform="matrix(1.333333 0 0 -1.333333 0 426.67)"><text xml:space="preserve" style="font-variant:normal;font-weight:400;font-size:9px;font-family:Arial;-inkscape-font-specification:ArialMT;writing-mode:lr-tb;fill:#595959;fill-opacity:1;fill-rule:nonzero;stroke:none" transform="matrix(1 0 0 -1 27.52 281)"><tspan x="0 5 8 13 18 24 27.01 32.01" y="0">3.00E-04</tspan></text></g><g clip-path="url(#J)" transform="matrix(1.333333 0 0 -1.333333 0 426.67)"><text xml:space="preserve" style="font-variant:normal;font-weight:400;font-size:9px;font-family:Arial;-inkscape-font-specification:ArialMT;writing-mode:lr-tb;fill:#595959;fill-opacity:1;fill-rule:nonzero;stroke:none" transform="matrix(1 0 0 -1 52.4 51)"><tspan x="0 5 8 13 18 24 29 34" y="0">0.00E+00</tspan></text></g><g clip-path="url(#K)" transform="matrix(1.333333 0 0 -1.333333 0 426.67)"><text xml:space="preserve" style="font-variant:normal;font-weight:400;font-size:9px;font-family:Arial;-inkscape-font-specification:ArialMT;writing-mode:lr-tb;fill:#595959;fill-opacity:1;fill-rule:nonzero;stroke:none" transform="matrix(1 0 0 -1 116.42 51)"><tspan x="0 5 8 13 18 24 27.01 32.01" y="0">5.00E-04</tspan></text></g><g clip-path="url(#L)" transform="matrix(1.333333 0 0 -1.333333 0 426.67)"><text xml:space="preserve" style="font-variant:normal;font-weight:400;font-size:9px;font-family:Arial;-inkscape-font-specification:ArialMT;writing-mode:lr-tb;fill:#595959;fill-opacity:1;fill-rule:nonzero;stroke:none" transform="matrix(1 0 0 -1 179.32 51)"><tspan x="0 5 8 13 18 24 27.01 32.01" y="0">1.00E-03</tspan></text></g><g clip-path="url(#M)" transform="matrix(1.333333 0 0 -1.333333 0 426.67)"><text xml:space="preserve" style="font-variant:normal;font-weight:400;font-size:9px;font-family:Arial;-inkscape-font-specification:ArialMT;writing-mode:lr-tb;fill:#595959;fill-opacity:1;fill-rule:nonzero;stroke:none" transform="matrix(1 0 0 -1 242.21 51)"><tspan x="0 5 8 13 18 24 27.01 32.01" y="0">1.50E-03</tspan></text></g><g clip-path="url(#N)" transform="matrix(1.333333 0 0 -1.333333 0 426.67)"><text xml:space="preserve" style="font-variant:normal;font-weight:400;font-size:9px;font-family:Arial;-inkscape-font-specification:ArialMT;writing-mode:lr-tb;fill:#595959;fill-opacity:1;fill-rule:nonzero;stroke:none" transform="matrix(1 0 0 -1 305.1 51)"><tspan x="0 5 8 13 18 24 27.01 32.01" y="0">2.00E-03</tspan></text></g><g clip-path="url(#O)" transform="matrix(1.333333 0 0 -1.333333 0 426.67)"><text xml:space="preserve" style="font-variant:normal;font-weight:400;font-size:9px;font-family:Arial;-inkscape-font-specification:ArialMT;writing-mode:lr-tb;fill:#595959;fill-opacity:1;fill-rule:nonzero;stroke:none" transform="matrix(1 0 0 -1 368 51)"><tspan x="0 5 8 13 18 24 27.01 32.01" y="0">2.50E-03</tspan></text></g><g clip-path="url(#P)" transform="matrix(1.333333 0 0 -1.333333 0 426.67)"><text xml:space="preserve" style="font-variant:normal;font-weight:400;font-size:9px;font-family:Arial;-inkscape-font-specification:ArialMT;writing-mode:lr-tb;fill:#595959;fill-opacity:1;fill-rule:nonzero;stroke:none" transform="matrix(1 0 0 -1 430.9 51)"><tspan x="0 5 8 13 18 24 27.01 32.01" y="0">3.00E-03</tspan></text></g><g clip-path="url(#Q)" transform="matrix(1.333333 0 0 -1.333333 0 426.67)"><text xml:space="preserve" style="font-variant:normal;font-weight:400;font-size:9px;font-family:Arial;-inkscape-font-specification:ArialMT;writing-mode:lr-tb;fill:#595959;fill-opacity:1;fill-rule:nonzero;stroke:none" transform="matrix(1 0 0 -1 493.8 51)"><tspan x="0 5 8 13 18 24 27.01 32.01" y="0">3.50E-03</tspan></text></g><g clip-path="url(#R)" transform="matrix(1.333333 0 0 -1.333333 0 426.67)"><text xml:space="preserve" style="font-variant:normal;font-weight:400;font-size:10px;font-family:Arial;-inkscape-font-specification:ArialMT;writing-mode:lr-tb;fill:#595959;fill-opacity:1;fill-rule:nonzero;stroke:none" transform="matrix(0 1 1 0 22.02 98)"><tspan x="0 6 9 14 20 26 31 33 36 38 43 45 51 57 63 66 68 73 79 85 91 96 98 101 106 108 111 116 118 123" y="0">1/specific heat capacity (J kg</tspan></text></g><g clip-path="url(#S)" transform="matrix(1.333333 0 0 -1.333333 0 426.67)"><text xml:space="preserve" style="font-variant:normal;font-weight:400;font-size:7px;font-family:Arial;-inkscape-font-specification:ArialMT;writing-mode:lr-tb;fill:#595959;fill-opacity:1;fill-rule:nonzero;stroke:none" transform="matrix(0 1 1 0 19.02 227)"><tspan x="0" y="0">-</tspan></text></g><g clip-path="url(#T)" transform="matrix(1.333333 0 0 -1.333333 0 426.67)"><text xml:space="preserve" style="font-variant:normal;font-weight:400;font-size:7px;font-family:Arial;-inkscape-font-specification:ArialMT;writing-mode:lr-tb;fill:#595959;fill-opacity:1;fill-rule:nonzero;stroke:none" transform="matrix(0 1 1 0 19.02 229)"><tspan x="0" y="0">1</tspan></text></g><g clip-path="url(#U)" transform="matrix(1.333333 0 0 -1.333333 0 426.67)"><text xml:space="preserve" style="font-variant:normal;font-weight:400;font-size:10px;font-family:Arial;-inkscape-font-specification:ArialMT;writing-mode:lr-tb;fill:#595959;fill-opacity:1;fill-rule:nonzero;stroke:none" transform="matrix(0 1 1 0 22.02 235)"><tspan x="0" y="0">K</tspan></text></g><g clip-path="url(#V)" transform="matrix(1.333333 0 0 -1.333333 0 426.67)"><text xml:space="preserve" style="font-variant:normal;font-weight:400;font-size:7px;font-family:Arial;-inkscape-font-specification:ArialMT;writing-mode:lr-tb;fill:#595959;fill-opacity:1;fill-rule:nonzero;stroke:none" transform="matrix(0 1 1 0 19.02 242)"><tspan x="0" y="0">-</tspan></text></g><g clip-path="url(#W)" transform="matrix(1.333333 0 0 -1.333333 0 426.67)"><text xml:space="preserve" style="font-variant:normal;font-weight:400;font-size:7px;font-family:Arial;-inkscape-font-specification:ArialMT;writing-mode:lr-tb;fill:#595959;fill-opacity:1;fill-rule:nonzero;stroke:none" transform="matrix(0 1 1 0 19.02 244)"><tspan x="0" y="0">1</tspan></text></g><g clip-path="url(#X)" transform="matrix(1.333333 0 0 -1.333333 0 426.67)"><text xml:space="preserve" style="font-variant:normal;font-weight:400;font-size:10px;font-family:Arial;-inkscape-font-specification:ArialMT;writing-mode:lr-tb;fill:#595959;fill-opacity:1;fill-rule:nonzero;stroke:none" transform="matrix(0 1 1 0 22.02 248)"><tspan x="0" y="0">)</tspan></text></g><g clip-path="url(#Y)" transform="matrix(1.333333 0 0 -1.333333 0 426.67)"><text xml:space="preserve" style="font-variant:normal;font-weight:400;font-size:10px;font-family:Arial;-inkscape-font-specification:ArialMT;writing-mode:lr-tb;fill:#595959;fill-opacity:1;fill-rule:nonzero;stroke:none" transform="matrix(1 0 0 -1 255.6 37)"><tspan x="0 8 14 19 24 27 33 36 38 43 49 51 54 56 59 64 70" y="0">Mass of salt (kg)</tspan></text></g><g clip-path="url(#Z)" transform="matrix(1.333333 0 0 -1.333333 0 426.67)"><text xml:space="preserve" style="font-variant:normal;font-weight:400;font-size:14px;font-family:Arial;-inkscape-font-specification:ArialMT;writing-mode:lr-tb;fill:#595959;fill-opacity:1;fill-rule:nonzero;stroke:none" transform="matrix(1 0 0 -1 120.6 299)"><tspan x="0 9 17 25 32 35 39 42 49 53 61 69 77 81 84 91 99 107 115 122 125 129 136 139 146 153" y="0">Specific heat capacity vs </tspan></text></g><g clip-path="url(#aa)" transform="matrix(1.333333 0 0 -1.333333 0 426.67)"><text xml:space="preserve" style="font-variant:normal;font-weight:400;font-size:14px;font-family:Arial;-inkscape-font-specification:ArialMT;writing-mode:lr-tb;fill:#595959;fill-opacity:1;fill-rule:nonzero;stroke:none" transform="matrix(1 0 0 -1 277.6 299)"><tspan x="0 12 20 27 34 38 46 50 53 60 68 71 75 79 82 90 94 101 109 112 120 124 127 135" y="0">mass of salt in solution</tspan></text></g><g clip-path="url(#ab)" transform="matrix(1.333333 0 0 -1.333333 0 426.67)"><path d="M142 14.75a.75.75 0 0 0 0-1.5.75.75 0 0 0 0 1.5zm3 0a.75.75 0 0 0 0-1.5.75.75 0 0 0 0 1.5zm3 0a.75.75 0 0 0 0-1.5.75.75 0 0 0 0 1.5zm3 0a.75.75 0 0 0 0-1.5.75.75 0 0 0 0 1.5zm3 0a.75.75 0 0 0 0-1.5.75.75 0 0 0 0 1.5zm3 0a.75.75 0 0 0 0-1.5.75.75 0 0 0 0 1.5zm3 0h.01a.75.75 0 0 0 0-1.5.75.75 0 0 0 0 1.5zm3.01 0a.75.75 0 0 0 0-1.5.75.75 0 0 0 0 1.5zm3 0a.75.75 0 0 0 0-1.5.75.75 0 0 0 0 1.5z" style="fill:#4285f4;fill-opacity:1;fill-rule:nonzero;stroke:none"/></g><g clip-path="url(#ac)" transform="matrix(1.333333 0 0 -1.333333 0 426.67)"><text xml:space="preserve" style="font-variant:normal;font-weight:400;font-size:9px;font-family:Arial;-inkscape-font-specification:ArialMT;writing-mode:lr-tb;fill:#595959;fill-opacity:1;fill-rule:nonzero;stroke:none" transform="matrix(1 0 0 -1 170.23 12)"><tspan x="0 5 7 12 17 22 25.01 28.01 31.01 36.01 40.01 45.01" y="0">Linear (avg)</tspan></text></g><g clip-path="url(#ad)" transform="matrix(1.333333 0 0 -1.333333 0 426.67)"><path d="M234 14.75a.75.75 0 0 0 0-1.5.75.75 0 0 0 0 1.5zm3 0a.75.75 0 0 0 0-1.5.75.75 0 0 0 0 1.5zm3 0a.75.75 0 0 0 0-1.5.75.75 0 0 0 0 1.5zm3 0a.75.75 0 0 0 0-1.5.75.75 0 0 0 0 1.5zm3 0a.75.75 0 0 0 0-1.5.75.75 0 0 0 0 1.5zm3 0a.75.75 0 0 0 0-1.5.75.75 0 0 0 0 1.5zm3 0h.01a.75.75 0 0 0 0-1.5.75.75 0 0 0 0 1.5zm3.01 0a.75.75 0 0 0 0-1.5.75.75 0 0 0 0 1.5zm3 0a.75.75 0 0 0 0-1.5.75.75 0 0 0 0 1.5z" style="fill:#ea4335;fill-opacity:1;fill-rule:nonzero;stroke:none"/></g><g clip-path="url(#ae)" transform="matrix(1.333333 0 0 -1.333333 0 426.67)"><text xml:space="preserve" style="font-variant:normal;font-weight:400;font-size:9px;font-family:Arial;-inkscape-font-specification:ArialMT;writing-mode:lr-tb;fill:#595959;fill-opacity:1;fill-rule:nonzero;stroke:none" transform="matrix(1 0 0 -1 261.8 12)"><tspan x="0 5 7 12 17 22 25.01 28.01 31.01 38.01 40.01 45.01" y="0">Linear (min)</tspan></text></g><g clip-path="url(#af)" transform="matrix(1.333333 0 0 -1.333333 0 426.67)"><path d="M325 14.75a.75.75 0 0 0 0-1.5.75.75 0 0 0 0 1.5zm3 0a.75.75 0 0 0 0-1.5.75.75 0 0 0 0 1.5zm3 0a.75.75 0 0 0 0-1.5.75.75 0 0 0 0 1.5zm3 0a.75.75 0 0 0 0-1.5.75.75 0 0 0 0 1.5zm3 0a.75.75 0 0 0 0-1.5.75.75 0 0 0 0 1.5zm3 0h.01a.75.75 0 0 0 0-1.5.75.75 0 0 0 0 1.5zm3 0h.01a.75.75 0 0 0 0-1.5.75.75 0 0 0 0 1.5zm3.01 0a.75.75 0 0 0 0-1.5.75.75 0 0 0 0 1.5zm3 0a.75.75 0 0 0 0-1.5.75.75 0 0 0 0 1.5z" style="fill:#fbbc04;fill-opacity:1;fill-rule:nonzero;stroke:none"/></g><g clip-path="url(#ag)" transform="matrix(1.333333 0 0 -1.333333 0 426.67)"><text xml:space="preserve" style="font-variant:normal;font-weight:400;font-size:9px;font-family:Arial;-inkscape-font-specification:ArialMT;writing-mode:lr-tb;fill:#595959;fill-opacity:1;fill-rule:nonzero;stroke:none" transform="matrix(1 0 0 -1 353.35 12)"><tspan x="0 5 7 12 17 22 25.01 28.01 31.01 38.01 43.01 48.01" y="0">Linear (max)</tspan></text></g><path d="M0 0h6870700v4051300H0Z" style="fill:none;stroke:#d9d9d9;stroke-width:9525;stroke-linecap:butt;stroke-linejoin:round;stroke-miterlimit:10;stroke-dasharray:none;stroke-opacity:1" transform="matrix(.000105 0 0 .000105 .67 .67)"/></svg>