<?xml version="1.0" encoding="UTF-8" standalone="no"?>
<svg width="785.333" height="517.333" viewBox="0 0 785.333 517.333" xmlns="http://www.w3.org/2000/svg" xmlns:svg="http://www.w3.org/2000/svg">
  <defs>
    <clipPath clipPathUnits="userSpaceOnUse" id="a">
      <path d="M0 0h589v388H0Z"/>
    </clipPath>
    <clipPath clipPathUnits="userSpaceOnUse" id="b">
      <path d="M0 1h588v387H0Z"/>
    </clipPath>
    <clipPath clipPathUnits="userSpaceOnUse" id="c">
      <path d="M0 1h588v387H0Z"/>
    </clipPath>
    <clipPath clipPathUnits="userSpaceOnUse" id="d">
      <path d="M0 1h588v387H0Z"/>
    </clipPath>
    <clipPath clipPathUnits="userSpaceOnUse" id="e">
      <path d="M0 1h588v387H0Z"/>
    </clipPath>
    <clipPath clipPathUnits="userSpaceOnUse" id="f">
      <path d="M74 65h485v287H74Z"/>
    </clipPath>
    <clipPath clipPathUnits="userSpaceOnUse" id="g">
      <path d="M74 65h485v287H74Z"/>
    </clipPath>
    <clipPath clipPathUnits="userSpaceOnUse" id="h">
      <path d="M74 65h485v287H74Z"/>
    </clipPath>
    <clipPath clipPathUnits="userSpaceOnUse" id="i">
      <path d="M74 65h485v287H74Z"/>
    </clipPath>
    <clipPath clipPathUnits="userSpaceOnUse" id="j">
      <path d="M74 65h485v287H74Z"/>
    </clipPath>
    <clipPath clipPathUnits="userSpaceOnUse" id="k">
      <path d="M74 65h485v287H74Z"/>
    </clipPath>
    <clipPath clipPathUnits="userSpaceOnUse" id="l">
      <path d="M74 65h485v287H74Z"/>
    </clipPath>
    <clipPath clipPathUnits="userSpaceOnUse" id="m">
      <path d="M74 65h485v287H74Z"/>
    </clipPath>
    <clipPath clipPathUnits="userSpaceOnUse" id="n">
      <path d="M74 65h485v287H74Z"/>
    </clipPath>
    <clipPath clipPathUnits="userSpaceOnUse" id="o">
      <path d="M74 65h485v287H74Z"/>
    </clipPath>
    <clipPath clipPathUnits="userSpaceOnUse" id="p">
      <path d="M74 65h485v287H74Z"/>
    </clipPath>
    <clipPath clipPathUnits="userSpaceOnUse" id="q">
      <path d="M74 65h485v287H74Z"/>
    </clipPath>
    <clipPath clipPathUnits="userSpaceOnUse" id="r">
      <path d="M74 65h485v287H74Z"/>
    </clipPath>
    <clipPath clipPathUnits="userSpaceOnUse" id="s">
      <path d="M74 65h485v287H74Z"/>
    </clipPath>
    <clipPath clipPathUnits="userSpaceOnUse" id="t">
      <path d="M0 1h588v387H0Z"/>
    </clipPath>
    <clipPath clipPathUnits="userSpaceOnUse" id="u">
      <path d="M74 65h485v287H74Z"/>
    </clipPath>
    <clipPath clipPathUnits="userSpaceOnUse" id="v">
      <path d="M74 65h485v287H74Z"/>
    </clipPath>
    <clipPath clipPathUnits="userSpaceOnUse" id="w">
      <path d="M74 65h485v287H74Z"/>
    </clipPath>
    <clipPath clipPathUnits="userSpaceOnUse" id="x">
      <path d="M0 1h588v387H0Z"/>
    </clipPath>
    <clipPath clipPathUnits="userSpaceOnUse" id="y">
      <path d="M0 1h588v387H0Z"/>
    </clipPath>
    <clipPath clipPathUnits="userSpaceOnUse" id="z">
      <path d="M0 1h588v387H0Z"/>
    </clipPath>
    <clipPath clipPathUnits="userSpaceOnUse" id="A">
      <path d="M0 1h588v387H0Z"/>
    </clipPath>
    <clipPath clipPathUnits="userSpaceOnUse" id="B">
      <path d="M0 1h588v387H0Z"/>
    </clipPath>
    <clipPath clipPathUnits="userSpaceOnUse" id="C">
      <path d="M0 1h588v387H0Z"/>
    </clipPath>
    <clipPath clipPathUnits="userSpaceOnUse" id="D">
      <path d="M0 1h588v387H0Z"/>
    </clipPath>
    <clipPath clipPathUnits="userSpaceOnUse" id="E">
      <path d="M0 1h588v387H0Z"/>
    </clipPath>
    <clipPath clipPathUnits="userSpaceOnUse" id="F">
      <path d="M0 1h588v387H0Z"/>
    </clipPath>
    <clipPath clipPathUnits="userSpaceOnUse" id="G">
      <path d="M0 1h588v387H0Z"/>
    </clipPath>
    <clipPath clipPathUnits="userSpaceOnUse" id="H">
      <path d="M0 1h588v387H0Z"/>
    </clipPath>
    <clipPath clipPathUnits="userSpaceOnUse" id="I">
      <path d="M0 1h588v387H0Z"/>
    </clipPath>
    <clipPath clipPathUnits="userSpaceOnUse" id="J">
      <path d="M0 1h588v387H0Z"/>
    </clipPath>
    <clipPath clipPathUnits="userSpaceOnUse" id="K">
      <path d="M0 1h588v387H0Z"/>
    </clipPath>
    <clipPath clipPathUnits="userSpaceOnUse" id="L">
      <path d="M0 1h588v387H0Z"/>
    </clipPath>
    <clipPath clipPathUnits="userSpaceOnUse" id="M">
      <path d="M0 1h588v387H0Z"/>
    </clipPath>
    <clipPath clipPathUnits="userSpaceOnUse" id="N">
      <path d="M0 1h588v387H0Z"/>
    </clipPath>
    <clipPath clipPathUnits="userSpaceOnUse" id="O">
      <path d="M0 1h588v387H0Z"/>
    </clipPath>
    <clipPath clipPathUnits="userSpaceOnUse" id="P">
      <path d="M0 1h588v387H0Z"/>
    </clipPath>
    <clipPath clipPathUnits="userSpaceOnUse" id="Q">
      <path d="M0 1h588v387H0Z"/>
    </clipPath>
    <clipPath clipPathUnits="userSpaceOnUse" id="R">
      <path d="M0 1h588v387H0Z"/>
    </clipPath>
    <clipPath clipPathUnits="userSpaceOnUse" id="S">
      <path d="M0 1h588v387H0Z"/>
    </clipPath>
    <clipPath clipPathUnits="userSpaceOnUse" id="T">
      <path d="M0 1h588v387H0Z"/>
    </clipPath>
    <clipPath clipPathUnits="userSpaceOnUse" id="U">
      <path d="M0 1h588v387H0Z"/>
    </clipPath>
    <clipPath clipPathUnits="userSpaceOnUse" id="V">
      <path d="M0 1h588v387H0Z"/>
    </clipPath>
    <clipPath clipPathUnits="userSpaceOnUse" id="W">
      <path d="M0 1h588v387H0Z"/>
    </clipPath>
    <clipPath clipPathUnits="userSpaceOnUse" id="X">
      <path d="M0 1h588v387H0Z"/>
    </clipPath>
    <clipPath clipPathUnits="userSpaceOnUse" id="Y">
      <path d="M0 1h588v387H0Z"/>
    </clipPath>
    <clipPath clipPathUnits="userSpaceOnUse" id="Z">
      <path d="M0 1h588v387H0Z"/>
    </clipPath>
    <clipPath clipPathUnits="userSpaceOnUse" id="aa">
      <path d="M0 1h588v387H0Z"/>
    </clipPath>
    <clipPath clipPathUnits="userSpaceOnUse" id="ab">
      <path d="M0 1h588v387H0Z"/>
    </clipPath>
    <clipPath clipPathUnits="userSpaceOnUse" id="ac">
      <path d="M0 1h588v387H0Z"/>
    </clipPath>
    <clipPath clipPathUnits="userSpaceOnUse" id="ad">
      <path d="M0 1h588v387H0Z"/>
    </clipPath>
    <clipPath clipPathUnits="userSpaceOnUse" id="ae">
      <path d="M0 1h588v387H0Z"/>
    </clipPath>
    <clipPath clipPathUnits="userSpaceOnUse" id="af">
      <path d="M0 1h588v387H0Z"/>
    </clipPath>
    <clipPath clipPathUnits="userSpaceOnUse" id="ag">
      <path d="M0 1h588v387H0Z"/>
    </clipPath>
    <clipPath clipPathUnits="userSpaceOnUse" id="ah">
      <path d="M0 1h588v387H0Z"/>
    </clipPath>
    <clipPath clipPathUnits="userSpaceOnUse" id="ai">
      <path d="M0 1h588v387H0Z"/>
    </clipPath>
    <clipPath clipPathUnits="userSpaceOnUse" id="aj">
      <path d="M0 1h588v387H0Z"/>
    </clipPath>
    <clipPath clipPathUnits="userSpaceOnUse" id="ak">
      <path d="M0 1h588v387H0Z"/>
    </clipPath>
    <clipPath clipPathUnits="userSpaceOnUse" id="al">
      <path d="M0 1h588v387H0Z"/>
    </clipPath>
    <clipPath clipPathUnits="userSpaceOnUse" id="am">
      <path d="M0 1h588v387H0Z"/>
    </clipPath>
    <clipPath clipPathUnits="userSpaceOnUse" id="an">
      <path d="M0 1h588v387H0Z"/>
    </clipPath>
    <clipPath clipPathUnits="userSpaceOnUse" id="ao">
      <path d="M0 1h588v387H0Z"/>
    </clipPath>
    <clipPath clipPathUnits="userSpaceOnUse" id="ap">
      <path d="M0 1h588v387H0Z"/>
    </clipPath>
    <clipPath clipPathUnits="userSpaceOnUse" id="aq">
      <path d="M0 1h588v387H0Z"/>
    </clipPath>
    <clipPath clipPathUnits="userSpaceOnUse" id="ar">
      <path d="M0 1h588v387H0Z"/>
    </clipPath>
  </defs>
  <g transform="matrix(1.3333333 0 0 -1.3333333 0 517.333)">
    <g/>
    <g clip-path="url(#a)">
      <path d="M0 388h589V0H0Z" style="fill:#ffffff;fill-opacity:1;fill-rule:nonzero;stroke:none"/>
    </g>
    <path d="M1 388h587V0H1Z" style="fill:#ffffff;fill-opacity:1;fill-rule:nonzero;stroke:none"/>
    <g clip-path="url(#b)">
      <path d="M0 3365500h6159500M0 3086100h6159500M0 2806700h6159500M0 2527300h6159500M0 2235200h6159500M0 1955800h6159500M0 1676400h6159500M0 1397000h6159500M0 1117600h6159500M0 838200h6159500M0 558800h6159500M0 279400h6159500M0 0h6159500" style="fill:none;stroke:#d9d9d9;stroke-width:9525;stroke-linecap:butt;stroke-linejoin:round;stroke-miterlimit:10;stroke-dasharray:none;stroke-opacity:1" transform="matrix(.00007874 0 0 -.00007874 74.5 351.5)"/>
    </g>
    <g clip-path="url(#c)">
      <path d="M876300 0v3644900M1752600 0v3644900M2641600 0v3644900M3517900 0v3644900M4394200 0v3644900M5270500 0v3644900M6159500 0v3644900" style="fill:none;stroke:#d9d9d9;stroke-width:9525;stroke-linecap:butt;stroke-linejoin:round;stroke-miterlimit:10;stroke-dasharray:none;stroke-opacity:1" transform="matrix(.00007874 0 0 -.00007874 74.5 351.5)"/>
    </g>
    <g clip-path="url(#d)">
      <path d="m0 0 1 3644900" style="fill:none;stroke:#bfbfbf;stroke-width:9525;stroke-linecap:butt;stroke-linejoin:round;stroke-miterlimit:10;stroke-dasharray:none;stroke-opacity:1" transform="translate(74.5 64.5) scale(.00007874)"/>
    </g>
    <g clip-path="url(#e)">
      <path d="m0 0 6159500 1" style="fill:none;stroke:#bfbfbf;stroke-width:9525;stroke-linecap:butt;stroke-linejoin:round;stroke-miterlimit:10;stroke-dasharray:none;stroke-opacity:1" transform="matrix(.00007874 0 0 -.00007874 74.5 64.5)"/>
    </g>
    <g clip-path="url(#f)">
      <path d="M25400 368300v355600m0-355600V0M0 723900h50800M0 0h50800" style="fill:none;stroke:#595959;stroke-width:9525;stroke-linecap:butt;stroke-linejoin:round;stroke-miterlimit:10;stroke-dasharray:none;stroke-opacity:1" transform="matrix(.00007874 0 0 -.00007874 72.5 330.5)"/>
    </g>
    <g clip-path="url(#g)">
      <path d="M25400 355600v355600m0-355600V0M0 711200h50800M0 0h50800" style="fill:none;stroke:#595959;stroke-width:9525;stroke-linecap:butt;stroke-linejoin:round;stroke-miterlimit:10;stroke-dasharray:none;stroke-opacity:1" transform="matrix(.00007874 0 0 -.00007874 141.5 312.5)"/>
    </g>
    <g clip-path="url(#h)">
      <path d="M25400 342900v342900m0-342900V0M0 685800h63500M0 0h63500" style="fill:none;stroke:#595959;stroke-width:9525;stroke-linecap:butt;stroke-linejoin:round;stroke-miterlimit:10;stroke-dasharray:none;stroke-opacity:1" transform="matrix(.00007874 0 0 -.00007874 210.5 286.5)"/>
    </g>
    <g clip-path="url(#i)">
      <path d="M38100 330200v330200m0-330200V0M0 660400h63500M0 0h63500" style="fill:none;stroke:#595959;stroke-width:9525;stroke-linecap:butt;stroke-linejoin:round;stroke-miterlimit:10;stroke-dasharray:none;stroke-opacity:1" transform="matrix(.00007874 0 0 -.00007874 279.5 277.5)"/>
    </g>
    <g clip-path="url(#j)">
      <path d="M25400 330200v330200m0-330200V0M0 660400h50800M0 0h50800" style="fill:none;stroke:#595959;stroke-width:9525;stroke-linecap:butt;stroke-linejoin:round;stroke-miterlimit:10;stroke-dasharray:none;stroke-opacity:1" transform="matrix(.00007874 0 0 -.00007874 349.5 239.5)"/>
    </g>
    <g clip-path="url(#k)">
      <path d="M25400 330200v330200m0-330200V0M0 660400h50800M0 0h50800" style="fill:none;stroke:#595959;stroke-width:9525;stroke-linecap:butt;stroke-linejoin:round;stroke-miterlimit:10;stroke-dasharray:none;stroke-opacity:1" transform="matrix(.00007874 0 0 -.00007874 418.5 231.5)"/>
    </g>
    <g clip-path="url(#l)">
      <path d="M25400 317500v317500m0-317500V0M0 635000h63500M0 0h63500" style="fill:none;stroke:#595959;stroke-width:9525;stroke-linecap:butt;stroke-linejoin:round;stroke-miterlimit:10;stroke-dasharray:none;stroke-opacity:1" transform="matrix(.00007874 0 0 -.00007874 487.5 168.5)"/>
    </g>
    <g clip-path="url(#m)">
      <path d="M0 25400h12700M0 0v50800M12700 0v50800" style="fill:none;stroke:#595959;stroke-width:9525;stroke-linecap:butt;stroke-linejoin:round;stroke-miterlimit:10;stroke-dasharray:none;stroke-opacity:1" transform="matrix(.00007874 0 0 -.00007874 74.5 303.5)"/>
    </g>
    <g clip-path="url(#n)">
      <path d="M0 25400h12700M0 0v50800M12700 0v50800" style="fill:none;stroke:#595959;stroke-width:9525;stroke-linecap:butt;stroke-linejoin:round;stroke-miterlimit:10;stroke-dasharray:none;stroke-opacity:1" transform="matrix(.00007874 0 0 -.00007874 143.5 286.5)"/>
    </g>
    <g clip-path="url(#o)">
      <path d="M0 25400h12700M0 0v50800M12700 0v50800" style="fill:none;stroke:#595959;stroke-width:9525;stroke-linecap:butt;stroke-linejoin:round;stroke-miterlimit:10;stroke-dasharray:none;stroke-opacity:1" transform="matrix(.00007874 0 0 -.00007874 212.5 261.5)"/>
    </g>
    <g clip-path="url(#p)">
      <path d="M12700 25400H0M0 0v50800M12700 0v50800" style="fill:none;stroke:#595959;stroke-width:9525;stroke-linecap:butt;stroke-linejoin:round;stroke-miterlimit:10;stroke-dasharray:none;stroke-opacity:1" transform="matrix(.00007874 0 0 -.00007874 281.5 253.5)"/>
    </g>
    <g clip-path="url(#q)">
      <path d="M0 25400h12700M0 0v50800M12700 0v50800" style="fill:none;stroke:#595959;stroke-width:9525;stroke-linecap:butt;stroke-linejoin:round;stroke-miterlimit:10;stroke-dasharray:none;stroke-opacity:1" transform="matrix(.00007874 0 0 -.00007874 351.5 215.5)"/>
    </g>
    <g clip-path="url(#r)">
      <path d="M0 25400h12700M0 0v50800M12700 0v50800" style="fill:none;stroke:#595959;stroke-width:9525;stroke-linecap:butt;stroke-linejoin:round;stroke-miterlimit:10;stroke-dasharray:none;stroke-opacity:1" transform="matrix(.00007874 0 0 -.00007874 420.5 207.5)"/>
    </g>
    <g clip-path="url(#s)">
      <path d="M0 38100h12700M0 0v63500M12700 0v63500" style="fill:none;stroke:#595959;stroke-width:9525;stroke-linecap:butt;stroke-linejoin:round;stroke-miterlimit:10;stroke-dasharray:none;stroke-opacity:1" transform="matrix(.00007874 0 0 -.00007874 489.5 146.5)"/>
    </g>
    <g clip-path="url(#t)">
      <path d="M75.283 302.074a2 2 0 1 0-4 0 2 2 0 0 0 4 0z" style="fill:#4285f4;fill-opacity:1;fill-rule:nonzero;stroke:none"/>
      <path d="M57150 31750c0 14028.03-11371.97 25400-25400 25400S6350 45778.03 6350 31750 17721.97 6350 31750 6350s25400 11371.97 25400 25400z" style="fill:none;stroke:#4285f4;stroke-width:9525;stroke-linecap:butt;stroke-linejoin:round;stroke-miterlimit:10;stroke-dasharray:none;stroke-opacity:1" transform="matrix(.00007874 0 0 -.00007874 70.783 304.574)"/>
      <path d="M144.283 285.074a2 2 0 1 0-4 0 2 2 0 0 0 4 0z" style="fill:#4285f4;fill-opacity:1;fill-rule:nonzero;stroke:none"/>
      <path d="M57150 31750c0 14028.03-11371.97 25400-25400 25400S6350 45778.03 6350 31750 17721.97 6350 31750 6350s25400 11371.97 25400 25400z" style="fill:none;stroke:#4285f4;stroke-width:9525;stroke-linecap:butt;stroke-linejoin:round;stroke-miterlimit:10;stroke-dasharray:none;stroke-opacity:1" transform="matrix(.00007874 0 0 -.00007874 139.783 287.574)"/>
      <path d="M213.283 260.074a2 2 0 1 0-4 0 2 2 0 0 0 4 0z" style="fill:#4285f4;fill-opacity:1;fill-rule:nonzero;stroke:none"/>
      <path d="M57150 31750c0 14028.03-11371.97 25400-25400 25400S6350 45778.03 6350 31750 17721.97 6350 31750 6350s25400 11371.97 25400 25400z" style="fill:none;stroke:#4285f4;stroke-width:9525;stroke-linecap:butt;stroke-linejoin:round;stroke-miterlimit:10;stroke-dasharray:none;stroke-opacity:1" transform="matrix(.00007874 0 0 -.00007874 208.783 262.574)"/>
      <path d="M283.283 252.073a2 2 0 1 0-4 0 2 2 0 0 0 4 0z" style="fill:#4285f4;fill-opacity:1;fill-rule:nonzero;stroke:none"/>
      <path d="M57150 31750c0 14028.03-11371.97 25400-25400 25400S6350 45778.03 6350 31750 17721.97 6350 31750 6350s25400 11371.97 25400 25400z" style="fill:none;stroke:#4285f4;stroke-width:9525;stroke-linecap:butt;stroke-linejoin:round;stroke-miterlimit:10;stroke-dasharray:none;stroke-opacity:1" transform="matrix(.00007874 0 0 -.00007874 278.783 254.573)"/>
      <path d="M352.283 214.073a2 2 0 1 0-4 0 2 2 0 0 0 4 0z" style="fill:#4285f4;fill-opacity:1;fill-rule:nonzero;stroke:none"/>
      <path d="M57150 31750c0 14028.03-11371.97 25400-25400 25400S6350 45778.03 6350 31750 17721.97 6350 31750 6350s25400 11371.97 25400 25400z" style="fill:none;stroke:#4285f4;stroke-width:9525;stroke-linecap:butt;stroke-linejoin:round;stroke-miterlimit:10;stroke-dasharray:none;stroke-opacity:1" transform="matrix(.00007874 0 0 -.00007874 347.783 216.573)"/>
      <path d="M421.283 206.073a2 2 0 1 0-4 0 2 2 0 0 0 4 0z" style="fill:#4285f4;fill-opacity:1;fill-rule:nonzero;stroke:none"/>
      <path d="M57150 31750c0 14028.03-11371.97 25400-25400 25400S6350 45778.03 6350 31750 17721.97 6350 31750 6350s25400 11371.97 25400 25400z" style="fill:none;stroke:#4285f4;stroke-width:9525;stroke-linecap:butt;stroke-linejoin:round;stroke-miterlimit:10;stroke-dasharray:none;stroke-opacity:1" transform="matrix(.00007874 0 0 -.00007874 416.783 208.573)"/>
      <path d="M490.283 144.073a2 2 0 1 0-4 0 2 2 0 0 0 4 0z" style="fill:#4285f4;fill-opacity:1;fill-rule:nonzero;stroke:none"/>
      <path d="M57150 31750c0 14028.03-11371.97 25400-25400 25400S6350 45778.03 6350 31750 17721.97 6350 31750 6350s25400 11371.97 25400 25400z" style="fill:none;stroke:#4285f4;stroke-width:9525;stroke-linecap:butt;stroke-linejoin:round;stroke-miterlimit:10;stroke-dasharray:none;stroke-opacity:1" transform="matrix(.00007874 0 0 -.00007874 485.783 146.573)"/>
    </g>
    <g clip-path="url(#u)">
      <path d="M74.247 310.708h.001a.75.75 0 1 0-.493-1.417h-.002a.75.75 0 1 0 .494 1.417zm2.834-.988h.002a.75.75 0 1 0-.494-1.417h-.002a.75.75 0 1 0 .494 1.417zm2.834-.988h.002a.75.75 0 1 0-.494-1.417l-.001.001a.75.75 0 1 0 .493 1.416zm2.835-.988h.001a.75.75 0 1 0-.494-1.416h-.001a.75.75 0 1 0 .494 1.416zm2.834-.987h.001a.75.75 0 0 0-.493-1.417h-.002a.75.75 0 1 0 .494 1.417zm2.834-.988h.002a.75.75 0 0 0-.494-1.417h-.002a.75.75 0 1 0 .494 1.417zm2.835-.988h.001a.75.75 0 1 0-.494-1.417h-.001a.75.75 0 0 0 .494 1.417zm2.834-.988h.001a.75.75 0 1 0-.494-1.417h-.001a.75.75 0 0 0 .494 1.417zm2.834-.988h.001a.75.75 0 1 0-.493-1.417h-.002a.75.75 0 0 0 .494 1.417zm2.834-.988h.002a.75.75 0 1 0-.494-1.417h-.001a.75.75 0 0 0 .493 1.417zm2.835-.988a.75.75 0 0 0-.493-1.417h-.001a.75.75 0 0 0 .493 1.417zm2.833-.988h.002a.75.75 0 0 0-.494-1.417.75.75 0 1 0 .493 1.417zm2.835-.988a.75.75 0 1 0-.492-1.417h-.001a.75.75 0 0 0 .493 1.417zm2.834-.987h.001a.75.75 0 0 0-.493-1.418h-.001a.75.75 0 1 0 .493 1.418zm2.834-.988h.002a.75.75 0 1 0-.493-1.418l-.001.001a.75.75 0 0 0 .493 1.417zm2.834-.988h.001a.75.75 0 1 0-.493-1.417.75.75 0 0 0 .492 1.417zm2.835-.988a.75.75 0 0 0-.492-1.417h-.001a.75.75 0 1 0 .493 1.417zm2.834-.988h.001a.75.75 0 1 0-.493-1.417h-.001a.75.75 0 0 0 .493 1.417zm2.834-.988h.001a.75.75 0 1 0-.493-1.417.75.75 0 0 0 .492 1.417zm2.835-.988a.75.75 0 1 0-.493-1.417h-.001a.75.75 0 1 0 .493 1.417zm2.834-.988a.75.75 0 1 0-.492-1.417h-.001a.75.75 0 0 0 .493 1.417zm2.835-.988a.75.75 0 1 0-.494-1.417.75.75 0 1 0 .494 1.417zm2.834-.988a.75.75 0 1 0-.493-1.417l-.001.001a.75.75 0 1 0 .494 1.416zm2.834-.988h.001a.75.75 0 1 0-.494-1.416h-.001a.75.75 0 0 0 .494 1.416zm2.834-.988h.001a.75.75 0 1 0-.494-1.416.75.75 0 1 0 .493 1.416zm2.835-.988a.75.75 0 1 0-.493-1.416h-.001a.75.75 0 1 0 .494 1.416zm2.834-.987a.75.75 0 0 0-.493-1.417h-.001a.75.75 0 1 0 .494 1.417zm2.834-.988h.001a.75.75 0 1 0-.494-1.417h-.001a.75.75 0 1 0 .494 1.417zm2.835-.988a.75.75 0 1 0-.494-1.417.75.75 0 1 0 .494 1.417zm2.834-.988a.75.75 0 1 0-.493-1.417h-.001a.75.75 0 1 0 .494 1.417zm2.834-.988h.001a.75.75 0 1 0-.494-1.417h-.001a.75.75 0 1 0 .494 1.417zm2.834-.988h.001a.75.75 0 1 0-.494-1.417.75.75 0 0 0 .493 1.417zm2.835-.988a.75.75 0 1 0-.494-1.417.75.75 0 0 0 .494 1.417zm2.834-.988a.75.75 0 1 0-.493-1.416h-.001a.75.75 0 0 0 .494 1.416zm2.834-.988h.001a.75.75 0 0 0-.494-1.416h-.001a.75.75 0 0 0 .494 1.416zm2.834-.988h.001a.75.75 0 0 0-.494-1.416.75.75 0 0 0 .493 1.416zm2.835-.987a.75.75 0 0 0-.494-1.417.75.75 0 0 0 .494 1.417zm2.834-.988a.75.75 0 0 0-.493-1.417h-.001a.75.75 0 0 0 .494 1.417zm2.834-.988h.001a.75.75 0 0 0-.494-1.417h-.001a.75.75 0 0 0 .494 1.417zm2.834-.988h.001a.75.75 0 0 0-.494-1.417h-.002a.75.75 0 0 0 .494 1.417zm2.835-.988a.75.75 0 0 0-.494-1.417.75.75 0 0 0 .494 1.417zm2.834-.988a.75.75 0 0 0-.493-1.417h-.001a.75.75 0 0 0 .494 1.417zm2.833-.988h.001a.75.75 0 0 0-.492-1.417h-.001a.75.75 0 0 0 .492 1.417zm2.834-.987h.001a.75.75 0 1 0-.492-1.418.75.75 0 1 0 .491 1.418zm2.835-.988a.75.75 0 0 0-.491-1.418h-.001a.75.75 0 0 0 .492 1.418zm2.834-.988a.75.75 0 1 0-.491-1.418h-.001a.75.75 0 1 0 .492 1.418zm2.834-.988h.001a.75.75 0 1 0-.492-1.418.75.75 0 1 0 .491 1.418zm2.834-.988h.001a.75.75 0 1 0-.492-1.418v.001a.75.75 0 0 0 .491 1.417zm2.835-.988a.75.75 0 1 0-.491-1.417h-.001a.75.75 0 1 0 .492 1.417zm2.834-.988a.75.75 0 0 0-.491-1.417h-.001a.75.75 0 1 0 .492 1.417zm2.834-.988h.001a.75.75 0 1 0-.492-1.417.75.75 0 0 0 .491 1.417zm2.834-.988h.001a.75.75 0 1 0-.492-1.417.75.75 0 1 0 .491 1.417zm2.835-.988a.75.75 0 0 0-.491-1.417h-.001a.75.75 0 0 0 .492 1.417zm2.834-.987a.75.75 0 1 0-.491-1.418h-.001a.75.75 0 1 0 .492 1.418zm2.834-.988h.001a.75.75 0 1 0-.492-1.418.75.75 0 1 0 .491 1.418zm2.834-.988h.001a.75.75 0 0 0-.492-1.418.75.75 0 0 0 .491 1.418zm2.835-.988a.75.75 0 1 0-.491-1.418h-.001a.75.75 0 1 0 .492 1.418zm2.834-.988h.001a.75.75 0 0 0-.492-1.418l-.001.001a.75.75 0 1 0 .492 1.417zm2.834-.988h.001a.75.75 0 1 0-.492-1.417.75.75 0 1 0 .491 1.417zm2.835-.988a.75.75 0 1 0-.491-1.417h-.001a.75.75 0 1 0 .492 1.417zm2.834-.988a.75.75 0 0 0-.491-1.417h-.002a.75.75 0 1 0 .492 1.417zm2.834-.988h.001a.75.75 0 1 0-.492-1.417h-.001a.75.75 0 1 0 .492 1.417zm2.834-.988h.001a.75.75 0 0 0-.492-1.417.75.75 0 1 0 .491 1.417zm2.835-.987a.75.75 0 1 0-.491-1.418h-.001a.75.75 0 1 0 .492 1.418zm2.834-.988a.75.75 0 0 0-.491-1.418h-.001a.75.75 0 1 0 .492 1.418zm2.834-.988h.001a.75.75 0 0 0-.492-1.418h-.001a.75.75 0 0 0 .492 1.418zm2.834-.988h.001a.75.75 0 0 0-.492-1.418.75.75 0 0 0 .491 1.418zm2.835-.988a.75.75 0 0 0-.491-1.418h-.001a.75.75 0 0 0 .492 1.418zm2.834-.988a.75.75 0 0 0-.491-1.418l-.001.001a.75.75 0 0 0 .492 1.417zm2.834-.988h.001a.75.75 0 0 0-.492-1.417.75.75 0 1 0 .491 1.417zm2.834-.988h.001a.75.75 0 1 0-.492-1.417.75.75 0 1 0 .491 1.417zm2.835-.988a.75.75 0 0 0-.491-1.417h-.001a.75.75 0 1 0 .492 1.417zm2.834-.988h.002a.75.75 0 1 0-.492-1.417h-.001a.75.75 0 0 0 .492 1.417zm2.834-.988h.001a.75.75 0 1 0-.492-1.417.75.75 0 1 0 .491 1.417zm2.834-.987h.001a.75.75 0 0 0-.492-1.418.75.75 0 1 0 .491 1.418zm2.835-.988a.75.75 0 1 0-.491-1.418h-.001a.75.75 0 1 0 .492 1.418zm2.834-.988a.75.75 0 0 0-.491-1.418h-.001a.75.75 0 1 0 .492 1.418zm2.834-.988h.001a.75.75 0 1 0-.492-1.418.75.75 0 1 0 .491 1.418zm2.834-.988h.001a.75.75 0 1 0-.492-1.418v.001a.75.75 0 1 0 .491 1.417zm2.835-.988a.75.75 0 1 0-.491-1.417h-.001a.75.75 0 1 0 .492 1.417zm2.834-.988a.75.75 0 1 0-.491-1.417h-.001a.75.75 0 1 0 .492 1.417zm2.834-.988h.001a.75.75 0 0 0-.492-1.417.75.75 0 1 0 .491 1.417zm2.834-.988h.001a.75.75 0 1 0-.492-1.417.75.75 0 1 0 .491 1.417zm2.835-.988a.75.75 0 1 0-.491-1.417h-.001a.75.75 0 1 0 .492 1.417zm2.834-.987a.75.75 0 1 0-.491-1.418h-.001a.75.75 0 1 0 .492 1.418zm2.834-.988h.001a.75.75 0 1 0-.492-1.418.75.75 0 1 0 .491 1.418zm2.834-.988h.002a.75.75 0 0 0-.492-1.418.75.75 0 0 0 .491 1.418zm2.835-.988a.75.75 0 1 0-.491-1.418h-.001a.75.75 0 1 0 .492 1.418zm2.834-.988h.001a.75.75 0 1 0-.492-1.418l-.001.001a.75.75 0 1 0 .492 1.417zm2.834-.988h.001a.75.75 0 1 0-.492-1.417.75.75 0 1 0 .491 1.417zm2.835-.988a.75.75 0 1 0-.491-1.417h-.001a.75.75 0 1 0 .492 1.417zm2.834-.988a.75.75 0 1 0-.491-1.417h-.001a.75.75 0 0 0 .492 1.417zm2.834-.988h.001a.75.75 0 1 0-.492-1.417h-.001a.75.75 0 1 0 .492 1.417zm2.834-.988h.002a.75.75 0 0 0-.492-1.417h-.002a.75.75 0 0 0 .492 1.417zm2.835-.987a.75.75 0 0 0-.491-1.418h-.001a.75.75 0 1 0 .492 1.418zm2.834-.988a.75.75 0 0 0-.491-1.418h-.001a.75.75 0 0 0 .492 1.418zm2.834-.988h.001a.75.75 0 0 0-.492-1.418h-.001a.75.75 0 0 0 .492 1.418zm2.834-.988h.001a.75.75 0 0 0-.492-1.418.75.75 0 0 0 .491 1.418zm2.835-.988a.75.75 0 0 0-.491-1.418h-.001a.75.75 0 0 0 .492 1.418zm2.834-.988a.75.75 0 1 0-.491-1.418l-.001.001a.75.75 0 0 0 .492 1.417zm2.834-.988h.001a.75.75 0 1 0-.492-1.417h-.001a.75.75 0 0 0 .492 1.417zm2.834-.988h.001a.75.75 0 1 0-.492-1.417.75.75 0 1 0 .491 1.417zm2.835-.988a.75.75 0 0 0-.491-1.417h-.002a.75.75 0 0 0 .492 1.417zm2.834-.988a.75.75 0 1 0-.491-1.417h-.001a.75.75 0 0 0 .492 1.417zm2.834-.988h.001a.75.75 0 1 0-.492-1.417.75.75 0 1 0 .491 1.417zm2.834-.987h.001a.75.75 0 1 0-.492-1.418.75.75 0 0 0 .491 1.418zm2.835-.988a.75.75 0 1 0-.491-1.418h-.001a.75.75 0 1 0 .492 1.418zm2.834-.988h.002a.75.75 0 1 0-.492-1.418h-.001a.75.75 0 0 0 .492 1.418zm2.834-.988h.001a.75.75 0 1 0-.492-1.418.75.75 0 1 0 .491 1.418zm2.834-.988h.001a.75.75 0 0 0-.492-1.418v.001a.75.75 0 1 0 .491 1.417zm2.835-.988a.75.75 0 1 0-.491-1.417h-.001a.75.75 0 0 0 .492 1.417zm2.834-.988a.75.75 0 1 0-.491-1.417h-.001a.75.75 0 1 0 .492 1.417zm2.834-.988h.001a.75.75 0 0 0-.492-1.417h-.001a.75.75 0 0 0 .492 1.417zm2.834-.988h.001a.75.75 0 1 0-.492-1.417.75.75 0 1 0 .491 1.417zm2.835-.988a.75.75 0 0 0-.491-1.417h-.001a.75.75 0 0 0 .492 1.417zm2.834-.987a.75.75 0 1 0-.491-1.418h-.001a.75.75 0 1 0 .492 1.418zm2.834-.988h.001a.75.75 0 0 0-.492-1.418.75.75 0 1 0 .491 1.418zm2.835-.988a.75.75 0 0 0-.492-1.418.75.75 0 1 0 .492 1.418zm2.834-.988a.75.75 0 1 0-.491-1.418h-.001a.75.75 0 1 0 .492 1.418zm2.834-.988h.001a.75.75 0 0 0-.492-1.418l-.001.001a.75.75 0 1 0 .492 1.417zm2.834-.988h.001a.75.75 0 1 0-.492-1.417.75.75 0 1 0 .491 1.417zm2.835-.988a.75.75 0 0 0-.492-1.417.75.75 0 1 0 .492 1.417zm2.834-.988a.75.75 0 0 0-.491-1.417h-.001a.75.75 0 1 0 .492 1.417zm2.834-.988h.001a.75.75 0 0 0-.492-1.417h-.001a.75.75 0 0 0 .492 1.417zm2.834-.988h.001a.75.75 0 0 0-.492-1.417.75.75 0 0 0 .491 1.417zm2.835-.988a.75.75 0 0 0-.492-1.417.75.75 0 0 0 .492 1.417zm2.834-.987a.75.75 0 0 0-.491-1.418h-.001a.75.75 0 0 0 .492 1.418zm2.834-.988h.001a.75.75 0 0 0-.492-1.418h-.001a.75.75 0 0 0 .492 1.418zm2.834-.988h.001a.75.75 0 1 0-.492-1.418.75.75 0 1 0 .491 1.418zm2.835-.988a.75.75 0 0 0-.492-1.418.75.75 0 0 0 .492 1.418zm2.834-.988a.75.75 0 1 0-.491-1.418l-.001.001a.75.75 0 0 0 .492 1.417zm2.834-.988h.001a.75.75 0 0 0-.492-1.417h-.002a.75.75 0 1 0 .492 1.417zm2.834-.988h.002a.75.75 0 0 0-.492-1.417.75.75 0 0 0 .491 1.417zm2.835-.988a.75.75 0 0 0-.491-1.417h-.002a.75.75 0 0 0 .492 1.417zm2.834-.988h.002a.75.75 0 1 0-.492-1.417h-.001a.75.75 0 1 0 .492 1.417zm2.834-.988h.001a.75.75 0 0 0-.492-1.417h-.001a.75.75 0 0 0 .492 1.417zm2.834-.987h.001a.75.75 0 0 0-.492-1.418h-.002a.75.75 0 0 0 .492 1.418zm2.835-.988a.75.75 0 1 0-.491-1.418h-.001a.75.75 0 0 0 .492 1.418zm2.834-.988a.75.75 0 1 0-.491-1.418h-.001a.75.75 0 1 0 .492 1.418zm2.834-.988h.001a.75.75 0 1 0-.492-1.418.75.75 0 1 0 .491 1.418zm2.834-.988h.001a.75.75 0 1 0-.492-1.418v.001a.75.75 0 0 0 .491 1.417zm2.835-.988a.75.75 0 1 0-.491-1.417h-.001a.75.75 0 0 0 .492 1.417zm2.834-.988a.75.75 0 1 0-.491-1.417h-.001a.75.75 0 1 0 .492 1.417zm2.834-.988h.001a.75.75 0 1 0-.492-1.417.75.75 0 1 0 .491 1.417zm2.835-.988a.75.75 0 1 0-.492-1.417.75.75 0 0 0 .492 1.417zm2.834-.988a.75.75 0 1 0-.491-1.417h-.001a.75.75 0 0 0 .492 1.417zm2.834-.987h.001a.75.75 0 1 0-.492-1.418h-.001a.75.75 0 1 0 .492 1.418z" style="fill:#4285f4;fill-opacity:1;fill-rule:nonzero;stroke:none"/>
    </g>
    <g clip-path="url(#v)">
      <path d="M74.2 284.723h.001a.75.75 0 0 0-.4-1.446.75.75 0 0 0 .399 1.446zm2.893-.8h.001a.75.75 0 1 0-.4-1.446h-.001a.75.75 0 1 0 .4 1.446zm2.893-.8h.001a.75.75 0 0 0-.4-1.446.75.75 0 0 0 .399 1.446zm2.893-.8h.001a.75.75 0 1 0-.4-1.446.75.75 0 1 0 .399 1.447zm2.893-.8h.001a.75.75 0 1 0-.4-1.445.75.75 0 0 0 .399 1.446zm2.893-.799h.001a.75.75 0 0 0-.4-1.446.75.75 0 1 0 .399 1.446zm2.893-.8h.001a.75.75 0 1 0-.4-1.446.75.75 0 0 0 .399 1.446zm2.893-.8h.001a.75.75 0 1 0-.4-1.445h-.001a.75.75 0 1 0 .4 1.446zm2.893-.8h.001a.75.75 0 1 0-.4-1.445.75.75 0 0 0 .399 1.446zm2.893-.799h.002a.75.75 0 0 0-.4-1.446h-.001a.75.75 0 1 0 .4 1.446zm2.893-.8h.002a.75.75 0 1 0-.4-1.446h-.002a.75.75 0 0 0 .4 1.446zm2.893-.8a.75.75 0 0 0-.399-1.445h-.002a.75.75 0 0 0 .4 1.446zm2.893-.799a.75.75 0 0 0-.399-1.446h-.002a.75.75 0 0 0 .4 1.446zm2.893-.8a.75.75 0 1 0-.399-1.446h-.002a.75.75 0 0 0 .4 1.446zm2.893-.8a.75.75 0 0 0-.399-1.446h-.002a.75.75 0 1 0 .4 1.447zm2.893-.8a.75.75 0 1 0-.399-1.445h-.002a.75.75 0 0 0 .4 1.446zm2.893-.799a.75.75 0 0 0-.399-1.446h-.002a.75.75 0 1 0 .4 1.446zm2.893-.8a.75.75 0 1 0-.399-1.446.75.75 0 0 0 .399 1.446zm2.893-.8a.75.75 0 1 0-.399-1.446.75.75 0 1 0 .399 1.447zm2.893-.8a.75.75 0 1 0-.399-1.445.75.75 0 1 0 .399 1.446zm2.893-.799h.002a.75.75 0 0 0-.4-1.446h-.001a.75.75 0 1 0 .4 1.446zm2.893-.8h.002a.75.75 0 1 0-.4-1.446h-.001a.75.75 0 0 0 .4 1.446zm2.893-.8h.002a.75.75 0 0 0-.4-1.446h-.001a.75.75 0 1 0 .4 1.447zm2.893-.8h.002a.75.75 0 0 0-.4-1.445h-.001a.75.75 0 0 0 .4 1.446zm2.893-.799h.002a.75.75 0 0 0-.4-1.446h-.001a.75.75 0 0 0 .4 1.446zm2.893-.8h.002a.75.75 0 0 0-.4-1.446h-.001a.75.75 0 1 0 .4 1.446zm2.892-.8h.001a.75.75 0 0 0-.398-1.446h-.002a.75.75 0 1 0 .398 1.447zm2.893-.8h.001a.75.75 0 1 0-.399-1.446.75.75 0 0 0 .398 1.447zm2.893-.799h.001a.75.75 0 0 0-.399-1.446.75.75 0 1 0 .398 1.446zm2.893-.8h.001a.75.75 0 1 0-.399-1.446.75.75 0 1 0 .398 1.446zm2.893-.8h.001a.75.75 0 1 0-.398-1.446h-.001a.75.75 0 1 0 .398 1.447zm2.893-.799h.001a.75.75 0 0 0-.398-1.447h-.001a.75.75 0 0 0 .398 1.447zm2.893-.8h.001a.75.75 0 1 0-.398-1.446h-.001a.75.75 0 1 0 .398 1.446zm2.893-.8h.001a.75.75 0 0 0-.398-1.446h-.001a.75.75 0 0 0 .398 1.447zm2.893-.8h.001a.75.75 0 1 0-.398-1.446h-.001a.75.75 0 0 0 .398 1.447zm2.893-.799h.001a.75.75 0 0 0-.398-1.446h-.001a.75.75 0 1 0 .398 1.446zm2.893-.8h.001a.75.75 0 1 0-.398-1.446h-.001a.75.75 0 0 0 .398 1.446zm2.893-.8a.75.75 0 1 0-.398-1.446.75.75 0 1 0 .398 1.447zm2.893-.8a.75.75 0 0 0-.398-1.446.75.75 0 0 0 .398 1.447zm2.893-.799a.75.75 0 0 0-.398-1.446.75.75 0 1 0 .398 1.446zm2.893-.8a.75.75 0 0 0-.398-1.446.75.75 0 0 0 .398 1.446zm2.893-.8a.75.75 0 0 0-.398-1.446.75.75 0 0 0 .398 1.447zm2.893-.8a.75.75 0 0 0-.398-1.446.75.75 0 0 0 .398 1.447zm2.893-.799a.75.75 0 1 0-.398-1.446.75.75 0 1 0 .398 1.446zm2.893-.8a.75.75 0 1 0-.398-1.446.75.75 0 1 0 .398 1.446zm2.893-.8a.75.75 0 1 0-.397-1.446h-.001a.75.75 0 1 0 .398 1.447zm2.893-.8a.75.75 0 0 0-.397-1.446h-.001a.75.75 0 1 0 .398 1.447zm2.893-.799a.75.75 0 1 0-.397-1.446h-.001a.75.75 0 0 0 .398 1.446zm2.893-.8a.75.75 0 0 0-.397-1.446h-.001a.75.75 0 0 0 .398 1.446zm2.893-.8a.75.75 0 0 0-.398-1.446.75.75 0 0 0 .398 1.447zm2.893-.8a.75.75 0 1 0-.398-1.446.75.75 0 1 0 .398 1.447zm2.893-.799a.75.75 0 0 0-.398-1.446.75.75 0 1 0 .398 1.446zm2.893-.8a.75.75 0 1 0-.398-1.446.75.75 0 1 0 .398 1.446zm2.893-.8a.75.75 0 0 0-.398-1.446.75.75 0 1 0 .398 1.447zm2.893-.8a.75.75 0 1 0-.398-1.446.75.75 0 0 0 .398 1.447zm2.893-.799a.75.75 0 1 0-.398-1.446.75.75 0 1 0 .398 1.446zm2.893-.8a.75.75 0 0 0-.398-1.446.75.75 0 0 0 .398 1.446zm2.893-.8a.75.75 0 1 0-.398-1.446.75.75 0 1 0 .398 1.447zm2.894-.8h.001a.75.75 0 0 0-.401-1.445h-.001a.75.75 0 1 0 .4 1.446zm2.893-.8h.001a.75.75 0 0 0-.4-1.445h-.002a.75.75 0 0 0 .401 1.446zm2.893-.799h.001a.75.75 0 1 0-.4-1.446h-.002a.75.75 0 1 0 .401 1.446zm2.893-.8h.001a.75.75 0 1 0-.4-1.445h-.003a.75.75 0 1 0 .401 1.445zm2.893-.8h.001a.75.75 0 1 0-.4-1.445h-.003a.75.75 0 0 0 .401 1.446zm2.893-.8h.001a.75.75 0 1 0-.4-1.445h-.003a.75.75 0 0 0 .401 1.446zm2.893-.799h.001a.75.75 0 0 0-.4-1.446h-.002a.75.75 0 0 0 .401 1.446zm2.893-.8h.002a.75.75 0 0 0-.401-1.445h-.001a.75.75 0 1 0 .4 1.445zm2.893-.8h.002a.75.75 0 0 0-.401-1.445h-.001a.75.75 0 0 0 .4 1.446zm2.893-.8a.75.75 0 1 0-.4-1.445h-.001a.75.75 0 1 0 .4 1.446zm2.893-.799a.75.75 0 1 0-.4-1.446h-.001a.75.75 0 0 0 .4 1.446zm2.893-.8a.75.75 0 1 0-.4-1.445h-.001a.75.75 0 0 0 .401 1.445zm2.893-.8a.75.75 0 1 0-.4-1.445h-.002a.75.75 0 0 0 .401 1.446zm2.893-.8a.75.75 0 1 0-.4-1.445h-.001a.75.75 0 0 0 .401 1.446zm2.893-.799h.002a.75.75 0 0 0-.401-1.446h-.001a.75.75 0 0 0 .4 1.446zm2.893-.8h.002a.75.75 0 0 0-.401-1.445h-.001a.75.75 0 0 0 .4 1.445zm2.893-.8h.002a.75.75 0 0 0-.401-1.445h-.001a.75.75 0 1 0 .4 1.446zm2.893-.8a.75.75 0 0 0-.4-1.445h-.001a.75.75 0 0 0 .4 1.446zm2.893-.799a.75.75 0 1 0-.4-1.446h-.001a.75.75 0 1 0 .4 1.446zm2.893-.8a.75.75 0 1 0-.4-1.445h-.002a.75.75 0 1 0 .4 1.445zm2.893-.8a.75.75 0 1 0-.4-1.445h-.001a.75.75 0 0 0 .4 1.446zm2.893-.8a.75.75 0 0 0-.4-1.445h-.001a.75.75 0 0 0 .4 1.446zm2.893-.799h.002a.75.75 0 1 0-.401-1.446h-.001a.75.75 0 1 0 .4 1.446zm2.893-.8h.002a.75.75 0 0 0-.401-1.445h-.001a.75.75 0 1 0 .4 1.445zm2.893-.8a.75.75 0 0 0-.4-1.445h-.001a.75.75 0 0 0 .4 1.446zm2.893-.8a.75.75 0 1 0-.4-1.445h-.001a.75.75 0 1 0 .4 1.446zm2.893-.799a.75.75 0 0 0-.4-1.446h-.001a.75.75 0 0 0 .4 1.446zm2.893-.8a.75.75 0 1 0-.4-1.445h-.001a.75.75 0 0 0 .4 1.445zm2.893-.8a.75.75 0 1 0-.4-1.445h-.002a.75.75 0 1 0 .4 1.446zm2.893-.8a.75.75 0 1 0-.4-1.445h-.001a.75.75 0 0 0 .4 1.446zm2.893-.799h.002a.75.75 0 0 0-.401-1.446h-.001a.75.75 0 1 0 .4 1.446zm2.893-.8a.75.75 0 1 0-.4-1.445h-.001a.75.75 0 1 0 .4 1.445zm2.893-.8a.75.75 0 1 0-.4-1.445h-.001a.75.75 0 1 0 .4 1.446zm2.893-.799a.75.75 0 0 0-.4-1.446h-.001a.75.75 0 0 0 .4 1.446zm2.893-.8a.75.75 0 1 0-.4-1.446h-.001a.75.75 0 0 0 .4 1.446zm2.893-.8a.75.75 0 0 0-.4-1.445h-.002a.75.75 0 0 0 .4 1.446zm2.893-.8a.75.75 0 1 0-.4-1.445h-.002a.75.75 0 0 0 .4 1.446zm2.893-.799a.75.75 0 1 0-.4-1.446h-.002a.75.75 0 1 0 .4 1.446zm2.892-.8h.001a.75.75 0 1 0-.4-1.446h-.002a.75.75 0 1 0 .401 1.446zm2.893-.8h.002a.75.75 0 0 0-.4-1.445h-.002a.75.75 0 1 0 .401 1.446zm2.893-.8h.001a.75.75 0 0 0-.4-1.445h-.001a.75.75 0 0 0 .4 1.446zm2.893-.799h.001a.75.75 0 1 0-.4-1.446h-.001a.75.75 0 1 0 .4 1.446zm2.893-.8h.001a.75.75 0 0 0-.4-1.446h-.002a.75.75 0 0 0 .4 1.446zm2.893-.8h.001a.75.75 0 1 0-.4-1.445h-.002a.75.75 0 0 0 .4 1.446zm2.893-.8h.001a.75.75 0 1 0-.4-1.445h-.002a.75.75 0 1 0 .4 1.446zm2.893-.799h.001a.75.75 0 1 0-.4-1.446h-.002a.75.75 0 0 0 .4 1.446zm2.896-.8h.002a.75.75 0 1 0-.406-1.445.75.75 0 0 0 .405 1.445zm2.893-.8h.002a.75.75 0 0 0-.406-1.445.75.75 0 1 0 .405 1.445zm2.893-.8a.75.75 0 1 0-.405-1.444.75.75 0 0 0 .405 1.444zm2.893-.8a.75.75 0 0 0-.405-1.444.75.75 0 0 0 .405 1.444zm2.893-.8a.75.75 0 1 0-.405-1.444h-.002a.75.75 0 0 0 .406 1.445zm2.893-.8a.75.75 0 0 0-.405-1.444.75.75 0 0 0 .405 1.445zm2.893-.799a.75.75 0 1 0-.405-1.444h-.002a.75.75 0 1 0 .406 1.444zm2.893-.8a.75.75 0 1 0-.405-1.444.75.75 0 1 0 .405 1.444zm2.893-.8h.002a.75.75 0 1 0-.406-1.444h-.001a.75.75 0 0 0 .405 1.445zm2.893-.8h.002a.75.75 0 1 0-.406-1.444h-.001a.75.75 0 1 0 .405 1.445zm2.893-.799a.75.75 0 0 0-.405-1.444.75.75 0 0 0 .405 1.444zm2.89-.799h.001a.75.75 0 1 0-.4-1.446h-.001a.75.75 0 1 0 .4 1.446zm2.893-.8h.001a.75.75 0 0 0-.4-1.446h-.001a.75.75 0 0 0 .4 1.446zm2.893-.8h.002a.75.75 0 1 0-.4-1.445h-.002a.75.75 0 0 0 .4 1.446zm2.893-.8h.002a.75.75 0 0 0-.4-1.445h-.002a.75.75 0 0 0 .4 1.446zm2.893-.799h.001a.75.75 0 1 0-.4-1.446h-.002a.75.75 0 1 0 .4 1.446zm2.893-.8h.002a.75.75 0 1 0-.4-1.446h-.002a.75.75 0 1 0 .401 1.446zm2.893-.8h.001a.75.75 0 0 0-.4-1.445h-.003a.75.75 0 0 0 .401 1.446zm2.893-.8h.002a.75.75 0 0 0-.4-1.445h-.002a.75.75 0 1 0 .401 1.446zm2.893-.799h.001a.75.75 0 0 0-.4-1.446h-.003a.75.75 0 0 0 .401 1.446zm2.893-.8h.001a.75.75 0 1 0-.4-1.445h-.001a.75.75 0 1 0 .4 1.445zm2.893-.8h.001a.75.75 0 0 0-.4-1.445h-.002a.75.75 0 0 0 .4 1.446zm2.893-.8h.001a.75.75 0 0 0-.4-1.445h-.001a.75.75 0 1 0 .4 1.446zm2.893-.799h.001a.75.75 0 0 0-.4-1.446h-.002a.75.75 0 0 0 .4 1.446zm2.893-.8h.001a.75.75 0 1 0-.4-1.445h-.002a.75.75 0 1 0 .401 1.445zm2.893-.8h.001a.75.75 0 0 0-.4-1.445h-.002a.75.75 0 0 0 .401 1.446zm2.893-.8a.75.75 0 1 0-.4-1.445.75.75 0 0 0 .4 1.446zm2.893-.799h.002a.75.75 0 0 0-.4-1.446h-.002a.75.75 0 0 0 .4 1.446zm2.893-.8a.75.75 0 0 0-.4-1.445.75.75 0 1 0 .4 1.446zm2.893-.8h.002a.75.75 0 0 0-.4-1.445h-.002a.75.75 0 1 0 .4 1.446zm2.893-.799a.75.75 0 0 0-.4-1.446h-.002a.75.75 0 0 0 .4 1.446zm2.893-.8h.002a.75.75 0 0 0-.4-1.446h-.002a.75.75 0 0 0 .4 1.446zm2.893-.8a.75.75 0 0 0-.4-1.445h-.002a.75.75 0 0 0 .4 1.446zm2.893-.8a.75.75 0 1 0-.4-1.445.75.75 0 1 0 .4 1.446zm2.893-.799a.75.75 0 0 0-.4-1.446h-.002a.75.75 0 0 0 .401 1.446zm2.893-.8a.75.75 0 1 0-.4-1.446.75.75 0 1 0 .4 1.446zm2.893-.8a.75.75 0 0 0-.4-1.445.75.75 0 0 0 .4 1.446zm2.893-.8a.75.75 0 1 0-.4-1.445.75.75 0 1 0 .4 1.446zm2.893-.799h.002a.75.75 0 0 0-.4-1.446h-.002a.75.75 0 1 0 .4 1.446zm2.893-.8a.75.75 0 0 0-.4-1.446.75.75 0 0 0 .4 1.446z" style="fill:#ea4335;fill-opacity:1;fill-rule:nonzero;stroke:none"/>
    </g>
    <g clip-path="url(#w)">
      <path d="M74.298 330.688h.001a.75.75 0 1 0-.595-1.377h-.002a.75.75 0 1 0 .596 1.377zm2.755-1.192a.75.75 0 0 0-.595-1.377h-.001a.75.75 0 0 0 .596 1.377zm2.754-1.191.002-.001a.75.75 0 0 0-.596-1.377h-.001a.75.75 0 0 0 .595 1.378zm2.755-1.192.001-.001a.75.75 0 1 0-.595-1.377h-.002a.75.75 0 1 0 .596 1.378zm2.755-1.192.001-.001a.75.75 0 1 0-.596-1.377l-.001.001a.75.75 0 1 0 .596 1.377zm2.754-1.192h.002a.75.75 0 1 0-.596-1.378l-.001.001a.75.75 0 1 0 .595 1.377zm2.755-1.192h.001a.75.75 0 0 0-.595-1.378l-.002.001a.75.75 0 0 0 .596 1.377zm2.755-1.192a.75.75 0 0 0-.595-1.377.75.75 0 1 0 .595 1.377zm2.754-1.192h.002a.75.75 0 1 0-.596-1.377h-.001a.75.75 0 1 0 .595 1.377zm2.755-1.192h.002a.75.75 0 0 0-.596-1.377h-.002a.75.75 0 0 0 .596 1.377zm2.755-1.192a.75.75 0 0 0-.595-1.377h-.001a.75.75 0 0 0 .596 1.377zm2.754-1.192h.001a.75.75 0 1 0-.595-1.377h-.001a.75.75 0 1 0 .595 1.377zm2.755-1.192h.001a.75.75 0 0 0-.596-1.377.75.75 0 0 0 .595 1.377zm2.755-1.192a.75.75 0 0 0-.595-1.377h-.001a.75.75 0 1 0 .596 1.377zm2.755-1.192a.75.75 0 1 0-.595-1.377h-.001a.75.75 0 1 0 .596 1.377zm2.754-1.191v-.001a.75.75 0 0 0-.594-1.377h-.001a.75.75 0 1 0 .595 1.378zm2.754-1.192.001-.001a.75.75 0 0 0-.595-1.377.75.75 0 1 0 .594 1.378zm2.755-1.192.001-.001a.75.75 0 0 0-.595-1.377.75.75 0 1 0 .594 1.378zm2.755-1.192a.75.75 0 0 0-.594-1.378h-.001a.75.75 0 1 0 .595 1.378zm2.755-1.192a.75.75 0 1 0-.594-1.378h-.001a.75.75 0 0 0 .595 1.378zm2.754-1.192h.001a.75.75 0 1 0-.595-1.378.75.75 0 0 0 .594 1.378zm2.755-1.192a.75.75 0 1 0-.594-1.378l-.001.001a.75.75 0 1 0 .595 1.377zm2.755-1.192a.75.75 0 0 0-.594-1.378l-.001.001a.75.75 0 0 0 .595 1.377zm2.754-1.192h.001a.75.75 0 1 0-.595-1.377.75.75 0 0 0 .594 1.377zm2.755-1.192h.001a.75.75 0 0 0-.595-1.377h-.001a.75.75 0 1 0 .595 1.377zm2.755-1.192a.75.75 0 0 0-.594-1.377h-.001a.75.75 0 0 0 .595 1.377zm2.754-1.192h.001a.75.75 0 1 0-.595-1.377.75.75 0 0 0 .594 1.377zm2.755-1.192h.001a.75.75 0 1 0-.595-1.377.75.75 0 0 0 .594 1.377zm2.755-1.192a.75.75 0 1 0-.594-1.377h-.001a.75.75 0 0 0 .595 1.377zm2.754-1.192h.001a.75.75 0 0 0-.595-1.377.75.75 0 0 0 .594 1.377zm2.755-1.191.001-.001a.75.75 0 1 0-.595-1.377.75.75 0 0 0 .594 1.378zm2.755-1.192v-.001a.75.75 0 0 0-.594-1.377h-.001a.75.75 0 1 0 .595 1.378zm2.755-1.192a.75.75 0 0 0-.595-1.378.75.75 0 1 0 .594 1.378zm2.754-1.192h.001a.75.75 0 0 0-.595-1.378.75.75 0 0 0 .594 1.378zm2.755-1.192a.75.75 0 1 0-.594-1.378h-.001a.75.75 0 1 0 .595 1.378zm2.755-1.192a.75.75 0 1 0-.594-1.378h-.001a.75.75 0 0 0 .595 1.378zm2.754-1.192h.001a.75.75 0 1 0-.595-1.378v.001a.75.75 0 0 0 .594 1.377zm2.755-1.192a.75.75 0 1 0-.594-1.377h-.001a.75.75 0 0 0 .595 1.377zm2.755-1.192a.75.75 0 0 0-.594-1.377h-.001a.75.75 0 0 0 .595 1.377zm2.754-1.192h.001a.75.75 0 1 0-.595-1.377.75.75 0 0 0 .594 1.377zm2.755-1.192h.001a.75.75 0 0 0-.595-1.377h-.001a.75.75 0 0 0 .595 1.377zm2.755-1.192a.75.75 0 1 0-.594-1.377h-.001a.75.75 0 1 0 .595 1.377zm2.754-1.192h.001a.75.75 0 0 0-.595-1.377.75.75 0 0 0 .594 1.377zm2.755-1.192h.001a.75.75 0 1 0-.595-1.377h-.001a.75.75 0 0 0 .595 1.377zm2.755-1.191v-.001a.75.75 0 0 0-.594-1.377h-.001a.75.75 0 1 0 .595 1.378zm2.754-1.192.001-.001a.75.75 0 0 0-.595-1.377.75.75 0 0 0 .594 1.378zm2.755-1.192.001-.001a.75.75 0 1 0-.595-1.377h-.001a.75.75 0 0 0 .595 1.378zm2.755-1.192a.75.75 0 1 0-.594-1.378h-.001a.75.75 0 0 0 .595 1.378zm2.755-1.192a.75.75 0 1 0-.594-1.378h-.001a.75.75 0 1 0 .595 1.378zm2.754-1.192h.001a.75.75 0 0 0-.595-1.378.75.75 0 0 0 .594 1.378zm2.755-1.192a.75.75 0 1 0-.594-1.378l-.001.001a.75.75 0 0 0 .595 1.377zm2.755-1.192a.75.75 0 0 0-.595-1.377.75.75 0 1 0 .594 1.377zm2.754-1.192h.001a.75.75 0 0 0-.595-1.377.75.75 0 1 0 .594 1.377zm2.755-1.192a.75.75 0 1 0-.594-1.377h-.001a.75.75 0 0 0 .595 1.377zm2.755-1.192a.75.75 0 1 0-.594-1.377h-.001a.75.75 0 0 0 .595 1.377zm2.754-1.192h.001a.75.75 0 1 0-.595-1.377.75.75 0 0 0 .594 1.377zm2.755-1.192a.75.75 0 0 0-.594-1.377h-.001a.75.75 0 0 0 .595 1.377zm2.755-1.192a.75.75 0 1 0-.594-1.377h-.001a.75.75 0 0 0 .595 1.377zm2.754-1.191.001-.001a.75.75 0 0 0-.595-1.377.75.75 0 1 0 .594 1.378zm2.755-1.192.001-.001a.75.75 0 0 0-.595-1.377h-.001a.75.75 0 0 0 .595 1.378zm2.755-1.192v-.001a.75.75 0 1 0-.594-1.377h-.001a.75.75 0 0 0 .595 1.378zm2.754-1.192h.001a.75.75 0 1 0-.595-1.378.75.75 0 0 0 .595 1.378zm2.755-1.192h.001a.75.75 0 0 0-.595-1.378.75.75 0 0 0 .594 1.378zm2.755-1.192a.75.75 0 1 0-.594-1.378h-.001a.75.75 0 0 0 .595 1.378zm2.754-1.192h.001a.75.75 0 1 0-.595-1.378v.001a.75.75 0 0 0 .594 1.377zm2.755-1.192h.001a.75.75 0 0 0-.595-1.377h-.001a.75.75 0 1 0 .595 1.377zm2.755-1.192a.75.75 0 0 0-.594-1.377h-.001a.75.75 0 1 0 .595 1.377zm2.755-1.192a.75.75 0 0 0-.595-1.377.75.75 0 0 0 .595 1.377zm2.754-1.192h.001a.75.75 0 1 0-.595-1.377.75.75 0 1 0 .594 1.377zm2.755-1.192a.75.75 0 0 0-.594-1.377h-.001a.75.75 0 0 0 .595 1.377zm2.757-1.193a.75.75 0 0 0-.599-1.375.75.75 0 0 0 .599 1.375zm2.754-1.191.001-.001a.75.75 0 0 0-.599-1.375.75.75 0 0 0 .598 1.376zm2.755-1.192.001-.001a.75.75 0 0 0-.6-1.375.75.75 0 0 0 .6 1.376zm2.755-1.192v-.001a.75.75 0 1 0-.598-1.375h-.001a.75.75 0 1 0 .599 1.376zm2.754-1.192h.001a.75.75 0 0 0-.599-1.376.75.75 0 0 0 .598 1.376zm2.755-1.192h.001a.75.75 0 0 0-.6-1.376.75.75 0 1 0 .599 1.376zm2.755-1.192a.75.75 0 0 0-.598-1.376h-.001a.75.75 0 1 0 .599 1.376zm2.754-1.192h.001a.75.75 0 0 0-.599-1.376.75.75 0 0 0 .598 1.376zm2.755-1.192h.001a.75.75 0 1 0-.6-1.376.75.75 0 0 0 .6 1.376zm2.755-1.192a.75.75 0 1 0-.598-1.376h-.001a.75.75 0 1 0 .599 1.376zm2.755-1.192a.75.75 0 1 0-.599-1.376.75.75 0 1 0 .599 1.376zm2.754-1.192h.001a.75.75 0 1 0-.6-1.376v.001a.75.75 0 1 0 .599 1.375zm2.755-1.192a.75.75 0 0 0-.598-1.376l-.001.001a.75.75 0 0 0 .599 1.375zm2.755-1.192a.75.75 0 0 0-.599-1.375.75.75 0 0 0 .599 1.375zm2.754-1.192h.001a.75.75 0 0 0-.599-1.375h-.001a.75.75 0 0 0 .6 1.375zm2.755-1.192a.75.75 0 0 0-.598-1.375h-.001a.75.75 0 0 0 .599 1.375zm2.755-1.192a.75.75 0 1 0-.598-1.375h-.001a.75.75 0 1 0 .599 1.375zm2.754-1.191.001-.001a.75.75 0 1 0-.599-1.375.75.75 0 0 0 .598 1.376zm2.755-1.192v-.001a.75.75 0 1 0-.598-1.375h-.001a.75.75 0 1 0 .599 1.376zm2.755-1.192v-.001a.75.75 0 0 0-.599-1.375.75.75 0 1 0 .599 1.376zm2.754-1.192h.001a.75.75 0 0 0-.599-1.376.75.75 0 1 0 .598 1.376zm2.755-1.192h.001a.75.75 0 0 0-.6-1.376.75.75 0 0 0 .599 1.376zm2.755-1.192a.75.75 0 1 0-.598-1.376h-.001a.75.75 0 0 0 .599 1.376zm2.754-1.192h.001a.75.75 0 1 0-.599-1.376.75.75 0 1 0 .599 1.376zm2.755-1.192h.001a.75.75 0 0 0-.6-1.376.75.75 0 0 0 .599 1.376zm2.755-1.192a.75.75 0 1 0-.598-1.376h-.001a.75.75 0 1 0 .599 1.376zm2.754-1.192h.001a.75.75 0 0 0-.599-1.376v.001a.75.75 0 1 0 .598 1.375zm2.755-1.192h.001a.75.75 0 0 0-.6-1.376v.001a.75.75 0 0 0 .6 1.375zm2.755-1.192a.75.75 0 0 0-.598-1.375h-.001a.75.75 0 0 0 .599 1.375zm2.755-1.192a.75.75 0 1 0-.599-1.375.75.75 0 0 0 .599 1.375zm2.754-1.192h.001a.75.75 0 1 0-.599-1.375.75.75 0 1 0 .598 1.375zm2.755-1.191v-.001a.75.75 0 0 0-.598-1.375h-.001a.75.75 0 0 0 .599 1.376zm2.755-1.192v-.001a.75.75 0 0 0-.599-1.375.75.75 0 1 0 .598 1.376zm2.754-1.192.001-.001a.75.75 0 0 0-.599-1.375h-.001a.75.75 0 1 0 .6 1.376zm2.755-1.192a.75.75 0 0 0-.598-1.376h-.001a.75.75 0 0 0 .599 1.376zm2.755-1.192a.75.75 0 0 0-.599-1.376.75.75 0 0 0 .599 1.376zm2.754-1.192h.001a.75.75 0 1 0-.599-1.376.75.75 0 1 0 .598 1.376zm2.755-1.192a.75.75 0 1 0-.598-1.376h-.001a.75.75 0 1 0 .599 1.376zm2.755-1.192a.75.75 0 0 0-.599-1.376.75.75 0 1 0 .599 1.376zm2.754-1.192h.001a.75.75 0 0 0-.599-1.376.75.75 0 0 0 .598 1.376zm2.755-1.192h.001a.75.75 0 0 0-.6-1.376v.001a.75.75 0 1 0 .599 1.375zm2.755-1.192a.75.75 0 0 0-.598-1.376l-.001.001a.75.75 0 0 0 .599 1.375zm2.754-1.192h.001a.75.75 0 1 0-.599-1.375.75.75 0 0 0 .598 1.375zM385.58 196h.001a.75.75 0 1 0-.599-1.375h-.001a.75.75 0 1 0 .6 1.375zm2.755-1.192a.75.75 0 1 0-.598-1.375h-.001a.75.75 0 1 0 .599 1.375zm2.754-1.191.001-.001a.75.75 0 0 0-.599-1.375.75.75 0 1 0 .598 1.376zm2.755-1.192.001-.001a.75.75 0 0 0-.6-1.375.75.75 0 1 0 .6 1.376zm2.755-1.192v-.001a.75.75 0 0 0-.598-1.375h-.001a.75.75 0 1 0 .599 1.376zm2.755-1.192a.75.75 0 0 0-.599-1.376.75.75 0 0 0 .599 1.376zm2.754-1.192h.001a.75.75 0 1 0-.599-1.376.75.75 0 0 0 .598 1.376zm2.755-1.192a.75.75 0 1 0-.598-1.376h-.001a.75.75 0 1 0 .599 1.376zm2.755-1.192a.75.75 0 0 0-.599-1.376.75.75 0 0 0 .598 1.376zm2.754-1.192h.001a.75.75 0 0 0-.599-1.376h-.001a.75.75 0 1 0 .6 1.376zm2.755-1.192a.75.75 0 1 0-.598-1.376h-.001a.75.75 0 0 0 .599 1.376zm2.755-1.192a.75.75 0 1 0-.598-1.376l-.001.001a.75.75 0 0 0 .599 1.375zm2.754-1.192h.001a.75.75 0 0 0-.599-1.376v.001a.75.75 0 0 0 .598 1.375zm2.755-1.192a.75.75 0 1 0-.598-1.375h-.001a.75.75 0 1 0 .599 1.375zm2.755-1.192a.75.75 0 1 0-.598-1.375h-.001a.75.75 0 1 0 .599 1.375zm2.754-1.192h.001a.75.75 0 0 0-.599-1.375.75.75 0 0 0 .598 1.375zm2.755-1.191.001-.001a.75.75 0 0 0-.6-1.375.75.75 0 0 0 .599 1.376zm2.755-1.192v-.001a.75.75 0 1 0-.598-1.375h-.001a.75.75 0 0 0 .599 1.376zm2.754-1.192.001-.001a.75.75 0 1 0-.599-1.375.75.75 0 0 0 .599 1.376zm2.755-1.192h.001a.75.75 0 0 0-.6-1.376.75.75 0 1 0 .599 1.376zm2.755-1.192a.75.75 0 1 0-.598-1.376h-.001a.75.75 0 1 0 .599 1.376zm2.754-1.192h.001a.75.75 0 0 0-.599-1.376.75.75 0 1 0 .598 1.376zm2.755-1.192h.001a.75.75 0 0 0-.6-1.376.75.75 0 0 0 .599 1.376zm2.755-1.192a.75.75 0 1 0-.598-1.376h-.001a.75.75 0 0 0 .599 1.376zm2.755-1.192a.75.75 0 1 0-.599-1.376.75.75 0 0 0 .599 1.376zm2.754-1.192h.001a.75.75 0 1 0-.599-1.376l-.001.001a.75.75 0 1 0 .6 1.375zm2.75-1.19h.002a.75.75 0 0 0-.591-1.38l-.001.001a.75.75 0 0 0 .59 1.379zm2.755-1.192h.001a.75.75 0 0 0-.59-1.38l-.001.001a.75.75 0 0 0 .59 1.379zm2.755-1.192h.001a.75.75 0 0 0-.59-1.38l-.002.001a.75.75 0 1 0 .591 1.38zm2.755-1.192a.75.75 0 0 0-.59-1.38l-.001.002a.75.75 0 1 0 .59 1.378zm2.754-1.192h.001a.75.75 0 1 0-.59-1.38l-.001.002a.75.75 0 0 0 .59 1.378zm2.755-1.192h.001a.75.75 0 0 0-.59-1.379h-.002a.75.75 0 1 0 .591 1.38zm2.755-1.192a.75.75 0 0 0-.59-1.379h-.001a.75.75 0 1 0 .59 1.38zm2.754-1.192h.001a.75.75 0 1 0-.59-1.379h-.001a.75.75 0 0 0 .59 1.38zm2.755-1.191.001-.001a.75.75 0 1 0-.59-1.379h-.002a.75.75 0 0 0 .591 1.38zm2.755-1.192v-.001a.75.75 0 1 0-.59-1.379h-.001a.75.75 0 1 0 .59 1.38zm2.754-1.192h.001a.75.75 0 0 0-.59-1.38l-.001.001a.75.75 0 1 0 .59 1.379zm2.755-1.192h.001a.75.75 0 0 0-.59-1.38l-.002.001a.75.75 0 0 0 .591 1.379zm2.755-1.192a.75.75 0 1 0-.59-1.38l-.001.001a.75.75 0 0 0 .59 1.379z" style="fill:#fbbc04;fill-opacity:1;fill-rule:nonzero;stroke:none"/>
    </g>
    <g clip-path="url(#x)">
      <text xml:space="preserve" transform="matrix(1 0 0 -1 164.987 6)" style="font-variant:normal;font-weight:normal;font-size:9px;font-family:Arial;-inkscape-font-specification:ArialMT;writing-mode:lr-tb;fill:#4285f4;fill-opacity:1;fill-rule:nonzero;stroke:none"><tspan x="0 5 7.004 12.004" y="0">c = </tspan></text>
    </g>
    <g clip-path="url(#y)">
      <text xml:space="preserve" transform="matrix(1 0 0 -1 179.987 6)" style="font-variant:normal;font-weight:normal;font-size:9px;font-family:Arial;-inkscape-font-specification:ArialMT;writing-mode:lr-tb;fill:#4285f4;fill-opacity:1;fill-rule:nonzero;stroke:none"><tspan x="0" y="0">-</tspan></text>
    </g>
    <g clip-path="url(#z)">
      <text xml:space="preserve" transform="matrix(1 0 0 -1 182.987 6)" style="font-variant:normal;font-weight:normal;font-size:9px;font-family:Arial;-inkscape-font-specification:ArialMT;writing-mode:lr-tb;fill:#4285f4;fill-opacity:1;fill-rule:nonzero;stroke:none"><tspan x="0 5 10.001 15.001 20.002 25.002 30.002 37.001 40.003 45.004 48.006 53.006 58.007 63.007 68.008 71.01" y="0">219495m + 4311.1</tspan></text>
    </g>
    <g clip-path="url(#A)">
      <text xml:space="preserve" transform="matrix(1 0 0 -1 271.928 6)" style="font-variant:normal;font-weight:normal;font-size:9px;font-family:Arial;-inkscape-font-specification:ArialMT;writing-mode:lr-tb;fill:#ea4335;fill-opacity:1;fill-rule:nonzero;stroke:none"><tspan x="0 5 7.004 12.004" y="0">c = </tspan></text>
    </g>
    <g clip-path="url(#B)">
      <text xml:space="preserve" transform="matrix(1 0 0 -1 286.928 6)" style="font-variant:normal;font-weight:normal;font-size:9px;font-family:Arial;-inkscape-font-specification:ArialMT;writing-mode:lr-tb;fill:#ea4335;fill-opacity:1;fill-rule:nonzero;stroke:none"><tspan x="0" y="0">-</tspan></text>
    </g>
    <g clip-path="url(#C)">
      <text xml:space="preserve" transform="matrix(1 0 0 -1 289.928 6)" style="font-variant:normal;font-weight:normal;font-size:9px;font-family:Arial;-inkscape-font-specification:ArialMT;writing-mode:lr-tb;fill:#ea4335;fill-opacity:1;fill-rule:nonzero;stroke:none"><tspan x="0 5 10.001 15.001 20.002 25.002 30.002 37.001 40.003 45.004 48.006 53.006 58.007 63.007 68.008 71.01" y="0">157679m + 4144.2</tspan></text>
    </g>
    <g clip-path="url(#D)">
      <text xml:space="preserve" transform="matrix(1 0 0 -1 373.868 7)" style="font-variant:normal;font-weight:normal;font-size:9px;font-family:Arial;-inkscape-font-specification:ArialMT;writing-mode:lr-tb;fill:#fbbc04;fill-opacity:1;fill-rule:nonzero;stroke:none"><tspan x="0 5 7.004 12.004" y="0">c = </tspan></text>
    </g>
    <g clip-path="url(#E)">
      <text xml:space="preserve" transform="matrix(1 0 0 -1 388.868 7)" style="font-variant:normal;font-weight:normal;font-size:9px;font-family:Arial;-inkscape-font-specification:ArialMT;writing-mode:lr-tb;fill:#fbbc04;fill-opacity:1;fill-rule:nonzero;stroke:none"><tspan x="0" y="0">-</tspan></text>
    </g>
    <g clip-path="url(#F)">
      <text xml:space="preserve" transform="matrix(1 0 0 -1 391.868 7)" style="font-variant:normal;font-weight:normal;font-size:9px;font-family:Arial;-inkscape-font-specification:ArialMT;writing-mode:lr-tb;fill:#fbbc04;fill-opacity:1;fill-rule:nonzero;stroke:none"><tspan x="0 5 10.001 15.001 20.002 25.002 30.002 37.001 40.003 45.004 48.006 53.006 58.007 63.007 68.008 71.01" y="0">319731m + 4404.6</tspan></text>
    </g>
    <g clip-path="url(#G)">
      <text xml:space="preserve" transform="matrix(1 0 0 -1 27.783 62)" style="font-variant:normal;font-weight:normal;font-size:9px;font-family:Arial;-inkscape-font-specification:ArialMT;writing-mode:lr-tb;fill:#595959;fill-opacity:1;fill-rule:nonzero;stroke:none"><tspan x="0 5 8.003 13.003 18.004 24.003 29.003 34.004" y="0">3.20E+03</tspan></text>
    </g>
    <g clip-path="url(#H)">
      <text xml:space="preserve" transform="matrix(1 0 0 -1 27.783 84)" style="font-variant:normal;font-weight:normal;font-size:9px;font-family:Arial;-inkscape-font-specification:ArialMT;writing-mode:lr-tb;fill:#595959;fill-opacity:1;fill-rule:nonzero;stroke:none"><tspan x="0 5 8.003 13.003 18.004 24.003 29.003 34.004" y="0">3.30E+03</tspan></text>
    </g>
    <g clip-path="url(#I)">
      <text xml:space="preserve" transform="matrix(1 0 0 -1 27.783 106)" style="font-variant:normal;font-weight:normal;font-size:9px;font-family:Arial;-inkscape-font-specification:ArialMT;writing-mode:lr-tb;fill:#595959;fill-opacity:1;fill-rule:nonzero;stroke:none"><tspan x="0 5 8.003 13.003 18.004 24.003 29.003 34.004" y="0">3.40E+03</tspan></text>
    </g>
    <g clip-path="url(#J)">
      <text xml:space="preserve" transform="matrix(1 0 0 -1 27.783 128)" style="font-variant:normal;font-weight:normal;font-size:9px;font-family:Arial;-inkscape-font-specification:ArialMT;writing-mode:lr-tb;fill:#595959;fill-opacity:1;fill-rule:nonzero;stroke:none"><tspan x="0 5 8.003 13.003 18.004 24.003 29.003 34.004" y="0">3.50E+03</tspan></text>
    </g>
    <g clip-path="url(#K)">
      <text xml:space="preserve" transform="matrix(1 0 0 -1 27.783 150)" style="font-variant:normal;font-weight:normal;font-size:9px;font-family:Arial;-inkscape-font-specification:ArialMT;writing-mode:lr-tb;fill:#595959;fill-opacity:1;fill-rule:nonzero;stroke:none"><tspan x="0 5 8.003 13.003 18.004 24.003 29.003 34.004" y="0">3.60E+03</tspan></text>
    </g>
    <g clip-path="url(#L)">
      <text xml:space="preserve" transform="matrix(1 0 0 -1 27.783 173)" style="font-variant:normal;font-weight:normal;font-size:9px;font-family:Arial;-inkscape-font-specification:ArialMT;writing-mode:lr-tb;fill:#595959;fill-opacity:1;fill-rule:nonzero;stroke:none"><tspan x="0 5 8.003 13.003 18.004 24.003 29.003 34.004" y="0">3.70E+03</tspan></text>
    </g>
    <g clip-path="url(#M)">
      <text xml:space="preserve" transform="matrix(1 0 0 -1 27.783 195)" style="font-variant:normal;font-weight:normal;font-size:9px;font-family:Arial;-inkscape-font-specification:ArialMT;writing-mode:lr-tb;fill:#595959;fill-opacity:1;fill-rule:nonzero;stroke:none"><tspan x="0 5 8.003 13.003 18.004 24.003 29.003 34.004" y="0">3.80E+03</tspan></text>
    </g>
    <g clip-path="url(#N)">
      <text xml:space="preserve" transform="matrix(1 0 0 -1 27.783 217)" style="font-variant:normal;font-weight:normal;font-size:9px;font-family:Arial;-inkscape-font-specification:ArialMT;writing-mode:lr-tb;fill:#595959;fill-opacity:1;fill-rule:nonzero;stroke:none"><tspan x="0 5 8.003 13.003 18.004 24.003 29.003 34.004" y="0">3.90E+03</tspan></text>
    </g>
    <g clip-path="url(#O)">
      <text xml:space="preserve" transform="matrix(1 0 0 -1 27.783 239)" style="font-variant:normal;font-weight:normal;font-size:9px;font-family:Arial;-inkscape-font-specification:ArialMT;writing-mode:lr-tb;fill:#595959;fill-opacity:1;fill-rule:nonzero;stroke:none"><tspan x="0 5 8.003 13.003 18.004 24.003 29.003 34.004" y="0">4.00E+03</tspan></text>
    </g>
    <g clip-path="url(#P)">
      <text xml:space="preserve" transform="matrix(1 0 0 -1 27.783 261)" style="font-variant:normal;font-weight:normal;font-size:9px;font-family:Arial;-inkscape-font-specification:ArialMT;writing-mode:lr-tb;fill:#595959;fill-opacity:1;fill-rule:nonzero;stroke:none"><tspan x="0 5 8.003 13.003 18.004 24.003 29.003 34.004" y="0">4.10E+03</tspan></text>
    </g>
    <g clip-path="url(#Q)">
      <text xml:space="preserve" transform="matrix(1 0 0 -1 27.783 283)" style="font-variant:normal;font-weight:normal;font-size:9px;font-family:Arial;-inkscape-font-specification:ArialMT;writing-mode:lr-tb;fill:#595959;fill-opacity:1;fill-rule:nonzero;stroke:none"><tspan x="0 5 8.003 13.003 18.004 24.003 29.003 34.004" y="0">4.20E+03</tspan></text>
    </g>
    <g clip-path="url(#R)">
      <text xml:space="preserve" transform="matrix(1 0 0 -1 27.783 305)" style="font-variant:normal;font-weight:normal;font-size:9px;font-family:Arial;-inkscape-font-specification:ArialMT;writing-mode:lr-tb;fill:#595959;fill-opacity:1;fill-rule:nonzero;stroke:none"><tspan x="0 5 8.003 13.003 18.004 24.003 29.003 34.004" y="0">4.30E+03</tspan></text>
    </g>
    <g clip-path="url(#S)">
      <text xml:space="preserve" transform="matrix(1 0 0 -1 27.783 327)" style="font-variant:normal;font-weight:normal;font-size:9px;font-family:Arial;-inkscape-font-specification:ArialMT;writing-mode:lr-tb;fill:#595959;fill-opacity:1;fill-rule:nonzero;stroke:none"><tspan x="0 5 8.003 13.003 18.004 24.003 29.003 34.004" y="0">4.40E+03</tspan></text>
    </g>
    <g clip-path="url(#T)">
      <text xml:space="preserve" transform="matrix(1 0 0 -1 27.783 349)" style="font-variant:normal;font-weight:normal;font-size:9px;font-family:Arial;-inkscape-font-specification:ArialMT;writing-mode:lr-tb;fill:#595959;fill-opacity:1;fill-rule:nonzero;stroke:none"><tspan x="0 5 8.003 13.003 18.004 24.003 29.003 34.004" y="0">4.50E+03</tspan></text>
    </g>
    <g clip-path="url(#U)">
      <text xml:space="preserve" transform="matrix(1 0 0 -1 54.916 51)" style="font-variant:normal;font-weight:normal;font-size:9px;font-family:Arial;-inkscape-font-specification:ArialMT;writing-mode:lr-tb;fill:#595959;fill-opacity:1;fill-rule:nonzero;stroke:none"><tspan x="0 5 8.003 13.003 18.004 24.003 29.003 34.004" y="0">0.00E+00</tspan></text>
    </g>
    <g clip-path="url(#V)">
      <text xml:space="preserve" transform="matrix(1 0 0 -1 125.315 51)" style="font-variant:normal;font-weight:normal;font-size:9px;font-family:Arial;-inkscape-font-specification:ArialMT;writing-mode:lr-tb;fill:#595959;fill-opacity:1;fill-rule:nonzero;stroke:none"><tspan x="0 5 8.003 13.003 18.004 24.003 27.005 32.006" y="0">5.00E-04</tspan></text>
    </g>
    <g clip-path="url(#W)">
      <text xml:space="preserve" transform="matrix(1 0 0 -1 194.584 51)" style="font-variant:normal;font-weight:normal;font-size:9px;font-family:Arial;-inkscape-font-specification:ArialMT;writing-mode:lr-tb;fill:#595959;fill-opacity:1;fill-rule:nonzero;stroke:none"><tspan x="0 5 8.003 13.003 18.004 24.003 27.005 32.006" y="0">1.00E-03</tspan></text>
    </g>
    <g clip-path="url(#X)">
      <text xml:space="preserve" transform="matrix(1 0 0 -1 263.853 51)" style="font-variant:normal;font-weight:normal;font-size:9px;font-family:Arial;-inkscape-font-specification:ArialMT;writing-mode:lr-tb;fill:#595959;fill-opacity:1;fill-rule:nonzero;stroke:none"><tspan x="0 5 8.003 13.003 18.004 24.003 27.005 32.006" y="0">1.50E-03</tspan></text>
    </g>
    <g clip-path="url(#Y)">
      <text xml:space="preserve" transform="matrix(1 0 0 -1 333.122 51)" style="font-variant:normal;font-weight:normal;font-size:9px;font-family:Arial;-inkscape-font-specification:ArialMT;writing-mode:lr-tb;fill:#595959;fill-opacity:1;fill-rule:nonzero;stroke:none"><tspan x="0 5 8.003 13.003 18.004 24.003 27.005 32.006" y="0">2.00E-03</tspan></text>
    </g>
    <g clip-path="url(#Z)">
      <text xml:space="preserve" transform="matrix(1 0 0 -1 402.391 51)" style="font-variant:normal;font-weight:normal;font-size:9px;font-family:Arial;-inkscape-font-specification:ArialMT;writing-mode:lr-tb;fill:#595959;fill-opacity:1;fill-rule:nonzero;stroke:none"><tspan x="0 5 8.003 13.003 18.004 24.003 27.005 32.006" y="0">2.50E-03</tspan></text>
    </g>
    <g clip-path="url(#aa)">
      <text xml:space="preserve" transform="matrix(1 0 0 -1 471.66 51)" style="font-variant:normal;font-weight:normal;font-size:9px;font-family:Arial;-inkscape-font-specification:ArialMT;writing-mode:lr-tb;fill:#595959;fill-opacity:1;fill-rule:nonzero;stroke:none"><tspan x="0 5 8.003 13.003 18.004 24.003 27.005 32.006" y="0">3.00E-03</tspan></text>
    </g>
    <g clip-path="url(#ab)">
      <text xml:space="preserve" transform="matrix(1 0 0 -1 540.93 51)" style="font-variant:normal;font-weight:normal;font-size:9px;font-family:Arial;-inkscape-font-specification:ArialMT;writing-mode:lr-tb;fill:#595959;fill-opacity:1;fill-rule:nonzero;stroke:none"><tspan x="0 5 8.003 13.003 18.004 24.003 27.005 32.006" y="0">3.50E-03</tspan></text>
    </g>
    <g clip-path="url(#ac)">
      <text xml:space="preserve" transform="matrix(0 1 1 0 18.722 143)" style="font-variant:normal;font-weight:normal;font-size:10px;font-family:Arial;-inkscape-font-specification:ArialMT;writing-mode:lr-tb;fill:#595959;fill-opacity:1;fill-rule:nonzero;stroke:none"><tspan x="0 7 13 19 24 26 29 31 36 38 44 50 56 59 61 66 72 78 84 89 91 94 99 101 104 109 111 116" y="0">Specific heat capacity (J kg</tspan></text>
    </g>
    <g clip-path="url(#ad)">
      <text xml:space="preserve" transform="matrix(0 1 1 0 15.722 265)" style="font-variant:normal;font-weight:normal;font-size:7px;font-family:Arial;-inkscape-font-specification:ArialMT;writing-mode:lr-tb;fill:#595959;fill-opacity:1;fill-rule:nonzero;stroke:none"><tspan x="0" y="0">-</tspan></text>
    </g>
    <g clip-path="url(#ae)">
      <text xml:space="preserve" transform="matrix(0 1 1 0 15.722 267)" style="font-variant:normal;font-weight:normal;font-size:7px;font-family:Arial;-inkscape-font-specification:ArialMT;writing-mode:lr-tb;fill:#595959;fill-opacity:1;fill-rule:nonzero;stroke:none"><tspan x="0" y="0">1</tspan></text>
    </g>
    <g clip-path="url(#af)">
      <text xml:space="preserve" transform="matrix(0 1 1 0 18.722 273)" style="font-variant:normal;font-weight:normal;font-size:10px;font-family:Arial;-inkscape-font-specification:ArialMT;writing-mode:lr-tb;fill:#595959;fill-opacity:1;fill-rule:nonzero;stroke:none"><tspan x="0" y="0">K</tspan></text>
    </g>
    <g clip-path="url(#ag)">
      <text xml:space="preserve" transform="matrix(0 1 1 0 15.722 280)" style="font-variant:normal;font-weight:normal;font-size:7px;font-family:Arial;-inkscape-font-specification:ArialMT;writing-mode:lr-tb;fill:#595959;fill-opacity:1;fill-rule:nonzero;stroke:none"><tspan x="0" y="0">-</tspan></text>
    </g>
    <g clip-path="url(#ah)">
      <text xml:space="preserve" transform="matrix(0 1 1 0 15.722 282)" style="font-variant:normal;font-weight:normal;font-size:7px;font-family:Arial;-inkscape-font-specification:ArialMT;writing-mode:lr-tb;fill:#595959;fill-opacity:1;fill-rule:nonzero;stroke:none"><tspan x="0" y="0">1</tspan></text>
    </g>
    <g clip-path="url(#ai)">
      <text xml:space="preserve" transform="matrix(0 1 1 0 18.722 286)" style="font-variant:normal;font-weight:normal;font-size:10px;font-family:Arial;-inkscape-font-specification:ArialMT;writing-mode:lr-tb;fill:#595959;fill-opacity:1;fill-rule:nonzero;stroke:none"><tspan x="0" y="0">)</tspan></text>
    </g>
    <g clip-path="url(#aj)">
      <text xml:space="preserve" transform="matrix(1 0 0 -1 279.685 37)" style="font-variant:normal;font-weight:normal;font-size:10px;font-family:Arial;-inkscape-font-specification:ArialMT;writing-mode:lr-tb;fill:#595959;fill-opacity:1;fill-rule:nonzero;stroke:none"><tspan x="0 8 14 19 24 27 33 36 38 43 49 51 54 56 59 64 70" y="0">Mass of salt (kg)</tspan></text>
    </g>
    <g clip-path="url(#ak)">
      <text xml:space="preserve" transform="matrix(1 0 0 -1 144.554 367)" style="font-variant:normal;font-weight:normal;font-size:14px;font-family:Arial;-inkscape-font-specification:ArialMT;writing-mode:lr-tb;fill:#595959;fill-opacity:1;fill-rule:nonzero;stroke:none"><tspan x="0 9.001 17 25 32 35 39 42 49 53 60.999 68.999 76.999 80.998 83.999 90.999 98.998 106.998 114.997 121.997 124.998 128.997 135.997 138.998 145.998 152.998" y="0">Specific heat capacity vs </tspan></text>
    </g>
    <g clip-path="url(#al)">
      <text xml:space="preserve" transform="matrix(1 0 0 -1 301.554 367)" style="font-variant:normal;font-weight:normal;font-size:14px;font-family:Arial;-inkscape-font-specification:ArialMT;writing-mode:lr-tb;fill:#595959;fill-opacity:1;fill-rule:nonzero;stroke:none"><tspan x="0 11.999 19.999 26.999 33.999 37.999 45.998 49.998 52.998 59.998 67.998 70.998 74.998 78.998 81.998 89.998 93.997 100.997 108.997 111.997 119.997 123.997 126.997 134.996" y="0">mass of salt in solution</tspan></text>
    </g>
    <g clip-path="url(#am)">
      <path d="M186 23.75h.001a.75.75 0 0 0 0-1.5H186a.75.75 0 0 0 0 1.5zm3.002 0a.75.75 0 0 0 0-1.5.75.75 0 0 0 0 1.5zm3.001 0h.002a.75.75 0 0 0 0-1.5h-.002a.75.75 0 0 0 0 1.5zm3.002 0a.75.75 0 0 0 0-1.5.75.75 0 0 0 0 1.5zm3.001 0h.001a.75.75 0 0 0 0-1.5h-.001a.75.75 0 0 0 0 1.5zm3.001 0h.001a.75.75 0 0 0 0-1.5.75.75 0 0 0 0 1.5zm3.002 0h.002a.75.75 0 0 0 0-1.5h-.002a.75.75 0 0 0 0 1.5zm3.001 0h.001a.75.75 0 0 0 0-1.5.75.75 0 0 0 0 1.5zm3.002 0h.001a.75.75 0 0 0 0-1.5h-.001a.75.75 0 0 0 0 1.5z" style="fill:#4285f4;fill-opacity:1;fill-rule:nonzero;stroke:none"/>
    </g>
    <g clip-path="url(#an)">
      <text xml:space="preserve" transform="matrix(1 0 0 -1 213.713 21)" style="font-variant:normal;font-weight:normal;font-size:9px;font-family:Arial;-inkscape-font-specification:ArialMT;writing-mode:lr-tb;fill:#595959;fill-opacity:1;fill-rule:nonzero;stroke:none"><tspan x="0 5 7.004 12.004 17.005 22.005 25.007 28.01 31.012 36.013 40.014 45.014" y="0">Linear (avg)</tspan></text>
    </g>
    <g clip-path="url(#ao)">
      <path d="M279 23.75h.002a.75.75 0 0 0 0-1.5H279a.75.75 0 0 0 0 1.5zm3.002 0a.75.75 0 0 0 0-1.5.75.75 0 0 0 0 1.5zm3.001 0h.002a.75.75 0 0 0 0-1.5h-.002a.75.75 0 0 0 0 1.5zm3.002 0a.75.75 0 0 0 0-1.5.75.75 0 0 0 0 1.5zm3.001 0h.002a.75.75 0 0 0 0-1.5h-.002a.75.75 0 0 0 0 1.5zm3.002 0h.002a.75.75 0 0 0 0-1.5h-.002a.75.75 0 0 0 0 1.5zm3.001 0h.001a.75.75 0 0 0 0-1.5h-.001a.75.75 0 0 0 0 1.5zm3.002 0h.002a.75.75 0 0 0 0-1.5h-.002a.75.75 0 0 0 0 1.5zm3.001 0h.002a.75.75 0 0 0 0-1.5h-.002a.75.75 0 0 0 0 1.5z" style="fill:#ea4335;fill-opacity:1;fill-rule:nonzero;stroke:none"/>
    </g>
    <g clip-path="url(#ap)">
      <text xml:space="preserve" transform="matrix(1 0 0 -1 306.616 21)" style="font-variant:normal;font-weight:normal;font-size:9px;font-family:Arial;-inkscape-font-specification:ArialMT;writing-mode:lr-tb;fill:#595959;fill-opacity:1;fill-rule:nonzero;stroke:none"><tspan x="0 5 7.004 12.004 17.005 22.005 25.007 28.01 31.012 38.011 40.014 45.014" y="0">Linear (min)</tspan></text>
    </g>
    <g clip-path="url(#aq)">
      <path d="M372 23.75h.002a.75.75 0 0 0 0-1.5H372a.75.75 0 0 0 0 1.5zm3.002 0a.75.75 0 0 0 0-1.5.75.75 0 0 0 0 1.5zm3.001 0h.002a.75.75 0 0 0 0-1.5h-.002a.75.75 0 0 0 0 1.5zm3.002 0a.75.75 0 0 0 0-1.5.75.75 0 0 0 0 1.5zm3.001 0h.002a.75.75 0 0 0 0-1.5h-.002a.75.75 0 0 0 0 1.5zm3.002 0h.002a.75.75 0 0 0 0-1.5h-.002a.75.75 0 0 0 0 1.5zm3.001 0h.001a.75.75 0 0 0 0-1.5h-.001a.75.75 0 0 0 0 1.5zm3.002 0h.002a.75.75 0 0 0 0-1.5h-.002a.75.75 0 0 0 0 1.5zm3.001 0h.002a.75.75 0 0 0 0-1.5h-.002a.75.75 0 0 0 0 1.5z" style="fill:#fbbc04;fill-opacity:1;fill-rule:nonzero;stroke:none"/>
    </g>
    <g clip-path="url(#ar)">
      <text xml:space="preserve" transform="matrix(1 0 0 -1 399.509 21)" style="font-variant:normal;font-weight:normal;font-size:9px;font-family:Arial;-inkscape-font-specification:ArialMT;writing-mode:lr-tb;fill:#595959;fill-opacity:1;fill-rule:nonzero;stroke:none"><tspan x="0 5 7.004 12.004 17.005 22.005 25.007 28.01 31.012 38.011 43.011 48.011" y="0">Linear (max)</tspan></text>
    </g>
    <path d="M0 0h7467600v4914900H0Z" style="fill:none;stroke:#d9d9d9;stroke-width:9525;stroke-linecap:butt;stroke-linejoin:round;stroke-miterlimit:10;stroke-dasharray:none;stroke-opacity:1" transform="matrix(.00007874 0 0 -.00007874 .5 387.5)"/>
  </g>
</svg>