<svg xmlns="http://www.w3.org/2000/svg" width="670.667" height="381.333"><defs><clipPath id="a" clipPathUnits="userSpaceOnUse"><path d="M0 0h503v286H0Z"/></clipPath><clipPath id="b" clipPathUnits="userSpaceOnUse"><path d="M0 1h502v285H0Z"/></clipPath><clipPath id="c" clipPathUnits="userSpaceOnUse"><path d="M0 1h502v285H0Z"/></clipPath><clipPath id="d" clipPathUnits="userSpaceOnUse"><path d="M0 1h502v285H0Z"/></clipPath><clipPath id="e" clipPathUnits="userSpaceOnUse"><path d="M0 1h502v285H0Z"/></clipPath><clipPath id="f" clipPathUnits="userSpaceOnUse"><path d="M77 65h401v185H77Z"/></clipPath><clipPath id="g" clipPathUnits="userSpaceOnUse"><path d="M77 65h401v185H77Z"/></clipPath><clipPath id="h" clipPathUnits="userSpaceOnUse"><path d="M77 65h401v185H77Z"/></clipPath><clipPath id="i" clipPathUnits="userSpaceOnUse"><path d="M77 65h401v185H77Z"/></clipPath><clipPath id="j" clipPathUnits="userSpaceOnUse"><path d="M77 65h401v185H77Z"/></clipPath><clipPath id="k" clipPathUnits="userSpaceOnUse"><path d="M77 65h401v185H77Z"/></clipPath><clipPath id="l" clipPathUnits="userSpaceOnUse"><path d="M77 65h401v185H77Z"/></clipPath><clipPath id="m" clipPathUnits="userSpaceOnUse"><path d="M77 64h400v186H77Z"/></clipPath><clipPath id="n" clipPathUnits="userSpaceOnUse"><path d="M77 64h400v186H77Z"/></clipPath><clipPath id="o" clipPathUnits="userSpaceOnUse"><path d="M77 64h400v186H77Z"/></clipPath><clipPath id="p" clipPathUnits="userSpaceOnUse"><path d="M77 64h400v186H77Z"/></clipPath><clipPath id="q" clipPathUnits="userSpaceOnUse"><path d="M77 64h400v186H77Z"/></clipPath><clipPath id="r" clipPathUnits="userSpaceOnUse"><path d="M77 64h400v186H77Z"/></clipPath><clipPath id="s" clipPathUnits="userSpaceOnUse"><path d="M77 64h400v186H77Z"/></clipPath><clipPath id="t" clipPathUnits="userSpaceOnUse"><path d="M0 1h502v285H0Z"/></clipPath><clipPath id="u" clipPathUnits="userSpaceOnUse"><path d="M77 65h400v185H77Z"/></clipPath><clipPath id="v" clipPathUnits="userSpaceOnUse"><path d="M77 65h400v185H77Z"/></clipPath><clipPath id="w" clipPathUnits="userSpaceOnUse"><path d="M77 65h400v185H77Z"/></clipPath><clipPath id="x" clipPathUnits="userSpaceOnUse"><path d="M0 1h502v285H0Z"/></clipPath><clipPath id="y" clipPathUnits="userSpaceOnUse"><path d="M0 1h502v285H0Z"/></clipPath><clipPath id="z" clipPathUnits="userSpaceOnUse"><path d="M0 1h502v285H0Z"/></clipPath><clipPath id="A" clipPathUnits="userSpaceOnUse"><path d="M0 1h502v285H0Z"/></clipPath><clipPath id="B" clipPathUnits="userSpaceOnUse"><path d="M0 1h502v285H0Z"/></clipPath><clipPath id="C" clipPathUnits="userSpaceOnUse"><path d="M0 1h502v285H0Z"/></clipPath><clipPath id="D" clipPathUnits="userSpaceOnUse"><path d="M0 1h502v285H0Z"/></clipPath><clipPath id="E" clipPathUnits="userSpaceOnUse"><path d="M0 1h502v285H0Z"/></clipPath><clipPath id="F" clipPathUnits="userSpaceOnUse"><path d="M0 1h502v285H0Z"/></clipPath><clipPath id="G" clipPathUnits="userSpaceOnUse"><path d="M0 1h502v285H0Z"/></clipPath><clipPath id="H" clipPathUnits="userSpaceOnUse"><path d="M0 1h502v285H0Z"/></clipPath><clipPath id="I" clipPathUnits="userSpaceOnUse"><path d="M0 1h502v285H0Z"/></clipPath><clipPath id="J" clipPathUnits="userSpaceOnUse"><path d="M0 1h502v285H0Z"/></clipPath><clipPath id="K" clipPathUnits="userSpaceOnUse"><path d="M0 1h502v285H0Z"/></clipPath><clipPath id="L" clipPathUnits="userSpaceOnUse"><path d="M0 1h502v285H0Z"/></clipPath><clipPath id="M" clipPathUnits="userSpaceOnUse"><path d="M0 1h502v285H0Z"/></clipPath><clipPath id="N" clipPathUnits="userSpaceOnUse"><path d="M0 1h502v285H0Z"/></clipPath><clipPath id="O" clipPathUnits="userSpaceOnUse"><path d="M0 1h502v285H0Z"/></clipPath><clipPath id="P" clipPathUnits="userSpaceOnUse"><path d="M0 1h502v285H0Z"/></clipPath><clipPath id="Q" clipPathUnits="userSpaceOnUse"><path d="M0 1h502v285H0Z"/></clipPath><clipPath id="R" clipPathUnits="userSpaceOnUse"><path d="M0 1h502v285H0Z"/></clipPath><clipPath id="S" clipPathUnits="userSpaceOnUse"><path d="M0 1h502v285H0Z"/></clipPath><clipPath id="T" clipPathUnits="userSpaceOnUse"><path d="M0 1h502v285H0Z"/></clipPath><clipPath id="U" clipPathUnits="userSpaceOnUse"><path d="M0 1h502v285H0Z"/></clipPath><clipPath id="V" clipPathUnits="userSpaceOnUse"><path d="M0 1h502v285H0Z"/></clipPath><clipPath id="W" clipPathUnits="userSpaceOnUse"><path d="M0 1h502v285H0Z"/></clipPath><clipPath id="X" clipPathUnits="userSpaceOnUse"><path d="M0 1h502v285H0Z"/></clipPath><clipPath id="Y" clipPathUnits="userSpaceOnUse"><path d="M0 1h502v285H0Z"/></clipPath><clipPath id="Z" clipPathUnits="userSpaceOnUse"><path d="M0 1h502v285H0Z"/></clipPath><clipPath id="aa" clipPathUnits="userSpaceOnUse"><path d="M0 1h502v285H0Z"/></clipPath><clipPath id="ab" clipPathUnits="userSpaceOnUse"><path d="M0 1h502v285H0Z"/></clipPath><clipPath id="ac" clipPathUnits="userSpaceOnUse"><path d="M0 1h502v285H0Z"/></clipPath><clipPath id="ad" clipPathUnits="userSpaceOnUse"><path d="M0 1h502v285H0Z"/></clipPath><clipPath id="ae" clipPathUnits="userSpaceOnUse"><path d="M0 1h502v285H0Z"/></clipPath><clipPath id="af" clipPathUnits="userSpaceOnUse"><path d="M0 1h502v285H0Z"/></clipPath></defs><g clip-path="url(#a)" transform="matrix(1.3333333 0 0 -1.3333333 0 381.33333)"><path d="M0 286h503V0H0Z" style="fill:#fff;fill-opacity:1;fill-rule:nonzero;stroke:none"/></g><path d="M1 285h501V0H1Z" style="fill:#fff;fill-opacity:1;fill-rule:nonzero;stroke:none" transform="matrix(1.3333333 0 0 -1.3333333 0 381.33333)"/><g clip-path="url(#b)" transform="matrix(1.3333333 0 0 -1.3333333 0 381.33333)"><path d="M0 2057400h5080000M0 1765300h5080000M0 1473200h5080000M0 1181100h5080000M0 889000h5080000M0 596900h5080000M0 292100h5080000M0 0h5080000" style="fill:none;stroke:#d9d9d9;stroke-width:9525;stroke-linecap:butt;stroke-linejoin:round;stroke-miterlimit:10;stroke-dasharray:none;stroke-opacity:1" transform="matrix(.00007874 0 0 -.00007874 77.5 249.5)"/></g><g clip-path="url(#c)" transform="matrix(1.3333333 0 0 -1.3333333 0 381.33333)"><path d="M723900 0v2349500M1460500 0v2349500M2184400 0v2349500M2908300 0v2349500M3632200 0v2349500M4356100 0v2349500M5080000 0v2349500" style="fill:none;stroke:#d9d9d9;stroke-width:9525;stroke-linecap:butt;stroke-linejoin:round;stroke-miterlimit:10;stroke-dasharray:none;stroke-opacity:1" transform="matrix(.00007874 0 0 -.00007874 77.5 249.5)"/></g><g clip-path="url(#d)" transform="matrix(1.3333333 0 0 -1.3333333 0 381.33333)"><path d="m0 0 1 2349500" style="fill:none;stroke:#bfbfbf;stroke-width:9525;stroke-linecap:butt;stroke-linejoin:round;stroke-miterlimit:10;stroke-dasharray:none;stroke-opacity:1" transform="translate(77.5 64.5) scale(.00007874)"/></g><g clip-path="url(#e)" transform="matrix(1.3333333 0 0 -1.3333333 0 381.33333)"><path d="m0 0 5080000 1" style="fill:none;stroke:#bfbfbf;stroke-width:9525;stroke-linecap:butt;stroke-linejoin:round;stroke-miterlimit:10;stroke-dasharray:none;stroke-opacity:1" transform="matrix(.00007874 0 0 -.00007874 77.5 64.5)"/></g><g clip-path="url(#f)" transform="matrix(1.3333333 0 0 -1.3333333 0 381.33333)"><path d="M25400 203200v215900m0-215900V0M0 419100h63500M0 0h63500" style="fill:none;stroke:#595959;stroke-width:9525;stroke-linecap:butt;stroke-linejoin:round;stroke-miterlimit:10;stroke-dasharray:none;stroke-opacity:1" transform="matrix(.00007874 0 0 -.00007874 75.5 112.5)"/></g><g clip-path="url(#g)" transform="matrix(1.3333333 0 0 -1.3333333 0 381.33333)"><path d="M25400 215900v215900m0-215900V0M0 431800h63500M0 0h63500" style="fill:none;stroke:#595959;stroke-width:9525;stroke-linecap:butt;stroke-linejoin:round;stroke-miterlimit:10;stroke-dasharray:none;stroke-opacity:1" transform="matrix(.00007874 0 0 -.00007874 132.5 123.5)"/></g><g clip-path="url(#h)" transform="matrix(1.3333333 0 0 -1.3333333 0 381.33333)"><path d="M38100 215900v215900m0-215900V0M0 431800h63500M0 0h63500" style="fill:none;stroke:#595959;stroke-width:9525;stroke-linecap:butt;stroke-linejoin:round;stroke-miterlimit:10;stroke-dasharray:none;stroke-opacity:1" transform="matrix(.00007874 0 0 -.00007874 189.5 138.5)"/></g><g clip-path="url(#i)" transform="matrix(1.3333333 0 0 -1.3333333 0 381.33333)"><path d="M38100 203200v228600m0-228600V0M0 431800h63500M0 0h63500" style="fill:none;stroke:#595959;stroke-width:9525;stroke-linecap:butt;stroke-linejoin:round;stroke-miterlimit:10;stroke-dasharray:none;stroke-opacity:1" transform="matrix(.00007874 0 0 -.00007874 246.5 143.5)"/></g><g clip-path="url(#j)" transform="matrix(1.3333333 0 0 -1.3333333 0 381.33333)"><path d="M25400 228600v241300m0-241300V0M0 469900h50800M0 0h50800" style="fill:none;stroke:#595959;stroke-width:9525;stroke-linecap:butt;stroke-linejoin:round;stroke-miterlimit:10;stroke-dasharray:none;stroke-opacity:1" transform="matrix(.00007874 0 0 -.00007874 304.5 170.5)"/></g><g clip-path="url(#k)" transform="matrix(1.3333333 0 0 -1.3333333 0 381.33333)"><path d="M25400 228600v241300m0-241300V0M0 469900h50800M0 0h50800" style="fill:none;stroke:#595959;stroke-width:9525;stroke-linecap:butt;stroke-linejoin:round;stroke-miterlimit:10;stroke-dasharray:none;stroke-opacity:1" transform="matrix(.00007874 0 0 -.00007874 361.5 175.5)"/></g><g clip-path="url(#l)" transform="matrix(1.3333333 0 0 -1.3333333 0 381.33333)"><path d="M25400 254000v266700m0-266700V0M0 520700h50800M0 0h50800" style="fill:none;stroke:#595959;stroke-width:9525;stroke-linecap:butt;stroke-linejoin:round;stroke-miterlimit:10;stroke-dasharray:none;stroke-opacity:1" transform="matrix(.00007874 0 0 -.00007874 418.5 225.5)"/></g><g clip-path="url(#m)" transform="matrix(1.3333333 0 0 -1.3333333 0 381.33333)"><path d="M0 25400h12700M0 0v50800M12700 0v50800" style="fill:none;stroke:#595959;stroke-width:9525;stroke-linecap:butt;stroke-linejoin:round;stroke-miterlimit:10;stroke-dasharray:none;stroke-opacity:1" transform="matrix(.00007874 0 0 -.00007874 77.5 98.5)"/></g><g clip-path="url(#n)" transform="matrix(1.3333333 0 0 -1.3333333 0 381.33333)"><path d="M0 25400h12700M0 0v50800M12700 0v50800" style="fill:none;stroke:#595959;stroke-width:9525;stroke-linecap:butt;stroke-linejoin:round;stroke-miterlimit:10;stroke-dasharray:none;stroke-opacity:1" transform="matrix(.00007874 0 0 -.00007874 134.5 108.5)"/></g><g clip-path="url(#o)" transform="matrix(1.3333333 0 0 -1.3333333 0 381.33333)"><path d="M12700 38100H0M0 0v63500M12700 0v63500" style="fill:none;stroke:#595959;stroke-width:9525;stroke-linecap:butt;stroke-linejoin:round;stroke-miterlimit:10;stroke-dasharray:none;stroke-opacity:1" transform="matrix(.00007874 0 0 -.00007874 191.5 124.5)"/></g><g clip-path="url(#p)" transform="matrix(1.3333333 0 0 -1.3333333 0 381.33333)"><path d="M0 25400h12700M0 0v63500M12700 0v63500" style="fill:none;stroke:#595959;stroke-width:9525;stroke-linecap:butt;stroke-linejoin:round;stroke-miterlimit:10;stroke-dasharray:none;stroke-opacity:1" transform="matrix(.00007874 0 0 -.00007874 249.5 129.5)"/></g><g clip-path="url(#q)" transform="matrix(1.3333333 0 0 -1.3333333 0 381.33333)"><path d="M0 25400h12700M0 0v50800M12700 0v50800" style="fill:none;stroke:#595959;stroke-width:9525;stroke-linecap:butt;stroke-linejoin:round;stroke-miterlimit:10;stroke-dasharray:none;stroke-opacity:1" transform="matrix(.00007874 0 0 -.00007874 306.5 154.5)"/></g><g clip-path="url(#r)" transform="matrix(1.3333333 0 0 -1.3333333 0 381.33333)"><path d="M0 38100h12700M0 0v63500M12700 0v63500" style="fill:none;stroke:#595959;stroke-width:9525;stroke-linecap:butt;stroke-linejoin:round;stroke-miterlimit:10;stroke-dasharray:none;stroke-opacity:1" transform="matrix(.00007874 0 0 -.00007874 363.5 160.5)"/></g><g clip-path="url(#s)" transform="matrix(1.3333333 0 0 -1.3333333 0 381.33333)"><path d="M0 25400h12700M0 0v50800M12700 0v50800" style="fill:none;stroke:#595959;stroke-width:9525;stroke-linecap:butt;stroke-linejoin:round;stroke-miterlimit:10;stroke-dasharray:none;stroke-opacity:1" transform="matrix(.00007874 0 0 -.00007874 420.5 207.5)"/></g><g clip-path="url(#t)" transform="matrix(1.3333333 0 0 -1.3333333 0 381.33333)"><path d="M78.103 97.69a2 2 0 1 0-4 0 2 2 0 0 0 4 0z" style="fill:#4285f4;fill-opacity:1;fill-rule:nonzero;stroke:none"/><path d="M57150 31750c0 14028.03-11371.97 25400-25400 25400S6350 45778.03 6350 31750 17721.97 6350 31750 6350s25400 11371.97 25400 25400z" style="fill:none;stroke:#4285f4;stroke-width:9525;stroke-linecap:butt;stroke-linejoin:round;stroke-miterlimit:10;stroke-dasharray:none;stroke-opacity:1" transform="matrix(.00007874 0 0 -.00007874 73.60299 100.1898)"/><path d="M135.103 107.69a2 2 0 1 0-4 0 2 2 0 0 0 4 0z" style="fill:#4285f4;fill-opacity:1;fill-rule:nonzero;stroke:none"/><path d="M57150 31750c0 14028.03-11371.97 25400-25400 25400S6350 45778.03 6350 31750 17721.97 6350 31750 6350s25400 11371.97 25400 25400z" style="fill:none;stroke:#4285f4;stroke-width:9525;stroke-linecap:butt;stroke-linejoin:round;stroke-miterlimit:10;stroke-dasharray:none;stroke-opacity:1" transform="matrix(.00007874 0 0 -.00007874 130.603 110.1898)"/><path d="M193.103 122.69a2 2 0 1 0-4 0 2 2 0 0 0 4 0z" style="fill:#4285f4;fill-opacity:1;fill-rule:nonzero;stroke:none"/><path d="M57150 31750c0 14028.03-11371.97 25400-25400 25400S6350 45778.03 6350 31750 17721.97 6350 31750 6350s25400 11371.97 25400 25400z" style="fill:none;stroke:#4285f4;stroke-width:9525;stroke-linecap:butt;stroke-linejoin:round;stroke-miterlimit:10;stroke-dasharray:none;stroke-opacity:1" transform="matrix(.00007874 0 0 -.00007874 188.603 125.1898)"/><path d="M250.103 128.69a2 2 0 1 0-4 0 2 2 0 0 0 4 0z" style="fill:#4285f4;fill-opacity:1;fill-rule:nonzero;stroke:none"/><path d="M57150 31750c0 14028.03-11371.97 25400-25400 25400S6350 45778.03 6350 31750 17721.97 6350 31750 6350s25400 11371.97 25400 25400z" style="fill:none;stroke:#4285f4;stroke-width:9525;stroke-linecap:butt;stroke-linejoin:round;stroke-miterlimit:10;stroke-dasharray:none;stroke-opacity:1" transform="matrix(.00007874 0 0 -.00007874 245.603 131.1898)"/><path d="M307.103 153.69a2 2 0 1 0-4 0 2 2 0 0 0 4 0z" style="fill:#4285f4;fill-opacity:1;fill-rule:nonzero;stroke:none"/><path d="M57150 31750c0 14028.03-11371.97 25400-25400 25400S6350 45778.03 6350 31750 17721.97 6350 31750 6350s25400 11371.97 25400 25400z" style="fill:none;stroke:#4285f4;stroke-width:9525;stroke-linecap:butt;stroke-linejoin:round;stroke-miterlimit:10;stroke-dasharray:none;stroke-opacity:1" transform="matrix(.00007874 0 0 -.00007874 302.603 156.1898)"/><path d="M364.103 158.69a2 2 0 1 0-4 0 2 2 0 0 0 4 0z" style="fill:#4285f4;fill-opacity:1;fill-rule:nonzero;stroke:none"/><path d="M57150 31750c0 14028.03-11371.97 25400-25400 25400S6350 45778.03 6350 31750 17721.97 6350 31750 6350s25400 11371.97 25400 25400z" style="fill:none;stroke:#4285f4;stroke-width:9525;stroke-linecap:butt;stroke-linejoin:round;stroke-miterlimit:10;stroke-dasharray:none;stroke-opacity:1" transform="matrix(.00007874 0 0 -.00007874 359.603 161.1898)"/><path d="M421.103 206.69a2 2 0 1 0-4 0 2 2 0 0 0 4 0z" style="fill:#4285f4;fill-opacity:1;fill-rule:nonzero;stroke:none"/><path d="M57150 31750c0 14028.03-11371.97 25400-25400 25400S6350 45778.03 6350 31750 17721.97 6350 31750 6350s25400 11371.97 25400 25400z" style="fill:none;stroke:#4285f4;stroke-width:9525;stroke-linecap:butt;stroke-linejoin:round;stroke-miterlimit:10;stroke-dasharray:none;stroke-opacity:1" transform="matrix(.00007874 0 0 -.00007874 416.603 209.1898)"/></g><g clip-path="url(#u)" transform="matrix(1.3333333 0 0 -1.3333333 0 381.33333)"><path d="M78.207 88.279h.001a.75.75 0 1 1-.413 1.442h-.002a.75.75 0 1 1 .414-1.442zm2.885.827h.001a.75.75 0 0 1-.413 1.442h-.001a.75.75 0 1 1 .413-1.442zm2.885.827h.002a.75.75 0 0 1-.413 1.442h-.002a.75.75 0 1 1 .413-1.442zm2.886.826h.001a.75.75 0 1 1-.413 1.443h-.001a.75.75 0 0 1 .413-1.443zm2.885.827h.001a.75.75 0 0 1-.413 1.443h-.001a.75.75 0 1 1 .413-1.443zm2.885.827h.002a.75.75 0 1 1-.413 1.442h-.002a.75.75 0 0 1 .413-1.442zm2.886.827h.001a.75.75 0 1 1-.413 1.442h-.001a.75.75 0 0 1 .413-1.442zm2.885.827h.002a.75.75 0 0 1-.414 1.442h-.001a.75.75 0 1 1 .413-1.442zm2.886.826a.75.75 0 1 1-.413 1.443.75.75 0 1 1 .413-1.443zm2.885.827h.001a.75.75 0 1 1-.413 1.443h-.001a.75.75 0 1 1 .413-1.443zm2.885.827h.001a.75.75 0 0 1-.413 1.442.75.75 0 1 1 .412-1.442zm2.886.827a.75.75 0 0 1-.413 1.442.75.75 0 1 1 .413-1.442zm2.885.827h.002a.75.75 0 0 1-.413 1.442h-.002a.75.75 0 0 1 .413-1.442zm2.886.826a.75.75 0 0 1-.413 1.443.75.75 0 1 1 .413-1.443zm2.885.827h.001a.75.75 0 0 1-.413 1.443h-.001a.75.75 0 1 1 .413-1.443zm2.885.827h.001a.75.75 0 0 1-.413 1.442h-.001a.75.75 0 1 1 .413-1.442zm2.886.827h.002a.75.75 0 0 1-.414 1.442h-.002a.75.75 0 0 1 .414-1.442zm2.885.827h.001a.75.75 0 0 1-.413 1.442h-.001a.75.75 0 1 1 .413-1.442zm2.886.827a.75.75 0 0 1-.413 1.442.75.75 0 1 1 .413-1.442zm2.885.826h.002a.75.75 0 0 1-.414 1.443.75.75 0 1 1 .413-1.443zm2.885.827h.001a.75.75 0 0 1-.413 1.442h-.001a.75.75 0 1 1 .413-1.442zm2.886.827a.75.75 0 0 1-.413 1.442.75.75 0 1 1 .413-1.442zm2.885.827h.001a.75.75 0 0 1-.413 1.442h-.001a.75.75 0 1 1 .413-1.442zm2.885.827h.001a.75.75 0 0 1-.413 1.442h-.001a.75.75 0 1 1 .413-1.442zm2.886.826a.75.75 0 0 1-.413 1.443.75.75 0 1 1 .413-1.443zm2.885.827h.001a.75.75 0 0 1-.413 1.443l-.001-.001a.75.75 0 1 1 .413-1.442zm2.886.827a.75.75 0 1 1-.413 1.442.75.75 0 0 1 .413-1.442zm2.885.827h.002a.75.75 0 1 1-.414 1.442h-.002a.75.75 0 0 1 .414-1.442zm2.885.827h.001a.75.75 0 1 1-.413 1.442h-.001a.75.75 0 0 1 .413-1.442zm2.885.826a.75.75 0 1 1-.411 1.443h-.002a.75.75 0 0 1 .412-1.443zm2.885.827h.001a.75.75 0 0 1-.412 1.443.75.75 0 0 1 .411-1.443zm2.886.827a.75.75 0 0 1-.411 1.443h-.001a.75.75 0 0 1 .412-1.443zm2.885.827h.001a.75.75 0 1 1-.412 1.442h-.001a.75.75 0 1 1 .412-1.442zm2.886.826a.75.75 0 1 1-.412 1.443.75.75 0 1 1 .412-1.443zm2.885.827h.002a.75.75 0 1 1-.412 1.443h-.001a.75.75 0 0 1 .412-1.443zm2.885.827h.001a.75.75 0 1 1-.412 1.443.75.75 0 0 1 .411-1.443zm2.886.827a.75.75 0 0 1-.411 1.443h-.002a.75.75 0 0 1 .412-1.443zm2.885.827h.001a.75.75 0 0 1-.412 1.442h-.001a.75.75 0 1 1 .412-1.442zm2.885.826h.001a.75.75 0 1 1-.412 1.443.75.75 0 1 1 .411-1.443zm2.886.827a.75.75 0 1 1-.411 1.443h-.001a.75.75 0 1 1 .412-1.443zm2.885.827h.001a.75.75 0 1 1-.412 1.443h-.001a.75.75 0 0 1 .412-1.443zm2.886.827h.002a.75.75 0 0 1-.413 1.443.75.75 0 0 1 .412-1.443zm2.885.827a.75.75 0 0 1-.411 1.442h-.001a.75.75 0 1 1 .412-1.442zm2.885.826h.001a.75.75 0 1 1-.412 1.443.75.75 0 1 1 .411-1.443zm2.886.827a.75.75 0 1 1-.411 1.443h-.001a.75.75 0 0 1 .412-1.443zm2.885.827h.001a.75.75 0 0 1-.412 1.443h-.002a.75.75 0 1 1 .412-1.443zm2.885.827h.001a.75.75 0 1 1-.412 1.443.75.75 0 1 1 .411-1.443zm2.886.827a.75.75 0 0 1-.411 1.442h-.001a.75.75 0 1 1 .412-1.442zm2.885.826h.001a.75.75 0 0 1-.412 1.443h-.001a.75.75 0 0 1 .412-1.443zm2.886.827h.002a.75.75 0 0 1-.413 1.443.75.75 0 1 1 .412-1.443zm2.885.827a.75.75 0 1 1-.411 1.443h-.001a.75.75 0 1 1 .412-1.443zm2.885.827h.001a.75.75 0 1 1-.412 1.443.75.75 0 1 1 .411-1.443zm2.886.827a.75.75 0 1 1-.411 1.442h-.002a.75.75 0 0 1 .412-1.442zm2.885.826h.001a.75.75 0 0 1-.412 1.443h-.002a.75.75 0 1 1 .412-1.443zm2.885.827h.001a.75.75 0 1 1-.412 1.443.75.75 0 1 1 .411-1.443zm2.886.827a.75.75 0 1 1-.411 1.443h-.001a.75.75 0 1 1 .412-1.443zm2.885.827h.001a.75.75 0 1 1-.412 1.443h-.001a.75.75 0 0 1 .412-1.443zm2.886.827a.75.75 0 0 1-.411 1.442h-.001a.75.75 0 1 1 .412-1.442zm2.886.827h.001a.75.75 0 0 1-.414 1.442h-.001a.75.75 0 0 1 .414-1.442zm2.886.827a.75.75 0 0 1-.414 1.442h-.001a.75.75 0 0 1 .414-1.442zm2.885.826a.75.75 0 0 1-.414 1.442.75.75 0 0 1 .414-1.442zm2.885.827h.001a.75.75 0 0 1-.414 1.442h-.001a.75.75 0 0 1 .414-1.442zm2.886.827a.75.75 0 0 1-.414 1.442h-.001a.75.75 0 0 1 .415-1.442zm2.885.827h.002a.75.75 0 0 1-.415 1.442.75.75 0 0 1 .414-1.442zm2.885.827h.002a.75.75 0 0 1-.414 1.442h-.001a.75.75 0 0 1 .414-1.442zm2.886.826a.75.75 0 0 1-.414 1.442.75.75 0 0 1 .414-1.442zm2.885.827h.001a.75.75 0 0 1-.414 1.442h-.001a.75.75 0 0 1 .414-1.442zm2.886.827h.002a.75.75 0 0 1-.415 1.442h-.001a.75.75 0 0 1 .414-1.442zm2.885.827h.002a.75.75 0 0 1-.415 1.442h-.002a.75.75 0 0 1 .415-1.442zm2.885.827h.001a.75.75 0 1 1-.414 1.442h-.001a.75.75 0 0 1 .414-1.442zm2.886.826a.75.75 0 1 1-.414 1.442h-.001a.75.75 0 1 1 .415-1.442zm2.885.827h.001a.75.75 0 0 1-.415 1.442.75.75 0 0 1 .414-1.442zm2.885.827h.001a.75.75 0 1 1-.414 1.442h-.002a.75.75 0 0 1 .415-1.442zm2.886.827a.75.75 0 1 1-.414 1.442.75.75 0 0 1 .414-1.442zm2.885.827h.001a.75.75 0 1 1-.414 1.442h-.001a.75.75 0 1 1 .414-1.442zm2.886.826h.002a.75.75 0 0 1-.415 1.442h-.001a.75.75 0 0 1 .415-1.442zm2.885.827a.75.75 0 1 1-.414 1.442.75.75 0 0 1 .414-1.442zm2.885.827h.001a.75.75 0 1 1-.414 1.442h-.001a.75.75 0 1 1 .414-1.442zm2.886.827a.75.75 0 1 1-.414 1.442h-.001a.75.75 0 1 1 .415-1.442zm2.885.827h.002a.75.75 0 0 1-.415 1.442h-.002a.75.75 0 0 1 .415-1.442zm2.885.826h.001a.75.75 0 1 1-.414 1.442h-.001a.75.75 0 1 1 .415-1.442zm2.886.827a.75.75 0 1 1-.414 1.442.75.75 0 1 1 .414-1.442zm2.885.827h.001a.75.75 0 1 1-.414 1.442h-.001a.75.75 0 1 1 .414-1.442zm2.886.827h.002a.75.75 0 0 1-.415 1.442h-.002a.75.75 0 0 1 .415-1.442zm2.885.827a.75.75 0 1 1-.414 1.442h-.002a.75.75 0 1 1 .415-1.442zm2.885.826h.001a.75.75 0 1 1-.414 1.442h-.001a.75.75 0 1 1 .414-1.442zm2.886.827a.75.75 0 0 1-.414 1.442h-.001a.75.75 0 0 1 .415-1.442zm2.885.827h.001a.75.75 0 1 1-.415 1.442h-.002a.75.75 0 1 1 .415-1.442zm2.885.827h.001a.75.75 0 1 1-.414 1.442h-.001a.75.75 0 1 1 .414-1.442zm2.886.827h.002a.75.75 0 0 1-.415 1.442h-.001a.75.75 0 0 1 .415-1.442zm2.885.826h.001a.75.75 0 1 1-.415 1.442.75.75 0 1 1 .414-1.442zm2.885.827h.001a.75.75 0 1 1-.414 1.442h-.001a.75.75 0 1 1 .414-1.442zm2.886.827a.75.75 0 0 1-.414 1.442h-.002a.75.75 0 0 1 .415-1.442zm2.885.827h.001a.75.75 0 1 1-.415 1.442.75.75 0 1 1 .414-1.442zm2.886.827a.75.75 0 1 1-.414 1.442h-.001a.75.75 0 1 1 .415-1.442zm2.885.826a.75.75 0 0 1-.414 1.442.75.75 0 1 1 .414-1.442zm2.885.827h.001a.75.75 0 1 1-.414 1.442h-.001a.75.75 0 1 1 .414-1.442zm2.886.827a.75.75 0 0 1-.414 1.442h-.001a.75.75 0 1 1 .415-1.442zm2.885.827h.002a.75.75 0 0 1-.415 1.442.75.75 0 1 1 .414-1.442zm2.885.827h.002a.75.75 0 0 1-.414 1.442h-.001a.75.75 0 0 1 .414-1.442zm2.886.826a.75.75 0 1 1-.414 1.442.75.75 0 0 1 .414-1.442zm2.885.827h.001a.75.75 0 0 1-.415 1.442.75.75 0 0 1 .414-1.442zm2.885.827h.002a.75.75 0 0 1-.414 1.442h-.001a.75.75 0 0 1 .414-1.442zm2.886.827a.75.75 0 1 1-.414 1.442.75.75 0 0 1 .414-1.442zm2.885.827h.001a.75.75 0 0 1-.414 1.442h-.001a.75.75 0 1 1 .414-1.442zm2.886.826a.75.75 0 0 1-.414 1.442h-.001a.75.75 0 0 1 .414-1.442zm2.885.827h.001a.75.75 0 0 1-.415 1.442h-.002a.75.75 0 0 1 .415-1.442zm2.885.827h.001a.75.75 0 1 1-.414 1.442h-.001a.75.75 0 0 1 .414-1.442zm2.886.827h.002a.75.75 0 0 1-.415 1.442h-.001a.75.75 0 0 1 .415-1.442zm2.885.827h.002a.75.75 0 0 1-.415 1.442.75.75 0 0 1 .414-1.442zm2.885.826.001.001a.75.75 0 1 1-.414 1.441h-.001a.75.75 0 0 1 .414-1.442zm2.886.827a.75.75 0 1 1-.414 1.442.75.75 0 1 1 .414-1.442zm2.885.827h.002a.75.75 0 0 1-.415 1.442.75.75 0 0 1 .414-1.442zm2.886.827a.75.75 0 1 1-.414 1.442h-.001a.75.75 0 1 1 .415-1.442zm2.885.827h.001a.75.75 0 1 1-.415 1.442.75.75 0 1 1 .414-1.442zm2.883.826a.75.75 0 1 1-.409 1.443h-.002a.75.75 0 1 1 .41-1.443zm2.885.827h.001a.75.75 0 1 1-.41 1.443.75.75 0 1 1 .41-1.443zm2.885.826h.002a.75.75 0 1 1-.41 1.444.75.75 0 1 1 .41-1.444zm2.886.827a.75.75 0 1 1-.409 1.444h-.002a.75.75 0 0 1 .41-1.444z" style="fill:#4285f4;fill-opacity:1;fill-rule:nonzero;stroke:none"/></g><g clip-path="url(#v)" transform="matrix(1.3333333 0 0 -1.3333333 0 381.33333)"><path d="M78.294 80.31h.002a.75.75 0 0 1-.59 1.38.75.75 0 0 1 .588-1.38zm2.761 1.179h.001a.75.75 0 1 1-.589 1.38h-.001a.75.75 0 0 1 .589-1.38zm2.76 1.178h.002a.75.75 0 0 1-.589 1.38h-.001a.75.75 0 0 1 .588-1.38zm2.76 1.179h.002a.75.75 0 0 1-.589 1.38h-.001a.75.75 0 1 1 .589-1.38zm2.761 1.178h.002a.75.75 0 0 1-.59 1.38.75.75 0 0 1 .588-1.38zm2.76 1.178.002.001a.75.75 0 1 1-.589 1.38l-.001-.001a.75.75 0 1 1 .589-1.38zm2.761 1.179h.002a.75.75 0 1 1-.59 1.38.75.75 0 1 1 .588-1.38zm2.76 1.178.002.001a.75.75 0 1 1-.589 1.38l-.001-.001a.75.75 0 1 1 .589-1.38zm2.761 1.179h.001a.75.75 0 1 1-.588 1.38h-.002a.75.75 0 1 1 .589-1.38zm2.76 1.178h.002a.75.75 0 0 1-.59 1.38.75.75 0 1 1 .589-1.38zm2.761 1.179h.001a.75.75 0 0 1-.589 1.38.75.75 0 0 1 .588-1.38zm2.76 1.178h.002a.75.75 0 1 1-.59 1.38.75.75 0 0 1 .589-1.38zm2.761 1.179h.001a.75.75 0 1 1-.589 1.38.75.75 0 0 1 .588-1.38zm2.76 1.178h.002a.75.75 0 0 1-.59 1.38.75.75 0 1 1 .589-1.38zm2.761 1.179h.001a.75.75 0 0 1-.589 1.38.75.75 0 1 1 .588-1.38zm2.761 1.178h.001a.75.75 0 1 1-.59 1.38.75.75 0 0 1 .59-1.38zm2.76 1.179h.002a.75.75 0 0 1-.59 1.38l-.001-.001a.75.75 0 1 1 .59-1.38zm2.761 1.178h.001a.75.75 0 1 1-.59 1.38.75.75 0 1 1 .589-1.38zm2.76 1.178h.001a.75.75 0 1 1-.589 1.38.75.75 0 1 1 .588-1.38zm2.76 1.179h.001a.75.75 0 1 1-.588 1.38h-.001a.75.75 0 0 1 .588-1.38zm2.761 1.178h.001a.75.75 0 1 1-.589 1.38.75.75 0 1 1 .588-1.38zm2.76 1.179h.001a.75.75 0 0 1-.588 1.38h-.001a.75.75 0 1 1 .589-1.38zm2.761 1.178h.001a.75.75 0 1 1-.589 1.38.75.75 0 1 1 .588-1.38zm2.76 1.179h.001a.75.75 0 1 1-.588 1.38h-.001a.75.75 0 0 1 .588-1.38zm2.76 1.178h.002a.75.75 0 1 1-.589 1.38.75.75 0 1 1 .588-1.38zm2.761 1.178.001.001a.75.75 0 0 1-.588 1.38h-.001a.75.75 0 1 1 .588-1.38zm2.76 1.179h.002a.75.75 0 1 1-.589 1.38.75.75 0 1 1 .588-1.38zm2.761 1.178h.001a.75.75 0 0 1-.588 1.38h-.001a.75.75 0 0 1 .588-1.38zm2.76 1.179h.002a.75.75 0 1 1-.589 1.38h-.001a.75.75 0 0 1 .589-1.38zm2.761 1.178h.001a.75.75 0 0 1-.588 1.38h-.001a.75.75 0 1 1 .588-1.38zm2.76 1.179h.002a.75.75 0 0 1-.589 1.38h-.001a.75.75 0 1 1 .589-1.38zm2.761 1.178h.001a.75.75 0 0 1-.588 1.38h-.001a.75.75 0 1 1 .588-1.38zm2.76 1.179h.002a.75.75 0 1 1-.59 1.38.75.75 0 0 1 .589-1.38zm2.761 1.178h.001a.75.75 0 0 1-.589 1.38.75.75 0 0 1 .588-1.38zm2.76 1.178.002.001a.75.75 0 1 1-.59 1.38.75.75 0 1 1 .589-1.38zm2.761 1.179h.001a.75.75 0 0 1-.589 1.38.75.75 0 1 1 .588-1.38zm2.762 1.179a.75.75 0 0 1-.59 1.38l-.001-.001a.75.75 0 0 1 .59-1.38zm2.76 1.178h.001a.75.75 0 0 1-.59 1.38l-.002-.001a.75.75 0 1 1 .591-1.379zm2.76 1.179h.002a.75.75 0 0 1-.591 1.38l-.001-.002a.75.75 0 0 1 .59-1.378zm2.761 1.178h.001a.75.75 0 0 1-.59 1.38l-.002-.001a.75.75 0 1 1 .591-1.379zm2.76 1.179h.002a.75.75 0 0 1-.591 1.379h-.001a.75.75 0 0 1 .59-1.38zm2.761 1.178h.001a.75.75 0 0 1-.59 1.38l-.002-.001a.75.75 0 0 1 .591-1.379zm2.76 1.179h.002a.75.75 0 0 1-.591 1.379h-.001a.75.75 0 0 1 .59-1.38zm2.761 1.178h.001a.75.75 0 0 1-.59 1.38l-.002-.001a.75.75 0 1 1 .591-1.379zm2.76 1.178.002.001a.75.75 0 0 1-.591 1.379h-.001a.75.75 0 0 1 .59-1.38zm2.761 1.179h.001a.75.75 0 0 1-.59 1.38l-.002-.001a.75.75 0 1 1 .591-1.38zm2.76 1.178h.002a.75.75 0 0 1-.591 1.38h-.001a.75.75 0 0 1 .59-1.38zm2.761 1.179h.001a.75.75 0 0 1-.59 1.38l-.002-.002a.75.75 0 0 1 .591-1.378zm2.76 1.178h.002a.75.75 0 0 1-.591 1.38l-.001-.001a.75.75 0 0 1 .59-1.379zm2.761 1.179h.001a.75.75 0 0 1-.59 1.379h-.002a.75.75 0 1 1 .591-1.38zm2.76 1.178h.002a.75.75 0 0 1-.591 1.38l-.001-.001a.75.75 0 0 1 .59-1.379zm2.76 1.179h.002a.75.75 0 0 1-.591 1.379h-.001a.75.75 0 0 1 .59-1.38zm2.761 1.178h.001a.75.75 0 0 1-.59 1.38l-.001-.001a.75.75 0 0 1 .59-1.379zm2.76 1.179h.002a.75.75 0 0 1-.591 1.379h-.001a.75.75 0 1 1 .59-1.38zm2.761 1.178h.001a.75.75 0 0 1-.59 1.38l-.001-.001a.75.75 0 0 1 .59-1.38zm2.76 1.178.002.001a.75.75 0 0 1-.591 1.379h-.001a.75.75 0 1 1 .59-1.38zm2.761 1.179h.001a.75.75 0 0 1-.59 1.38l-.002-.001a.75.75 0 0 1 .591-1.38zm2.76 1.178h.002a.75.75 0 0 1-.591 1.38l-.001-.001a.75.75 0 1 1 .59-1.379zm2.761 1.179h.001a.75.75 0 0 1-.59 1.38l-.001-.001a.75.75 0 0 1 .59-1.38zm2.76 1.178h.002a.75.75 0 0 1-.591 1.38l-.001-.001a.75.75 0 0 1 .59-1.379zm2.761 1.179h.001a.75.75 0 0 1-.59 1.379h-.002a.75.75 0 0 1 .591-1.38zm2.76 1.178h.002a.75.75 0 0 1-.591 1.38l-.001-.001a.75.75 0 0 1 .59-1.379zm2.761 1.179h.001a.75.75 0 0 1-.59 1.379h-.002a.75.75 0 1 1 .591-1.38zm2.76 1.178h.002a.75.75 0 0 1-.591 1.38l-.001-.001a.75.75 0 0 1 .59-1.379zm2.761 1.178.001.001a.75.75 0 0 1-.59 1.379h-.002a.75.75 0 0 1 .591-1.38zm2.76 1.179h.002a.75.75 0 0 1-.591 1.38l-.001-.001a.75.75 0 0 1 .59-1.38zm2.761 1.178h.001a.75.75 0 0 1-.59 1.38h-.002a.75.75 0 0 1 .59-1.38zm2.76 1.179h.002a.75.75 0 0 1-.591 1.38l-.001-.001a.75.75 0 0 1 .59-1.38zm2.761 1.178h.001a.75.75 0 0 1-.59 1.38l-.002-.001a.75.75 0 0 1 .591-1.379zm2.76 1.179h.001a.75.75 0 1 1-.59 1.379h-.001a.75.75 0 0 1 .59-1.38zm2.76 1.178h.002a.75.75 0 0 1-.591 1.38l-.001-.001a.75.75 0 0 1 .59-1.379zm2.761 1.179h.001a.75.75 0 0 1-.59 1.379h-.001a.75.75 0 1 1 .59-1.38zm2.76 1.178h.002a.75.75 0 0 1-.59 1.38l-.002-.001a.75.75 0 0 1 .591-1.379zm2.761 1.179h.001a.75.75 0 0 1-.59 1.379h-.002a.75.75 0 1 1 .591-1.38zm2.76 1.178h.002a.75.75 0 1 1-.591 1.38l-.001-.001a.75.75 0 0 1 .59-1.379zm2.761 1.178.001.001a.75.75 0 0 1-.59 1.379h-.002a.75.75 0 1 1 .591-1.38zm2.76 1.179h.002a.75.75 0 1 1-.591 1.38l-.001-.001a.75.75 0 0 1 .59-1.38zm2.761 1.178h.001a.75.75 0 0 1-.59 1.38h-.002a.75.75 0 0 1 .591-1.38zm2.76 1.179h.002a.75.75 0 1 1-.591 1.38l-.001-.001a.75.75 0 0 1 .59-1.38zm2.761 1.178h.001a.75.75 0 0 1-.59 1.38l-.002-.001a.75.75 0 0 1 .591-1.379zm2.76 1.179h.002a.75.75 0 1 1-.591 1.379h-.001a.75.75 0 0 1 .59-1.38zm2.761 1.178h.001a.75.75 0 0 1-.59 1.38l-.002-.001a.75.75 0 0 1 .591-1.379zm2.76 1.179h.002a.75.75 0 0 1-.591 1.379h-.001a.75.75 0 1 1 .59-1.38zm2.761 1.178h.001a.75.75 0 0 1-.59 1.38l-.002-.001a.75.75 0 0 1 .591-1.379zm2.76 1.179h.002a.75.75 0 0 1-.591 1.379h-.001a.75.75 0 1 1 .59-1.38zm2.761 1.178h.001a.75.75 0 0 1-.59 1.38l-.002-.001a.75.75 0 0 1 .591-1.38zm2.76 1.178.001.001a.75.75 0 0 1-.59 1.379h-.001a.75.75 0 0 1 .59-1.38zm2.761 1.179h.001a.75.75 0 1 1-.59 1.38l-.002-.001a.75.75 0 0 1 .591-1.38zm2.76 1.178h.001a.75.75 0 1 1-.59 1.38l-.002-.001a.75.75 0 0 1 .591-1.379zm2.76 1.179h.002a.75.75 0 0 1-.591 1.379h-.001a.75.75 0 0 1 .59-1.38zm2.761 1.178h.001a.75.75 0 1 1-.59 1.38l-.001-.001a.75.75 0 0 1 .59-1.379zm2.76 1.179h.002a.75.75 0 0 1-.591 1.379h-.001a.75.75 0 1 1 .59-1.38zm2.761 1.178h.001a.75.75 0 1 1-.59 1.38l-.002-.001a.75.75 0 0 1 .591-1.379zm2.76 1.179h.002a.75.75 0 0 1-.591 1.379h-.001a.75.75 0 1 1 .59-1.38zm2.761 1.178h.001a.75.75 0 1 1-.59 1.38l-.002-.001a.75.75 0 0 1 .591-1.379zm2.76 1.178.002.001a.75.75 0 0 1-.591 1.379h-.001a.75.75 0 1 1 .59-1.38zm2.761 1.179h.001a.75.75 0 1 1-.59 1.38l-.002-.001a.75.75 0 0 1 .591-1.38zm2.76 1.178h.002a.75.75 0 0 1-.591 1.38l-.001-.001a.75.75 0 1 1 .59-1.379zm2.761 1.179h.001a.75.75 0 1 1-.59 1.38l-.002-.001a.75.75 0 0 1 .591-1.38zm2.76 1.178h.002a.75.75 0 0 1-.591 1.38l-.001-.001a.75.75 0 1 1 .59-1.379zm2.761 1.179h.001a.75.75 0 0 1-.59 1.379h-.002a.75.75 0 0 1 .591-1.38zm2.76 1.178h.002a.75.75 0 0 1-.591 1.38l-.001-.001a.75.75 0 0 1 .59-1.379zm2.761 1.179h.001a.75.75 0 0 1-.59 1.379h-.002a.75.75 0 0 1 .591-1.38zm2.76 1.178h.002a.75.75 0 0 1-.591 1.38l-.001-.001a.75.75 0 0 1 .59-1.379zm2.761 1.179h.001a.75.75 0 0 1-.59 1.379h-.002a.75.75 0 1 1 .591-1.38zm2.76 1.178h.001a.75.75 0 0 1-.59 1.38l-.001-.001a.75.75 0 1 1 .59-1.38zm2.761 1.178h.001a.75.75 0 0 1-.59 1.38h-.002a.75.75 0 0 1 .59-1.38zm2.76 1.179h.001a.75.75 0 0 1-.59 1.38l-.001-.001a.75.75 0 0 1 .59-1.38zm2.761 1.178h.001a.75.75 0 0 1-.59 1.38l-.002-.001a.75.75 0 0 1 .591-1.379zm2.76 1.179h.001a.75.75 0 0 1-.59 1.379h-.001a.75.75 0 0 1 .59-1.38zm2.761 1.178h.001a.75.75 0 0 1-.59 1.38l-.002-.001a.75.75 0 0 1 .591-1.379zm2.76 1.179h.001a.75.75 0 1 1-.59 1.379h-.001a.75.75 0 0 1 .59-1.38zm2.76 1.178h.002a.75.75 0 0 1-.59 1.38l-.002-.001a.75.75 0 1 1 .59-1.379zm2.761 1.179h.001a.75.75 0 1 1-.59 1.379h-.002a.75.75 0 0 1 .591-1.38zm2.76 1.178h.002a.75.75 0 0 1-.591 1.38l-.001-.001a.75.75 0 0 1 .59-1.38zm2.761 1.178.001.001a.75.75 0 1 1-.59 1.379h-.002a.75.75 0 0 1 .591-1.38zm2.76 1.179h.002a.75.75 0 0 1-.59 1.38l-.002-.001a.75.75 0 1 1 .591-1.38zm2.761 1.178h.001a.75.75 0 1 1-.59 1.38l-.001-.001a.75.75 0 0 1 .59-1.379zm2.76 1.179h.002a.75.75 0 0 1-.59 1.379h-.002a.75.75 0 1 1 .591-1.38zm2.761 1.178h.001a.75.75 0 1 1-.59 1.38l-.002-.001a.75.75 0 0 1 .591-1.379zm2.76 1.179h.002a.75.75 0 0 1-.591 1.379h-.001a.75.75 0 1 1 .59-1.38zm2.761 1.178h.001a.75.75 0 0 1-.59 1.38l-.002-.001a.75.75 0 0 1 .591-1.379zm2.76 1.179h.002a.75.75 0 0 1-.591 1.379h-.001a.75.75 0 1 1 .59-1.38zm2.761 1.178h.001a.75.75 0 1 1-.59 1.38l-.002-.001a.75.75 0 1 1 .591-1.379z" style="fill:#fbbc04;fill-opacity:1;fill-rule:nonzero;stroke:none"/></g><g clip-path="url(#w)" transform="matrix(1.3333333 0 0 -1.3333333 0 381.33333)"><path d="M78.152 113.266h.002a.75.75 0 1 1-.305 1.469h-.001a.75.75 0 1 1 .304-1.47zm2.94.61a.75.75 0 1 1-.304 1.469h-.002a.75.75 0 0 1 .305-1.47zm2.938.61h.002a.75.75 0 1 1-.305 1.469h-.002a.75.75 0 0 1 .305-1.47zm2.939.61h.002a.75.75 0 1 1-.306 1.469h-.001a.75.75 0 0 1 .305-1.469zm2.939.61h.001a.75.75 0 1 1-.305 1.47l-.001-.001a.75.75 0 1 1 .305-1.469zm2.939.61h.001a.75.75 0 0 1-.305 1.47l-.001-.001a.75.75 0 1 1 .305-1.469zm2.938.61h.002a.75.75 0 0 1-.305 1.47l-.001-.001a.75.75 0 1 1 .304-1.469zm2.94.61a.75.75 0 0 1-.304 1.47h-.002a.75.75 0 1 1 .305-1.47zm2.938.61h.001a.75.75 0 0 1-.305 1.47h-.002a.75.75 0 0 1 .305-1.47zm2.94.61v.001a.75.75 0 1 1-.305 1.469h-.002a.75.75 0 0 1 .305-1.47zm2.938.61.002.001a.75.75 0 0 1-.305 1.469h-.001a.75.75 0 1 1 .305-1.47zm2.939.61.002.001a.75.75 0 1 1-.305 1.469h-.001a.75.75 0 1 1 .305-1.47zm2.939.611a.75.75 0 1 1-.304 1.469h-.001a.75.75 0 0 1 .305-1.469zm2.938.61h.002a.75.75 0 0 1-.305 1.47v-.001a.75.75 0 1 1 .304-1.469zm2.94.61a.75.75 0 1 1-.305 1.47v-.001a.75.75 0 0 1 .304-1.469zm2.938.61h.002a.75.75 0 1 1-.305 1.47l-.001-.001a.75.75 0 0 1 .305-1.469zm2.94.61a.75.75 0 1 1-.305 1.47l-.001-.001a.75.75 0 1 1 .305-1.468zm2.938.61h.001a.75.75 0 1 1-.306 1.47.75.75 0 1 1 .305-1.47zm2.939.61.002.001a.75.75 0 0 1-.306 1.469h-.002a.75.75 0 1 1 .306-1.47zm2.939.61v.001a.75.75 0 1 1-.305 1.469.75.75 0 0 1 .305-1.47zm2.938.61.002.001a.75.75 0 0 1-.305 1.469h-.001a.75.75 0 1 1 .305-1.47zm2.94.611a.75.75 0 0 1-.305 1.469h-.001a.75.75 0 0 1 .305-1.469zm2.938.61h.001a.75.75 0 0 1-.305 1.469h-.001a.75.75 0 0 1 .305-1.469zm2.939.61h.001a.75.75 0 0 1-.306 1.47v-.001a.75.75 0 1 1 .305-1.469zm2.939.61a.75.75 0 1 1-.305 1.47v-.001a.75.75 0 0 1 .305-1.469zm2.939.61a.75.75 0 1 1-.305 1.47l-.002-.001a.75.75 0 0 1 .306-1.468zm2.938.61h.001a.75.75 0 1 1-.305 1.47h-.001a.75.75 0 1 1 .305-1.47zm2.94.61.001.001a.75.75 0 0 1-.305 1.469h-.002a.75.75 0 1 1 .305-1.47zm2.938.61.001.001a.75.75 0 1 1-.305 1.469h-.001a.75.75 0 1 1 .305-1.47zm2.939.61.002.001a.75.75 0 0 1-.306 1.469.75.75 0 0 1 .305-1.47zm2.939.611a.75.75 0 0 1-.305 1.469.75.75 0 0 1 .305-1.469zm2.939.61a.75.75 0 0 1-.305 1.469.75.75 0 0 1 .305-1.469zm2.938.61h.001a.75.75 0 0 1-.305 1.47l-.002-.001a.75.75 0 0 1 .305-1.469zm2.94.61a.75.75 0 0 1-.305 1.47l-.001-.001a.75.75 0 0 1 .305-1.469zm2.938.61h.001a.75.75 0 1 1-.305 1.47l-.001-.001a.75.75 0 1 1 .305-1.469zm2.939.61h.001a.75.75 0 1 1-.306 1.47.75.75 0 0 1 .305-1.47zm2.939.61v.001a.75.75 0 1 1-.305 1.468h-.002a.75.75 0 0 1 .306-1.468zm2.939.61v.001a.75.75 0 0 1-.305 1.469.75.75 0 1 1 .305-1.47zm2.939.61v.001a.75.75 0 1 1-.305 1.469.75.75 0 1 1 .305-1.47zm2.938.611h.001a.75.75 0 0 1-.305 1.469h-.001a.75.75 0 1 1 .305-1.469zm2.94.61a.75.75 0 0 1-.305 1.469h-.001a.75.75 0 0 1 .305-1.469zm2.938.61h.001a.75.75 0 1 1-.305 1.47l-.002-.001a.75.75 0 0 1 .305-1.469zm2.939.61a.75.75 0 0 1-.305 1.47v-.001a.75.75 0 1 1 .305-1.469zm2.939.61h.002a.75.75 0 0 1-.306 1.47l-.002-.001a.75.75 0 0 1 .306-1.469zm2.939.61a.75.75 0 0 1-.305 1.47h-.001a.75.75 0 0 1 .305-1.47zm2.938.61h.002a.75.75 0 0 1-.305 1.47h-.001a.75.75 0 0 1 .305-1.47zm2.94.61v.001a.75.75 0 1 1-.305 1.469h-.001a.75.75 0 1 1 .305-1.47zm2.938.61.001.001a.75.75 0 1 1-.306 1.469.75.75 0 1 1 .305-1.47zm2.939.611a.75.75 0 1 1-.305 1.469h-.002a.75.75 0 0 1 .306-1.469zm2.939.61a.75.75 0 1 1-.305 1.469.75.75 0 1 1 .305-1.469zm2.939.61a.75.75 0 1 1-.305 1.469h-.001a.75.75 0 1 1 .305-1.469zm2.938.61h.001a.75.75 0 0 1-.305 1.47l-.001-.001a.75.75 0 1 1 .305-1.469zm2.94.61a.75.75 0 1 1-.305 1.47l-.002-.001a.75.75 0 0 1 .305-1.469zm2.938.61h.001a.75.75 0 0 1-.306 1.47.75.75 0 0 1 .305-1.47zm2.939.61h.002a.75.75 0 0 1-.306 1.47.75.75 0 0 1 .305-1.47zm2.939.61v.001a.75.75 0 1 1-.305 1.469.75.75 0 0 1 .305-1.47zm2.939.61v.001a.75.75 0 0 1-.305 1.469h-.001a.75.75 0 1 1 .305-1.47zm2.937.61.001.001a.75.75 0 0 1-.303 1.469h-.001a.75.75 0 1 1 .303-1.47zm2.94.61v.001a.75.75 0 1 1-.303 1.47l-.001-.001a.75.75 0 0 1 .303-1.47zm2.938.611h.001a.75.75 0 1 1-.304 1.47l-.002-.001a.75.75 0 1 1 .304-1.469zm2.939.61h.001a.75.75 0 1 1-.304 1.47v-.001a.75.75 0 1 1 .303-1.469zm2.939.61h.002a.75.75 0 0 1-.304 1.47.75.75 0 1 1 .303-1.47zm2.939.61h.002a.75.75 0 1 1-.304 1.47h-.001a.75.75 0 1 1 .303-1.47zm2.938.61h.002a.75.75 0 0 1-.303 1.47h-.002a.75.75 0 1 1 .303-1.47zm2.94.61h.001a.75.75 0 1 1-.303 1.47h-.002a.75.75 0 0 1 .303-1.47zm2.938.61h.001a.75.75 0 1 1-.303 1.47h-.002a.75.75 0 0 1 .303-1.47zm2.939.61.001.001a.75.75 0 0 1-.304 1.469h-.002a.75.75 0 0 1 .304-1.47zm2.939.61v.001a.75.75 0 0 1-.303 1.47v-.001a.75.75 0 1 1 .303-1.47zm2.939.61v.001a.75.75 0 0 1-.303 1.47l-.002-.001a.75.75 0 1 1 .304-1.47zm2.938.611h.001a.75.75 0 0 1-.303 1.47l-.001-.001a.75.75 0 0 1 .303-1.469zm2.94.61a.75.75 0 1 1-.303 1.47h-.002a.75.75 0 1 1 .303-1.47zm2.938.61h.002a.75.75 0 1 1-.303 1.47h-.001a.75.75 0 0 1 .303-1.47zm2.939.61h.002a.75.75 0 1 1-.304 1.47.75.75 0 1 1 .303-1.47zm2.939.61a.75.75 0 1 1-.303 1.47.75.75 0 1 1 .303-1.47zm2.939.61h.002a.75.75 0 0 1-.304 1.47h-.002a.75.75 0 1 1 .304-1.47zm2.939.61v.001a.75.75 0 1 1-.303 1.469h-.001a.75.75 0 1 1 .304-1.47zm2.938.61.002.001a.75.75 0 0 1-.303 1.47l-.002-.001a.75.75 0 0 1 .303-1.47zm2.94.61v.001a.75.75 0 1 1-.303 1.47l-.002-.001a.75.75 0 0 1 .303-1.47zm2.938.611h.001a.75.75 0 0 1-.303 1.47l-.002-.001a.75.75 0 0 1 .303-1.469zm2.939.61a.75.75 0 0 1-.303 1.47h-.002a.75.75 0 0 1 .304-1.47zm2.939.61h.002a.75.75 0 0 1-.304 1.47.75.75 0 1 1 .303-1.47zm2.939.61a.75.75 0 0 1-.303 1.47h-.002a.75.75 0 1 1 .304-1.47zm2.938.61h.002a.75.75 0 1 1-.303 1.47h-.001a.75.75 0 0 1 .303-1.47zm2.94.61a.75.75 0 1 1-.303 1.47h-.001a.75.75 0 1 1 .303-1.47zm2.938.61.002.001a.75.75 0 1 1-.304 1.469.75.75 0 1 1 .303-1.47zm2.939.61.002.001a.75.75 0 1 1-.304 1.469.75.75 0 1 1 .303-1.47zm2.939.61.002.001a.75.75 0 1 1-.304 1.47l-.002-.001a.75.75 0 1 1 .304-1.47zm2.939.611h.002a.75.75 0 0 1-.304 1.47l-.002-.001a.75.75 0 1 1 .304-1.469zm2.938.61h.001a.75.75 0 1 1-.303 1.47h-.001a.75.75 0 0 1 .303-1.47zm2.94.61a.75.75 0 0 1-.303 1.47h-.002a.75.75 0 0 1 .303-1.47zm2.938.61h.001a.75.75 0 0 1-.304 1.47h-.002a.75.75 0 0 1 .304-1.47zm2.939.61h.001a.75.75 0 0 1-.304 1.47h-.002a.75.75 0 0 1 .304-1.47zm2.939.61a.75.75 0 0 1-.303 1.47.75.75 0 0 1 .303-1.47zm2.939.61h.002a.75.75 0 0 1-.304 1.47h-.001a.75.75 0 1 1 .303-1.47zm2.938.61.002.001a.75.75 0 1 1-.303 1.469h-.001a.75.75 0 0 1 .303-1.47zm2.94.61.001.001a.75.75 0 1 1-.303 1.47l-.002-.001a.75.75 0 0 1 .303-1.47zm2.938.611h.001a.75.75 0 1 1-.303 1.47l-.001-.001a.75.75 0 1 1 .303-1.469zm2.939.61h.002a.75.75 0 1 1-.304 1.47l-.002-.001a.75.75 0 1 1 .304-1.469zm2.939.61a.75.75 0 1 1-.303 1.47.75.75 0 1 1 .303-1.47zm2.939.61h.002a.75.75 0 0 1-.304 1.47h-.002a.75.75 0 1 1 .304-1.47zm2.938.61h.001a.75.75 0 0 1-.303 1.47h-.002a.75.75 0 0 1 .303-1.47zm2.94.61a.75.75 0 1 1-.303 1.47h-.001a.75.75 0 0 1 .303-1.47zm2.938.61h.001a.75.75 0 0 1-.303 1.47h-.001a.75.75 0 0 1 .303-1.47zm2.939.61.001.001a.75.75 0 0 1-.304 1.469.75.75 0 1 1 .303-1.47zm2.939.61.002.001a.75.75 0 0 1-.304 1.47l-.002-.001a.75.75 0 0 1 .304-1.47zm2.939.61.002.001a.75.75 0 1 1-.304 1.47l-.002-.001a.75.75 0 1 1 .304-1.47zm2.938.611h.001a.75.75 0 1 1-.303 1.47l-.001-.001a.75.75 0 1 1 .303-1.469zm2.94.61a.75.75 0 1 1-.303 1.47h-.002a.75.75 0 1 1 .303-1.47zm2.938.61h.001a.75.75 0 0 1-.304 1.47h-.002a.75.75 0 1 1 .304-1.47zm2.939.61h.002a.75.75 0 0 1-.304 1.47.75.75 0 1 1 .303-1.47zm2.939.61h.002a.75.75 0 1 1-.304 1.47h-.002a.75.75 0 0 1 .304-1.47zm2.938.61h.001a.75.75 0 0 1-.303 1.47h-.001a.75.75 0 0 1 .303-1.47zm2.94.61.001.001a.75.75 0 0 1-.303 1.469h-.002a.75.75 0 0 1 .303-1.47zm2.94.611h.001a.75.75 0 1 1-.307 1.469h-.001a.75.75 0 0 1 .307-1.469zm2.939.61h.001a.75.75 0 1 1-.307 1.469h-.002a.75.75 0 0 1 .307-1.469zm2.939.61h.002a.75.75 0 0 1-.308 1.469h-.002a.75.75 0 0 1 .308-1.469zm2.939.61a.75.75 0 0 1-.307 1.469.75.75 0 0 1 .307-1.468z" style="fill:#ea4335;fill-opacity:1;fill-rule:nonzero;stroke:none"/></g><g clip-path="url(#x)" transform="matrix(1.3333333 0 0 -1.3333333 0 381.33333)"><text xml:space="preserve" style="font-variant:normal;font-weight:400;font-size:9px;font-family:Arial;-inkscape-font-specification:ArialMT;writing-mode:lr-tb;fill:#4285f4;fill-opacity:1;fill-rule:nonzero;stroke:none" transform="matrix(1 0 0 -1 401.8296 170)">
          <tspan x="0 5.0004001 7.0037999 12.0042 15.0066 20.007 23.009399 28.0098 33.010201 38.010601 43.011002 48.011398 50.014801 55.015202 57.0186 62.019001 65.0214 70.021797 75.022202 80.022598" y="0">y = 0.0142x + 0.0002</tspan>
        </text></g><g clip-path="url(#y)" transform="matrix(1.3333333 0 0 -1.3333333 0 381.33333)"><text xml:space="preserve" style="font-variant:normal;font-weight:400;font-size:9px;font-family:Arial;-inkscape-font-specification:ArialMT;writing-mode:lr-tb;fill:#fbbc04;fill-opacity:1;fill-rule:nonzero;stroke:none" transform="matrix(1 0 0 -1 413.3886 221)">
          <tspan x="0 5.0004001 7.0037999 12.0042 15.0066 20.007 23.009399 28.0098 33.010201 38.010601 43.011002 48.011398 50.014801 55.015202 57.0186 62.019001 65.0214 70.021797 75.022202 80.022598" y="0">y = 0.0211x + 0.0002</tspan>
        </text></g><g clip-path="url(#z)" transform="matrix(1.3333333 0 0 -1.3333333 0 381.33333)"><text xml:space="preserve" style="font-variant:normal;font-weight:400;font-size:9px;font-family:Arial;-inkscape-font-specification:ArialMT;writing-mode:lr-tb;fill:#ea4335;fill-opacity:1;fill-rule:nonzero;stroke:none" transform="matrix(1 0 0 -1 405.8134 186)">
          <tspan x="0 5.0004001 7.0037999 12.0042 15.0066 20.007 23.009399 28.0098 33.010201 38.010601 43.011002 48.011398 50.014801 55.015202 57.0186 62.019001 65.0214 70.021797 75.022202 80.022598" y="0">y = 0.0104x + 0.0002</tspan>
        </text></g><g clip-path="url(#A)" transform="matrix(1.3333333 0 0 -1.3333333 0 381.33333)"><text xml:space="preserve" style="font-variant:normal;font-weight:400;font-size:9px;font-family:Arial;-inkscape-font-specification:ArialMT;writing-mode:lr-tb;fill:#595959;fill-opacity:1;fill-rule:nonzero;stroke:none" transform="matrix(1 0 0 -1 27.60299 62)">
          <tspan x="0 5.0004001 8.0028 13.0032 18.003599 23.004 28.0044 33.004799 38.005199" y="0">0.0002200</tspan>
        </text></g><g clip-path="url(#B)" transform="matrix(1.3333333 0 0 -1.3333333 0 381.33333)"><text xml:space="preserve" style="font-variant:normal;font-weight:400;font-size:9px;font-family:Arial;-inkscape-font-specification:ArialMT;writing-mode:lr-tb;fill:#595959;fill-opacity:1;fill-rule:nonzero;stroke:none" transform="matrix(1 0 0 -1 27.60299 85)">
          <tspan x="0 5.0004001 8.0028 13.0032 18.003599 23.004 28.0044 33.004799 38.005199" y="0">0.0002300</tspan>
        </text></g><g clip-path="url(#C)" transform="matrix(1.3333333 0 0 -1.3333333 0 381.33333)"><text xml:space="preserve" style="font-variant:normal;font-weight:400;font-size:9px;font-family:Arial;-inkscape-font-specification:ArialMT;writing-mode:lr-tb;fill:#595959;fill-opacity:1;fill-rule:nonzero;stroke:none" transform="matrix(1 0 0 -1 27.60299 108)">
          <tspan x="0 5.0004001 8.0028 13.0032 18.003599 23.004 28.0044 33.004799 38.005199" y="0">0.0002400</tspan>
        </text></g><g clip-path="url(#D)" transform="matrix(1.3333333 0 0 -1.3333333 0 381.33333)"><text xml:space="preserve" style="font-variant:normal;font-weight:400;font-size:9px;font-family:Arial;-inkscape-font-specification:ArialMT;writing-mode:lr-tb;fill:#595959;fill-opacity:1;fill-rule:nonzero;stroke:none" transform="matrix(1 0 0 -1 27.60299 131)">
          <tspan x="0 5.0004001 8.0028 13.0032 18.003599 23.004 28.0044 33.004799 38.005199" y="0">0.0002500</tspan>
        </text></g><g clip-path="url(#E)" transform="matrix(1.3333333 0 0 -1.3333333 0 381.33333)"><text xml:space="preserve" style="font-variant:normal;font-weight:400;font-size:9px;font-family:Arial;-inkscape-font-specification:ArialMT;writing-mode:lr-tb;fill:#595959;fill-opacity:1;fill-rule:nonzero;stroke:none" transform="matrix(1 0 0 -1 27.60299 154)">
          <tspan x="0 5.0004001 8.0028 13.0032 18.003599 23.004 28.0044 33.004799 38.005199" y="0">0.0002600</tspan>
        </text></g><g clip-path="url(#F)" transform="matrix(1.3333333 0 0 -1.3333333 0 381.33333)"><text xml:space="preserve" style="font-variant:normal;font-weight:400;font-size:9px;font-family:Arial;-inkscape-font-specification:ArialMT;writing-mode:lr-tb;fill:#595959;fill-opacity:1;fill-rule:nonzero;stroke:none" transform="matrix(1 0 0 -1 27.60299 177)">
          <tspan x="0 5.0004001 8.0028 13.0032 18.003599 23.004 28.0044 33.004799 38.005199" y="0">0.0002700</tspan>
        </text></g><g clip-path="url(#G)" transform="matrix(1.3333333 0 0 -1.3333333 0 381.33333)"><text xml:space="preserve" style="font-variant:normal;font-weight:400;font-size:9px;font-family:Arial;-inkscape-font-specification:ArialMT;writing-mode:lr-tb;fill:#595959;fill-opacity:1;fill-rule:nonzero;stroke:none" transform="matrix(1 0 0 -1 27.60299 200)">
          <tspan x="0 5.0004001 8.0028 13.0032 18.003599 23.004 28.0044 33.004799 38.005199" y="0">0.0002800</tspan>
        </text></g><g clip-path="url(#H)" transform="matrix(1.3333333 0 0 -1.3333333 0 381.33333)"><text xml:space="preserve" style="font-variant:normal;font-weight:400;font-size:9px;font-family:Arial;-inkscape-font-specification:ArialMT;writing-mode:lr-tb;fill:#595959;fill-opacity:1;fill-rule:nonzero;stroke:none" transform="matrix(1 0 0 -1 27.60299 224)">
          <tspan x="0 5.0004001 8.0028 13.0032 18.003599 23.004 28.0044 33.004799 38.005199" y="0">0.0002900</tspan>
        </text></g><g clip-path="url(#I)" transform="matrix(1.3333333 0 0 -1.3333333 0 381.33333)"><text xml:space="preserve" style="font-variant:normal;font-weight:400;font-size:9px;font-family:Arial;-inkscape-font-specification:ArialMT;writing-mode:lr-tb;fill:#595959;fill-opacity:1;fill-rule:nonzero;stroke:none" transform="matrix(1 0 0 -1 27.60299 247)">
          <tspan x="0 5.0004001 8.0028 13.0032 18.003599 23.004 28.0044 33.004799 38.005199" y="0">0.0003000</tspan>
        </text></g><g clip-path="url(#J)" transform="matrix(1.3333333 0 0 -1.3333333 0 381.33333)"><text xml:space="preserve" style="font-variant:normal;font-weight:400;font-size:9px;font-family:Arial;-inkscape-font-specification:ArialMT;writing-mode:lr-tb;fill:#595959;fill-opacity:1;fill-rule:nonzero;stroke:none" transform="matrix(1 0 0 -1 75.38079 51)">
          <tspan x="0" y="0">0</tspan>
        </text></g><g clip-path="url(#K)" transform="matrix(1.3333333 0 0 -1.3333333 0 381.33333)"><text xml:space="preserve" style="font-variant:normal;font-weight:400;font-size:9px;font-family:Arial;-inkscape-font-specification:ArialMT;writing-mode:lr-tb;fill:#595959;fill-opacity:1;fill-rule:nonzero;stroke:none" transform="matrix(1 0 0 -1 121.2202 51)">
          <tspan x="0 5.0004001 8.0028 13.0032 18.003599 23.004" y="0">0.0005</tspan>
        </text></g><g clip-path="url(#L)" transform="matrix(1.3333333 0 0 -1.3333333 0 381.33333)"><text xml:space="preserve" style="font-variant:normal;font-weight:400;font-size:9px;font-family:Arial;-inkscape-font-specification:ArialMT;writing-mode:lr-tb;fill:#595959;fill-opacity:1;fill-rule:nonzero;stroke:none" transform="matrix(1 0 0 -1 180.8221 51)">
          <tspan x="0 5.0004001 8.0028 13.0032 18.003599" y="0">0.001</tspan>
        </text></g><g clip-path="url(#M)" transform="matrix(1.3333333 0 0 -1.3333333 0 381.33333)"><text xml:space="preserve" style="font-variant:normal;font-weight:400;font-size:9px;font-family:Arial;-inkscape-font-specification:ArialMT;writing-mode:lr-tb;fill:#595959;fill-opacity:1;fill-rule:nonzero;stroke:none" transform="matrix(1 0 0 -1 235.4191 51)">
          <tspan x="0 5.0004001 8.0028 13.0032 18.003599 23.004" y="0">0.0015</tspan>
        </text></g><g clip-path="url(#N)" transform="matrix(1.3333333 0 0 -1.3333333 0 381.33333)"><text xml:space="preserve" style="font-variant:normal;font-weight:400;font-size:9px;font-family:Arial;-inkscape-font-specification:ArialMT;writing-mode:lr-tb;fill:#595959;fill-opacity:1;fill-rule:nonzero;stroke:none" transform="matrix(1 0 0 -1 295.021 51)">
          <tspan x="0 5.0004001 8.0028 13.0032 18.003599" y="0">0.002</tspan>
        </text></g><g clip-path="url(#O)" transform="matrix(1.3333333 0 0 -1.3333333 0 381.33333)"><text xml:space="preserve" style="font-variant:normal;font-weight:400;font-size:9px;font-family:Arial;-inkscape-font-specification:ArialMT;writing-mode:lr-tb;fill:#595959;fill-opacity:1;fill-rule:nonzero;stroke:none" transform="matrix(1 0 0 -1 349.618 51)">
          <tspan x="0 5.0004001 8.0028 13.0032 18.003599 23.004" y="0">0.0025</tspan>
        </text></g><g clip-path="url(#P)" transform="matrix(1.3333333 0 0 -1.3333333 0 381.33333)"><text xml:space="preserve" style="font-variant:normal;font-weight:400;font-size:9px;font-family:Arial;-inkscape-font-specification:ArialMT;writing-mode:lr-tb;fill:#595959;fill-opacity:1;fill-rule:nonzero;stroke:none" transform="matrix(1 0 0 -1 409.2199 51)">
          <tspan x="0 5.0004001 8.0028 13.0032 18.003599" y="0">0.003</tspan>
        </text></g><g clip-path="url(#Q)" transform="matrix(1.3333333 0 0 -1.3333333 0 381.33333)"><text xml:space="preserve" style="font-variant:normal;font-weight:400;font-size:9px;font-family:Arial;-inkscape-font-specification:ArialMT;writing-mode:lr-tb;fill:#595959;fill-opacity:1;fill-rule:nonzero;stroke:none" transform="matrix(1 0 0 -1 463.8169 51)">
          <tspan x="0 5.0004001 8.0028 13.0032 18.003599 23.004" y="0">0.0035</tspan>
        </text></g><g clip-path="url(#R)" transform="matrix(1.3333333 0 0 -1.3333333 0 381.33333)"><text xml:space="preserve" style="font-variant:normal;font-weight:400;font-size:10px;font-family:Arial;-inkscape-font-specification:ArialMT;writing-mode:lr-tb;fill:#595959;fill-opacity:1;fill-rule:nonzero;stroke:none" transform="matrix(0 1 1 0 22.103 80)">
          <tspan x="0 6 9 14 20 26 31 33 36 38 43 45 51 57 63 66 68 73 79 85 91 96 98 101 106 108 111 116 118 123" y="0">1/specific heat capacity (J kg</tspan>
        </text></g><g clip-path="url(#S)" transform="matrix(1.3333333 0 0 -1.3333333 0 381.33333)"><text xml:space="preserve" style="font-variant:normal;font-weight:400;font-size:7px;font-family:Arial;-inkscape-font-specification:ArialMT;writing-mode:lr-tb;fill:#595959;fill-opacity:1;fill-rule:nonzero;stroke:none" transform="matrix(0 1 1 0 19.103 209)">
          <tspan x="0" y="0">-</tspan>
        </text></g><g clip-path="url(#T)" transform="matrix(1.3333333 0 0 -1.3333333 0 381.33333)"><text xml:space="preserve" style="font-variant:normal;font-weight:400;font-size:7px;font-family:Arial;-inkscape-font-specification:ArialMT;writing-mode:lr-tb;fill:#595959;fill-opacity:1;fill-rule:nonzero;stroke:none" transform="matrix(0 1 1 0 19.103 211)">
          <tspan x="0" y="0">1</tspan>
        </text></g><g clip-path="url(#U)" transform="matrix(1.3333333 0 0 -1.3333333 0 381.33333)"><text xml:space="preserve" style="font-variant:normal;font-weight:400;font-size:10px;font-family:Arial;-inkscape-font-specification:ArialMT;writing-mode:lr-tb;fill:#595959;fill-opacity:1;fill-rule:nonzero;stroke:none" transform="matrix(0 1 1 0 22.103 217)">
          <tspan x="0" y="0">K</tspan>
        </text></g><g clip-path="url(#V)" transform="matrix(1.3333333 0 0 -1.3333333 0 381.33333)"><text xml:space="preserve" style="font-variant:normal;font-weight:400;font-size:7px;font-family:Arial;-inkscape-font-specification:ArialMT;writing-mode:lr-tb;fill:#595959;fill-opacity:1;fill-rule:nonzero;stroke:none" transform="matrix(0 1 1 0 19.103 224)">
          <tspan x="0" y="0">-</tspan>
        </text></g><g clip-path="url(#W)" transform="matrix(1.3333333 0 0 -1.3333333 0 381.33333)"><text xml:space="preserve" style="font-variant:normal;font-weight:400;font-size:7px;font-family:Arial;-inkscape-font-specification:ArialMT;writing-mode:lr-tb;fill:#595959;fill-opacity:1;fill-rule:nonzero;stroke:none" transform="matrix(0 1 1 0 19.103 226)">
          <tspan x="0" y="0">1</tspan>
        </text></g><g clip-path="url(#X)" transform="matrix(1.3333333 0 0 -1.3333333 0 381.33333)"><text xml:space="preserve" style="font-variant:normal;font-weight:400;font-size:10px;font-family:Arial;-inkscape-font-specification:ArialMT;writing-mode:lr-tb;fill:#595959;fill-opacity:1;fill-rule:nonzero;stroke:none" transform="matrix(0 1 1 0 22.103 230)">
          <tspan x="0" y="0">)</tspan>
        </text></g><g clip-path="url(#Y)" transform="matrix(1.3333333 0 0 -1.3333333 0 381.33333)"><text xml:space="preserve" style="font-variant:normal;font-weight:400;font-size:10px;font-family:Arial;-inkscape-font-specification:ArialMT;writing-mode:lr-tb;fill:#595959;fill-opacity:1;fill-rule:nonzero;stroke:none" transform="matrix(1 0 0 -1 241.0364 37)">
          <tspan x="0 8 14 19 24 27 33 36 38 43 49 51 54 56 59 64 70" y="0">Mass of salt (kg)</tspan>
        </text></g><g clip-path="url(#Z)" transform="matrix(1.3333333 0 0 -1.3333333 0 381.33333)"><text xml:space="preserve" style="font-variant:normal;font-weight:400;font-size:14px;font-family:Arial;-inkscape-font-specification:ArialMT;writing-mode:lr-tb;fill:#595959;fill-opacity:1;fill-rule:nonzero;stroke:none" transform="matrix(1 0 0 -1 102.7775 265)">
          <tspan x="0 11.9994 19.999001 26.999001 33.999001 36.999199 44.998798 48.9986 52.998402 59.998402 67.998001 70.998199 74.998001 78.997803 81.998001 89.997597 92.997803 99.997803 107.9974 110.9976 118.9972 122.997 125.9972 133.9968 141.9964 145.9962 152.9962 159.9962 162.9964 169.9964 177.996 185.99561 192.99561 195.9958 199.99561 202.9958 209.9958 213.99561 221.99519 229.9948 237.9944 241.9942 244.9944 251.9944 259.99399 267.99359 275.99319 282.99319 285.99341 289.99319" y="0">Mass of salt in solution vs specific heat capacity</tspan>
        </text></g><g clip-path="url(#aa)" transform="matrix(1.3333333 0 0 -1.3333333 0 381.33333)"><path d="M123 14.75h.001a.75.75 0 0 0 0-1.5H123a.75.75 0 0 0 0 1.5zm3.002 0h.001a.75.75 0 0 0 0-1.5h-.002a.75.75 0 0 0 0 1.5zm3.001 0h.002a.75.75 0 0 0 0-1.5h-.002a.75.75 0 0 0 0 1.5zm3.002 0a.75.75 0 0 0 0-1.5.75.75 0 0 0 0 1.5zm3.001 0h.001a.75.75 0 0 0 0-1.5h-.001a.75.75 0 0 0 0 1.5zm3.001 0h.001a.75.75 0 0 0 0-1.5.75.75 0 0 0 0 1.5zm3.002 0h.002a.75.75 0 0 0 0-1.5h-.002a.75.75 0 0 0 0 1.5zm3.001 0h.001a.75.75 0 0 0 0-1.5.75.75 0 0 0 0 1.5zm3.002 0h.001a.75.75 0 0 0 0-1.5h-.001a.75.75 0 0 0 0 1.5z" style="fill:#4285f4;fill-opacity:1;fill-rule:nonzero;stroke:none"/></g><g clip-path="url(#ab)" transform="matrix(1.3333333 0 0 -1.3333333 0 381.33333)"><text xml:space="preserve" style="font-variant:normal;font-weight:400;font-size:9px;font-family:Arial;-inkscape-font-specification:ArialMT;writing-mode:lr-tb;fill:#595959;fill-opacity:1;fill-rule:nonzero;stroke:none" transform="matrix(1 0 0 -1 150.7831 12)">
          <tspan x="0 5.0004001 7.0037999 12.0042 17.004601 22.004999 25.007401 28.0098 31.012199 36.0126 40.014 45.0144" y="0">Linear (avg)</tspan>
        </text></g><g clip-path="url(#ac)" transform="matrix(1.3333333 0 0 -1.3333333 0 381.33333)"><path d="M214 14.75h.001a.75.75 0 0 0 0-1.5H214a.75.75 0 0 0 0 1.5zm3.002 0a.75.75 0 0 0 0-1.5.75.75 0 0 0 0 1.5zm3.001 0h.002a.75.75 0 0 0 0-1.5h-.002a.75.75 0 0 0 0 1.5zm3.002 0a.75.75 0 0 0 0-1.5.75.75 0 0 0 0 1.5zm3.001 0h.001a.75.75 0 0 0 0-1.5h-.001a.75.75 0 0 0 0 1.5zm3.001 0h.001a.75.75 0 0 0 0-1.5.75.75 0 0 0 0 1.5zm3.002 0h.002a.75.75 0 0 0 0-1.5h-.002a.75.75 0 0 0 0 1.5zm3.001 0h.001a.75.75 0 0 0 0-1.5.75.75 0 0 0 0 1.5zm3.002 0h.001a.75.75 0 0 0 0-1.5h-.001a.75.75 0 0 0 0 1.5z" style="fill:#fbbc04;fill-opacity:1;fill-rule:nonzero;stroke:none"/></g><g clip-path="url(#ad)" transform="matrix(1.3333333 0 0 -1.3333333 0 381.33333)"><text xml:space="preserve" style="font-variant:normal;font-weight:400;font-size:9px;font-family:Arial;-inkscape-font-specification:ArialMT;writing-mode:lr-tb;fill:#595959;fill-opacity:1;fill-rule:nonzero;stroke:none" transform="matrix(1 0 0 -1 242.3496 12)">
          <tspan x="0 5.0004001 7.0037999 12.0042 17.004601 22.004999 25.007401 28.0098 31.012199 38.010601 43.011002 48.011398" y="0">Linear (max)</tspan>
        </text></g><g clip-path="url(#ae)" transform="matrix(1.3333333 0 0 -1.3333333 0 381.33333)"><path d="M308 14.75h.002a.75.75 0 0 0 0-1.5H308a.75.75 0 0 0 0 1.5zm3.002 0a.75.75 0 0 0 0-1.5.75.75 0 0 0 0 1.5zm3.001 0h.002a.75.75 0 0 0 0-1.5h-.002a.75.75 0 0 0 0 1.5zm3.002 0a.75.75 0 0 0 0-1.5.75.75 0 0 0 0 1.5zm3.001 0h.002a.75.75 0 0 0 0-1.5h-.002a.75.75 0 0 0 0 1.5zm3.002 0h.002a.75.75 0 0 0 0-1.5h-.002a.75.75 0 0 0 0 1.5zm3.001 0h.001a.75.75 0 0 0 0-1.5h-.001a.75.75 0 0 0 0 1.5zm3.002 0h.002a.75.75 0 0 0 0-1.5h-.002a.75.75 0 0 0 0 1.5zm3.001 0h.002a.75.75 0 0 0 0-1.5h-.002a.75.75 0 0 0 0 1.5z" style="fill:#ea4335;fill-opacity:1;fill-rule:nonzero;stroke:none"/></g><g clip-path="url(#af)" transform="matrix(1.3333333 0 0 -1.3333333 0 381.33333)"><text xml:space="preserve" style="font-variant:normal;font-weight:400;font-size:9px;font-family:Arial;-inkscape-font-specification:ArialMT;writing-mode:lr-tb;fill:#595959;fill-opacity:1;fill-rule:nonzero;stroke:none" transform="matrix(1 0 0 -1 336.4061 12)">
          <tspan x="0 5.0004001 7.0037999 12.0042 17.004601 22.004999 25.007401 28.0098 31.012199 38.010601 40.014 45.0144" y="0">Linear (min)</tspan>
        </text></g><path d="M0 0h6375400v3619500H0Z" style="fill:none;stroke:#d9d9d9;stroke-width:9525;stroke-linecap:butt;stroke-linejoin:round;stroke-miterlimit:10;stroke-dasharray:none;stroke-opacity:1" transform="matrix(.00010499 0 0 .00010499 .66667 .66667)"/></svg>